<ttFont>
        <CharString name=".notdef">
          -193 0 50 600 50 hstem
          0 50 400 50 vstem
          0 vmoveto
          500 700 -500 hlineto
          250 -305 rmoveto
          -170 255 rlineto
          340 hlineto
          -140 -300 rmoveto
          170 255 rlineto
          -510 vlineto
          -370 -45 rmoveto
          170 255 170 -255 rlineto
          -370 555 rmoveto
          170 -255 -170 -255 rlineto
          endchar
        </CharString>
        <CharString name="A">
          106 21 -21 99 166 436 -20 hstem
          -10 819 vstem
          527 99 rmoveto
          35 -99 rlineto
          247 hlineto
          -285 701 rlineto
          -238 hlineto
          -296 -701 rlineto
          238 hlineto
          36 99 rlineto
          206 166 rmoveto
          -146 hlineto
          74 205 rlineto
          endchar
        </CharString>
        <CharString name="AE">
          454 0 176 -54 166 -25 176 86 176 hstemhm
          507 232 hintmask 10111000
          1109 176 rmoveto
          -370 87 328 176 -328 86 361 176 -720 hlineto
          -390 -701 rlineto
          240 hlineto
          hintmask 01011000
          60 122 rlineto
          217 hlineto
          hintmask 10111000
          -122 602 vlineto
          hintmask 01011000
          -602 288 rmoveto
          -134 hlineto
          117 237 rlineto
          17 hlineto
          endchar
        </CharString>
        <CharString name="Aacute">
          106 21 -21 99 166 436 -20 hstem
          -10 819 vstem
          455 745 rmoveto
          137 129 -190 60 -107 -189 rlineto
          232 -646 rmoveto
          35 -99 rlineto
          247 hlineto
          -285 701 rlineto
          -238 hlineto
          -296 -701 rlineto
          238 hlineto
          36 99 rlineto
          206 166 rmoveto
          -146 hlineto
          74 205 rlineto
          endchar
        </CharString>
        <CharString name="Abreve">
          106 21 -21 99 166 436 -20 68 174 hstemhm
          216 135 98 135 hintmask 00000000
          hintmask 11111100
          400 749 rmoveto
          107 72 68 106 5 hvcurveto
          -135 hlineto
          -30 -3 -19 -20 -27 hhcurveto
          -27 -19 20 30 -3 hvcurveto
          -135 hlineto
          -106 5 72 -68 107 hhcurveto
          127 -650 rmoveto
          35 -99 rlineto
          247 hlineto
          -285 701 rlineto
          -238 hlineto
          -296 -701 rlineto
          238 hlineto
          36 99 rlineto
          206 166 rmoveto
          -146 hlineto
          74 205 rlineto
          endchar
        </CharString>
        <CharString name="Acircumflex">
          106 21 -21 99 166 436 -20 80 162 hstem
          -10 819 vstem
          345 761 rmoveto
          55 82 55 -82 rlineto
          150 hlineto
          -121 162 rlineto
          -168 hlineto
          -121 -162 rlineto
          332 -662 rmoveto
          35 -99 rlineto
          247 hlineto
          -285 701 rlineto
          -238 hlineto
          -296 -701 rlineto
          238 hlineto
          36 99 rlineto
          206 166 rmoveto
          -146 hlineto
          74 205 rlineto
          endchar
        </CharString>
        <CharString name="Adieresis">
          106 21 -21 99 166 436 -20 80 183 hstemhm
          205 182 26 182 hintmask 11111000
          296 761 rmoveto
          54 37 38 53 54 -37 38 -54 -54 -37 -38 -54 -53 37 -38 54 hvcurveto
          hintmask 11111100
          208 hmoveto
          54 37 38 53 54 -37 38 -54 -54 -37 -38 -54 -53 37 -38 54 hvcurveto
          23 -662 rmoveto
          35 -99 rlineto
          247 hlineto
          -285 701 rlineto
          -238 hlineto
          -296 -701 rlineto
          238 hlineto
          36 99 rlineto
          206 166 rmoveto
          -146 hlineto
          74 205 rlineto
          endchar
        </CharString>
        <CharString name="Agrave">
          106 21 -21 99 166 436 -20 hstem
          -10 819 vstem
          352 745 rmoveto
          160 hlineto
          -107 189 -190 -60 rlineto
          312 -775 rmoveto
          35 -99 rlineto
          247 hlineto
          -285 701 rlineto
          -238 hlineto
          -296 -701 rlineto
          238 hlineto
          36 99 rlineto
          206 166 rmoveto
          -146 hlineto
          74 205 rlineto
          endchar
        </CharString>
        <CharString name="Amacron">
          106 21 -21 99 166 436 -20 97 148 hstem
          250 300 vstem
          550 778 rmoveto
          148 -300 -148 vlineto
          277 -679 rmoveto
          35 -99 rlineto
          247 hlineto
          -285 701 rlineto
          -238 hlineto
          -296 -701 rlineto
          238 hlineto
          36 99 rlineto
          206 166 rmoveto
          -146 hlineto
          74 205 rlineto
          endchar
        </CharString>
        <CharString name="Aogonek">
          106 -183 -21 225 -21 99 166 436 -20 hstemhm
          -10 819 -216 110 hintmask 11111000
          809 hmoveto
          -285 701 rlineto
          -238 hlineto
          -296 -701 rlineto
          238 hlineto
          36 99 rlineto
          hintmask 11110100
          263 hlineto
          35 -99 rlineto
          74 hlineto
          -24 -36 -19 -39 -41 vvcurveto
          -69 54 -19 42 49 43 25 51 28 vhcurveto
          -55 64 rlineto
          -19 -11 -13 -11 -13 hhcurveto
          -8 -6 5 10 16 16 30 22 33 hvcurveto
          -417 265 rmoveto
          74 205 72 -205 rlineto
          endchar
        </CharString>
        <CharString name="Aring">
          106 21 -21 99 166 538 92 hstem
          270 92 84 92 vstem
          527 99 rmoveto
          35 -99 rlineto
          247 hlineto
          -285 701 rlineto
          9 18 5 20 22 vvcurveto
          75 -59 59 -75 -75 -59 -59 -75 -23 5 -21 10 -18 vhcurveto
          -295 -699 rlineto
          238 hlineto
          36 99 rlineto
          140 704 rmoveto
          24 18 -18 -24 -24 -18 -18 -24 -24 -18 18 24 24 18 18 24 hvcurveto
          66 -538 rmoveto
          -146 hlineto
          74 205 rlineto
          endchar
        </CharString>
        <CharString name="Atilde">
          106 21 -21 99 166 436 -20 85 182 -180 183 hstemhm
          206 136 117 135 hintmask 00000000
          hintmask 11110110
          365 806 rmoveto
          24 26 -40 63 hhcurveto
          79 37 58 124 hvcurveto
          -135 hlineto
          -25 -7 -12 -17 vhcurveto
          hintmask 11101100
          -23 -27 40 -62 hhcurveto
          -79 -38 -58 -125 hvcurveto
          136 hlineto
          hintmask 11110110
          26 7 12 16 vhcurveto
          hintmask 11110010
          162 -707 rmoveto
          35 -99 rlineto
          247 hlineto
          -285 701 rlineto
          -238 hlineto
          -296 -701 rlineto
          238 hlineto
          36 99 rlineto
          206 166 rmoveto
          -146 hlineto
          74 205 rlineto
          endchar
        </CharString>
        <CharString name="B">
          31 0 170 107 154 100 170 hstemhm
          50 231 164 238 -220 241 hintmask 11110100
          50 701 rmoveto
          -701 372 vlineto
          171 111 77 120 88 -55 70 -84 19 hvcurveto
          hintmask 11111000
          72 22 46 59 69 vvcurveto
          107 -109 70 -169 vhcurveto
          -124 -170 rmoveto
          111 hlineto
          32 21 -19 -30 -31 -21 -20 -32 hvcurveto
          -111 hlineto
          -154 vmoveto
          hintmask 11110100
          111 hlineto
          43 28 -20 -31 -34 -28 -22 -43 hvcurveto
          -111 hlineto
          endchar
        </CharString>
        <CharString name="C">
          -5 -10 203 322 193 hstem
          15 238 vstem
          395 708 rmoveto
          -220 -160 -150 -206 -209 156 -153 215 108 119 55 85 78 hvcurveto
          -134 143 rlineto
          -49 -46 -63 -31 -50 hhcurveto
          -84 -61 68 94 93 61 67 84 54 63 -37 -57 42 hvcurveto
          134 159 rlineto
          78 -72 -117 50 -107 hhcurveto
          endchar
        </CharString>
        <CharString name="Cacute">
          -5 -10 203 322 193 hstem
          15 238 vstem
          586 874 rmoveto
          -190 60 -107 -189 rlineto
          160 hlineto
          -54 -37 rmoveto
          -220 -160 -150 -206 -209 156 -153 215 108 119 55 85 78 hvcurveto
          -134 143 rlineto
          -49 -46 -63 -31 -50 hhcurveto
          -84 -61 68 94 93 61 67 84 54 63 -37 -57 42 hvcurveto
          134 159 rlineto
          78 -72 -117 50 -107 hhcurveto
          endchar
        </CharString>
        <CharString name="Ccaron">
          -5 -10 203 322 193 37 178 hstem
          15 238 vstem
          163 923 rmoveto
          133 -178 rlineto
          184 hlineto
          133 178 rlineto
          -165 hlineto
          -60 -90 -60 90 rlineto
          67 -215 rmoveto
          -220 -160 -150 -206 -209 156 -153 215 108 119 55 85 78 hvcurveto
          -134 143 rlineto
          -49 -46 -63 -31 -50 hhcurveto
          -84 -61 68 94 93 61 67 84 54 63 -37 -57 42 hvcurveto
          134 159 rlineto
          78 -72 -117 50 -107 hhcurveto
          endchar
        </CharString>
        <CharString name="Ccedilla">
          -5 -247 104 158 -21 521 193 hstem
          15 238 113 123 vstem
          398 193 rmoveto
          -84 -61 68 94 93 61 67 84 54 63 -37 -57 42 hvcurveto
          134 159 rlineto
          78 -72 -117 50 -107 hhcurveto
          -220 -160 -150 -206 -189 127 -143 183 -26 hvcurveto
          -39 -75 rlineto
          3 13 15 2 9 hhcurveto
          26 17 -13 -21 -20 -15 -13 -23 -15 -16 8 12 -10 hvcurveto
          -40 -90 rlineto
          -21 31 40 -13 30 hhcurveto
          86 55 44 69 36 -26 33 -40 14 hvcurveto
          25 47 90 16 90 49 63 69 rlinecurve
          -134 143 rlineto
          -49 -46 -63 -31 -50 hhcurveto
          endchar
        </CharString>
        <CharString name="D">
          66 0 180 341 180 hstem
          50 232 225 237 vstem
          50 701 rmoveto
          -701 304 vlineto
          237 153 138 213 213 -150 137 -231 hvcurveto
          -81 -180 rmoveto
          76 hlineto
          90 59 -68 -104 -103 -54 -66 -84 hvcurveto
          -87 hlineto
          endchar
        </CharString>
        <CharString name="Dcaron">
          66 0 180 341 180 44 178 hstem
          50 232 225 237 vstem
          121 923 rmoveto
          133 -178 rlineto
          184 hlineto
          133 178 rlineto
          -165 hlineto
          -60 -90 -60 90 rlineto
          -236 -222 rmoveto
          -701 304 vlineto
          237 153 138 213 213 -150 137 -231 hvcurveto
          -81 -180 rmoveto
          76 hlineto
          90 59 -68 -104 -103 -54 -66 -84 hvcurveto
          -87 hlineto
          endchar
        </CharString>
        <CharString name="Dcroat">
          66 0 180 341 180 77 148 hstemhm
          50 232 -80 300 5 237 hintmask 00000000
          hintmask 11101000
          502 778 rmoveto
          148 -300 -148 vlineto
          hintmask 11110100
          -152 -77 rmoveto
          -701 304 vlineto
          237 153 138 213 213 -150 137 -231 hvcurveto
          -81 -180 rmoveto
          76 hlineto
          90 59 -68 -104 -103 -54 -66 -84 hvcurveto
          -87 hlineto
          endchar
        </CharString>
        <CharString name="Delta">
          106 0 166 535 -20 hstem
          -10 819 vstem
          809 hmoveto
          -285 701 rlineto
          -238 hlineto
          -296 -701 rlineto
          514 166 rmoveto
          -216 hlineto
          110 304 rlineto
          endchar
        </CharString>
        <CharString name="E">
          -3 0 176 87 176 86 176 hstem
          50 232 vstem
          643 525 rmoveto
          176 -593 -701 602 176 -370 87 328 176 -328 86 vlineto
          endchar
        </CharString>
        <CharString name="Eacute">
          -3 0 176 87 176 86 176 hstem
          50 232 vstem
          540 874 rmoveto
          -190 60 -107 -189 rlineto
          160 hlineto
          240 -220 rmoveto
          176 -593 -701 602 176 -370 87 328 176 -328 86 vlineto
          endchar
        </CharString>
        <CharString name="Ecaron">
          -3 0 176 87 176 86 176 44 178 hstem
          50 232 vstem
          117 923 rmoveto
          133 -178 rlineto
          184 hlineto
          133 178 rlineto
          -165 hlineto
          -60 -90 -60 90 rlineto
          361 -398 rmoveto
          176 -593 -701 602 176 -370 87 328 176 -328 86 vlineto
          endchar
        </CharString>
        <CharString name="Ecircumflex">
          -3 0 176 87 176 86 176 60 162 hstem
          50 232 vstem
          553 761 rmoveto
          -121 162 rlineto
          -168 hlineto
          -121 -162 rlineto
          150 hlineto
          55 82 55 -82 rlineto
          240 -236 rmoveto
          176 -593 -701 602 176 -370 87 328 176 -328 86 vlineto
          endchar
        </CharString>
        <CharString name="Edieresis">
          -3 0 176 87 176 86 176 60 183 hstemhm
          50 232 -129 182 26 182 hintmask 00000000
          hintmask 11110100
          244 944 rmoveto
          -54 -37 -38 -54 -53 37 -38 54 54 37 38 53 54 -37 38 -54 hvcurveto
          hintmask 11111010
          208 hmoveto
          -54 -37 -38 -54 -53 37 -38 54 54 37 38 53 54 -37 38 -54 hvcurveto
          191 -419 rmoveto
          176 -593 -701 602 176 -370 87 328 176 -328 86 vlineto
          endchar
        </CharString>
        <CharString name="Edotaccent">
          -3 0 176 87 176 86 176 42 228 hstemhm
          50 232 -48 228 hintmask 00000000
          hintmask 11110100
          348 971 rmoveto
          -67 -47 -47 -67 -67 47 -47 67 67 47 47 67 67 -47 47 -67 hvcurveto
          295 -446 rmoveto
          176 vlineto
          hintmask 11101000
          -593 -701 602 176 -370 87 328 176 -328 86 hlineto
          endchar
        </CharString>
        <CharString name="Egrave">
          -3 0 176 87 176 86 176 hstem
          50 232 vstem
          460 745 rmoveto
          -107 189 -190 -60 137 -129 rlineto
          343 -220 rmoveto
          176 -593 -701 602 176 -370 87 328 176 -328 86 vlineto
          endchar
        </CharString>
        <CharString name="Emacron">
          -3 0 176 87 176 86 176 77 148 hstemhm
          50 232 -84 300 hintmask 00000000
          hintmask 11110100
          498 778 rmoveto
          148 -300 -148 vlineto
          445 -253 rmoveto
          176 vlineto
          hintmask 11111000
          -593 -701 602 176 -370 87 328 176 -328 86 hlineto
          endchar
        </CharString>
        <CharString name="Eogonek">
          -3 -183 -21 204 176 87 176 86 176 hstem
          50 232 146 224 vstem
          643 525 rmoveto
          176 -593 -701 421 vlineto
          -24 -36 -19 -39 -41 vvcurveto
          -69 54 -19 42 49 43 25 51 28 vhcurveto
          -55 64 rlineto
          -19 -11 -13 -11 -13 hhcurveto
          -8 -6 5 10 16 16 30 22 33 hvcurveto
          76 176 -370 87 328 176 -328 86 hlineto
          endchar
        </CharString>
        <CharString name="Eth">
          109 0 180 111 119 111 180 hstem
          93 232 225 237 vstem
          93 701 rmoveto
          -291 -93 -119 93 -291 304 vlineto
          237 153 138 213 213 -150 137 -231 hvcurveto
          -81 -521 rmoveto
          111 123 119 -123 111 76 vlineto
          90 59 -68 -104 -103 -54 -66 -84 hvcurveto
          endchar
        </CharString>
        <CharString name="Euro">
          81 -10 203 56 82 46 81 57 193 hstem
          101 239 vstem
          484 193 rmoveto
          -47 -39 21 35 -26 hvcurveto
          200 82 -232 hlineto
          -1 8 0 8 0 8 0 8 0 7 7 flex1
          232 81 -202 hlineto
          36 26 40 21 48 hhcurveto
          54 63 -37 -57 42 hvcurveto
          134 159 rlineto
          78 -72 -117 50 -107 hhcurveto
          -180 -140 -101 -149 -45 hvcurveto
          -96 -81 82 hlineto
          -1 -8 0 -9 -8 vvcurveto
          1 -21 rlineto
          -82 -82 95 hlineto
          -154 42 137 -105 178 hhcurveto
          108 119 55 85 78 hvcurveto
          -134 143 rlineto
          -49 -46 -63 -31 -50 hhcurveto
          endchar
        </CharString>
        <CharString name="F">
          -62 21 -21 228 176 121 176 hstem
          50 232 vstem
          614 525 rmoveto
          176 -564 -701 232 228 311 176 -311 121 vlineto
          endchar
        </CharString>
        <CharString name="G">
          45 -10 193 332 193 -108 -20 hstemhm
          15 238 250 199 hintmask 11011000
          503 369 rmoveto
          -163 vlineto
          -14 -34 -34 -9 -24 hhcurveto
          -91 -67 70 97 95 66 70 90 58 68 -29 -45 47 hvcurveto
          hintmask 10111000
          131 159 rlineto
          hintmask 11011000
          66 -75 -119 42 -109 hhcurveto
          -229 -166 -151 -207 -208 160 -152 220 100 129 38 52 78 hvcurveto
          289 vlineto
          endchar
        </CharString>
        <CharString name="Gbreve">
          45 -10 193 332 193 -108 -20 169 174 hstemhm
          15 238 -41 135 98 135 -77 199 hintmask 00000000
          hintmask 11010110
          396 749 rmoveto
          107 72 68 106 5 hvcurveto
          -135 hlineto
          -30 -3 -19 -20 -27 hhcurveto
          -27 -19 20 30 -3 hvcurveto
          -135 hlineto
          -106 5 72 -68 107 hhcurveto
          hintmask 11011001
          107 -380 rmoveto
          -163 vlineto
          -14 -34 -34 -9 -24 hhcurveto
          -91 -67 70 97 95 66 70 90 58 68 -29 -45 47 hvcurveto
          hintmask 10111001
          131 159 rlineto
          hintmask 11011001
          66 -75 -119 42 -109 hhcurveto
          -229 -166 -151 -207 -208 160 -152 220 100 129 38 52 78 hvcurveto
          289 vlineto
          endchar
        </CharString>
        <CharString name="Gcommaaccent">
          45 -10 193 332 193 -108 -20 hstemhm
          15 238 47 205 -2 199 hintmask 11010100
          503 369 rmoveto
          -163 vlineto
          -14 -34 -34 -9 -24 hhcurveto
          -91 -67 70 97 95 66 70 90 58 68 -29 -45 47 hvcurveto
          hintmask 10110100
          131 159 rlineto
          hintmask 11010100
          66 -75 -119 42 -109 hhcurveto
          -229 -166 -151 -207 -208 160 -152 220 100 129 38 52 78 hvcurveto
          289 vlineto
          hintmask 11011000
          -299 -402 rmoveto
          -60 -43 -42 -60 -31 12 -29 27 -18 hvcurveto
          -52 -127 rlineto
          104 hlineto
          87 126 rlineto
          16 23 11 26 31 vvcurveto
          66 -48 35 -54 vhcurveto
          endchar
        </CharString>
        <CharString name="H">
          88 21 -21 253 176 272 -20 hstem
          50 232 217 232 vstem
          731 hmoveto
          701 -232 -272 -217 272 -232 -701 232 253 217 -253 vlineto
          endchar
        </CharString>
        <CharString name="I">
          -361 21 -21 701 -20 hstem
          50 232 vstem
          282 hmoveto
          701 -232 -701 vlineto
          endchar
        </CharString>
        <CharString name="IJ">
          208 -10 193 -162 -21 518 183 hstemhm
          50 232 346 233 hintmask 01111000
          282 hmoveto
          701 -232 -701 vlineto
          811 701 rmoveto
          -471 -183 238 hlineto
          hintmask 10111000
          -276 vlineto
          -40 -21 -19 -32 -35 -56 24 55 -55 vhcurveto
          -105 -150 rlineto
          -78 71 89 -44 113 hhcurveto
          161 103 90 157 hvcurveto
          endchar
        </CharString>
        <CharString name="Iacute">
          -361 21 -21 701 -20 hstem
          50 232 vstem
          358 874 rmoveto
          -190 60 -107 -189 rlineto
          160 hlineto
          61 -745 rmoveto
          701 -232 -701 vlineto
          endchar
        </CharString>
        <CharString name="Icircumflex">
          -361 21 -21 701 -20 80 162 hstem
          50 232 vstem
          371 761 rmoveto
          -121 162 rlineto
          -168 hlineto
          -121 -162 rlineto
          150 hlineto
          55 82 55 -82 rlineto
          61 -761 rmoveto
          701 -232 -701 vlineto
          endchar
        </CharString>
        <CharString name="Idieresis">
          -361 21 -21 701 -20 80 183 hstemhm
          -29 182 -103 232 -103 182 hintmask 11101000
          62 944 rmoveto
          hintmask 11110000
          -54 -37 -38 -54 -53 37 -38 54 hvcurveto
          hintmask 11101000
          54 37 38 53 54 -37 38 -54 hvcurveto
          208 hmoveto
          -54 -37 -38 -54 -53 37 -38 54 hvcurveto
          hintmask 11100100
          54 37 38 53 hvcurveto
          hintmask 11101000
          54 -37 38 -54 vhcurveto
          12 -944 rmoveto
          701 -232 -701 vlineto
          endchar
        </CharString>
        <CharString name="Idotaccent">
          -361 21 -21 701 -20 62 228 hstem
          50 232 vstem
          166 971 rmoveto
          -67 -47 -47 -67 -67 47 -47 67 67 47 47 67 67 -47 47 -67 hvcurveto
          116 -971 rmoveto
          701 -232 -701 vlineto
          endchar
        </CharString>
        <CharString name="Igrave">
          -361 21 -21 701 -20 hstem
          50 232 vstem
          278 745 rmoveto
          -107 189 -190 -60 137 -129 rlineto
          164 -745 rmoveto
          701 -232 -701 vlineto
          endchar
        </CharString>
        <CharString name="Imacron">
          -361 21 -21 701 -20 97 148 hstem
          50 232 vstem
          316 778 rmoveto
          148 -300 -148 vlineto
          266 -778 rmoveto
          701 -232 -701 vlineto
          endchar
        </CharString>
        <CharString name="Iogonek">
          -361 -183 -21 225 -21 701 -20 hstem
          50 232 vstem
          244 -64 rmoveto
          -19 -11 -13 -11 -13 hhcurveto
          -8 -6 5 10 16 16 30 22 33 hvcurveto
          51 701 -232 -701 76 hlineto
          -24 -36 -19 -39 -41 vvcurveto
          -69 54 -19 42 49 43 25 51 28 vhcurveto
          endchar
        </CharString>
        <CharString name="Itilde">
          -361 21 -21 701 -20 85 182 -180 183 hstemhm
          50 232 -57 135 hintmask 00000000
          hintmask 11011000
          89 951 rmoveto
          -79 -38 -58 -125 hvcurveto
          136 hlineto
          hintmask 11101000
          26 7 12 16 vhcurveto
          24 26 -40 63 hhcurveto
          hintmask 11100100
          79 37 58 124 hvcurveto
          -135 hlineto
          -25 -7 -12 -17 vhcurveto
          hintmask 11011000
          -23 -27 40 -62 hhcurveto
          hintmask 11101000
          193 -951 rmoveto
          701 -232 -701 vlineto
          endchar
        </CharString>
        <CharString name="J">
          -124 -10 193 335 183 hstem
          296 233 vstem
          529 701 rmoveto
          -471 -183 238 -276 hlineto
          -40 -21 -19 -32 -35 -56 24 55 -55 vhcurveto
          -105 -150 rlineto
          -78 71 89 -44 113 hhcurveto
          161 103 90 157 hvcurveto
          endchar
        </CharString>
        <CharString name="Jcircumflex">
          -124 -10 193 335 183 60 162 hstem
          296 233 vstem
          496 761 rmoveto
          -121 162 rlineto
          -168 hlineto
          -121 -162 rlineto
          150 hlineto
          55 82 55 -82 rlineto
          183 -60 rmoveto
          -471 -183 238 -276 hlineto
          -40 -21 -19 -32 -35 -56 24 55 -55 vhcurveto
          -105 -150 rlineto
          -78 71 89 -44 113 hhcurveto
          161 103 90 157 hvcurveto
          endchar
        </CharString>
        <CharString name="K">
          80 21 -21 701 -20 hstem
          50 232 vstem
          496 hmoveto
          277 hlineto
          -265 419 250 282 rlineto
          -267 hlineto
          -209 -243 rlineto
          243 -232 -701 232 165 vlineto
          68 76 rlineto
          endchar
        </CharString>
        <CharString name="Kcommaaccent">
          80 21 -21 701 -20 hstemhm
          50 232 -5 205 hintmask 11100000
          773 hmoveto
          -265 419 250 282 rlineto
          -267 hlineto
          -209 -243 rlineto
          243 -232 -701 232 165 vlineto
          68 76 146 -241 rlineto
          hintmask 11010000
          -116 -33 rmoveto
          -60 -43 -42 -60 -31 12 -29 27 -18 hvcurveto
          -52 -127 rlineto
          104 hlineto
          87 126 rlineto
          16 23 11 26 31 vvcurveto
          66 -48 35 -54 vhcurveto
          endchar
        </CharString>
        <CharString name="L">
          -109 0 193 508 -20 hstem
          50 232 vstem
          282 193 rmoveto
          508 -232 -701 524 193 vlineto
          endchar
        </CharString>
        <CharString name="Lacute">
          -109 0 193 508 -20 hstem
          50 232 vstem
          351 874 rmoveto
          -190 60 -107 -189 rlineto
          160 hlineto
          68 -552 rmoveto
          508 -232 -701 524 193 vlineto
          endchar
        </CharString>
        <CharString name="Lcaron">
          -109 0 193 508 -20 hstem
          50 232 78 205 vstem
          574 193 rmoveto
          -292 508 -232 -701 524 hlineto
          -227 362 rmoveto
          104 hlineto
          87 126 rlineto
          16 23 11 26 31 vvcurveto
          66 -48 35 -54 -60 -43 -42 -60 -31 12 -29 27 -18 vhcurveto
          endchar
        </CharString>
        <CharString name="Lcommaaccent">
          -109 0 193 508 -20 hstemhm
          50 232 -86 205 hintmask 11100000
          574 193 rmoveto
          -292 508 -232 -701 524 hlineto
          hintmask 11010000
          -275 -33 rmoveto
          -60 -43 -42 -60 -31 12 -29 27 -18 hvcurveto
          -52 -127 rlineto
          104 hlineto
          87 126 rlineto
          16 23 11 26 31 vvcurveto
          66 -48 35 -54 vhcurveto
          endchar
        </CharString>
        <CharString name="Ldot">
          -109 0 193 201 205 102 -20 hstem
          50 232 45 205 vstem
          282 193 rmoveto
          508 -232 -701 524 193 vlineto
          -145 406 rmoveto
          -60 -42 -42 -60 -61 42 -42 60 61 42 42 61 60 -42 42 -61 hvcurveto
          endchar
        </CharString>
        <CharString name="Lslash">
          -87 0 193 354 -20 174 -20 hstem
          72 232 vstem
          596 193 rmoveto
          -292 170 hlineto
          168 49 -38 135 -130 -38 rlineto
          192 -232 -259 vlineto
          -102 -30 38 -134 64 18 rlineto
          -296 524 vlineto
          endchar
        </CharString>
        <CharString name="M">
          203 21 -21 701 -20 hstem
          50 202 392 202 vstem
          846 hmoveto
          701 -245 vlineto
          -153 -366 -153 366 rlineto
          -245 -701 202 384 hlineto
          120 -316 rlineto
          152 hlineto
          120 316 rlineto
          -384 vlineto
          endchar
        </CharString>
        <CharString name="N">
          88 21 -21 701 -20 hstem
          50 211 260 210 vstem
          731 hmoveto
          701 -210 -360 vlineto
          -277 360 rlineto
          -194 -701 211 358 hlineto
          276 -358 rlineto
          endchar
        </CharString>
        <CharString name="Nacute">
          88 21 -21 701 -20 hstem
          50 211 260 210 vstem
          583 874 rmoveto
          -190 60 -107 -189 rlineto
          160 hlineto
          285 -745 rmoveto
          701 -210 -360 vlineto
          -277 360 rlineto
          -194 -701 211 358 hlineto
          276 -358 rlineto
          endchar
        </CharString>
        <CharString name="Ncaron">
          88 21 -21 701 -20 64 178 hstem
          50 211 260 210 vstem
          160 923 rmoveto
          133 -178 rlineto
          184 hlineto
          133 178 rlineto
          -165 hlineto
          -60 -90 -60 90 rlineto
          406 -923 rmoveto
          701 -210 -360 vlineto
          -277 360 rlineto
          -194 -701 211 358 hlineto
          276 -358 rlineto
          endchar
        </CharString>
        <CharString name="Ncommaaccent">
          88 21 -21 701 -20 hstemhm
          50 211 34 205 21 210 hintmask 11101000
          731 701 rmoveto
          -210 -360 hlineto
          -277 360 rlineto
          -194 -701 211 358 hlineto
          276 -358 rlineto
          194 hlineto
          hintmask 11111000
          -333 -33 rmoveto
          -60 -43 -42 -60 -31 12 -29 27 -18 hvcurveto
          -52 -127 rlineto
          104 hlineto
          87 126 rlineto
          16 23 11 26 31 vvcurveto
          66 -48 35 -54 vhcurveto
          endchar
        </CharString>
        <CharString name="Ntilde">
          88 21 -21 701 -20 85 182 -180 183 hstemhm
          50 211 -64 136 117 135 -64 210 hintmask 00000000
          hintmask 11010101
          314 951 rmoveto
          -79 -38 -58 -125 hvcurveto
          136 hlineto
          hintmask 11100110
          26 7 12 16 vhcurveto
          24 26 -40 63 hhcurveto
          79 37 58 124 hvcurveto
          -135 hlineto
          -25 -7 -12 -17 vhcurveto
          hintmask 11010101
          -23 -27 40 -62 hhcurveto
          hintmask 11101001
          417 -951 rmoveto
          701 -210 -360 vlineto
          -277 360 rlineto
          -194 -701 211 358 hlineto
          276 -358 rlineto
          endchar
        </CharString>
        <CharString name="O">
          107 -10 193 332 193 hstem
          15 238 294 238 vstem
          400 708 rmoveto
          -223 -162 -149 -208 -209 162 -152 223 223 162 153 208 207 -162 150 -223 hvcurveto
          3 -193 rmoveto
          80 64 -69 -96 -96 -64 -71 -80 -80 -70 71 96 96 69 69 81 hvcurveto
          endchar
        </CharString>
        <CharString name="OE">
          434 0 176 -176 183 80 176 75 187 -176 176 hstemhm
          15 238 234 232 hintmask 10101110
          1089 176 rmoveto
          -370 87 328 176 -328 86 361 176 -681 hlineto
          -223 -161 -150 -202 -203 163 -146 221 hvcurveto
          690 hlineto
          hintmask 01110110
          -602 184 rmoveto
          -88 -1 rlineto
          -85 -61 70 95 96 61 70 85 hvcurveto
          88 hlineto
          endchar
        </CharString>
        <CharString name="Oacute">
          107 -10 193 332 193 hstem
          15 238 294 238 vstem
          582 874 rmoveto
          -190 60 -107 -189 rlineto
          160 hlineto
          -45 -37 rmoveto
          -223 -162 -149 -208 -209 162 -152 223 223 162 153 208 207 -162 150 -223 hvcurveto
          3 -193 rmoveto
          80 64 -69 -96 -96 -64 -71 -80 -80 -70 71 96 96 69 69 81 hvcurveto
          endchar
        </CharString>
        <CharString name="Ocircumflex">
          107 -10 193 332 193 53 162 hstem
          15 238 294 238 vstem
          595 761 rmoveto
          -121 162 rlineto
          -168 hlineto
          -121 -162 rlineto
          150 hlineto
          55 82 55 -82 rlineto
          -45 -53 rmoveto
          -223 -162 -149 -208 -209 162 -152 223 223 162 153 208 207 -162 150 -223 hvcurveto
          3 -193 rmoveto
          80 64 -69 -96 -96 -64 -71 -80 -80 -70 71 96 96 69 69 81 hvcurveto
          endchar
        </CharString>
        <CharString name="Odieresis">
          107 -10 193 332 193 53 183 hstemhm
          15 238 -58 182 26 182 -38 238 hintmask 00000000
          hintmask 11101010
          286 944 rmoveto
          -54 -37 -38 -54 -53 37 -38 54 54 37 38 53 54 -37 38 -54 hvcurveto
          hintmask 11110100
          208 hmoveto
          -54 -37 -38 -54 -53 37 -38 54 54 37 38 53 54 -37 38 -54 hvcurveto
          hintmask 11110010
          -94 -236 rmoveto
          -223 -162 -149 -208 -209 162 -152 223 223 162 153 208 207 -162 150 -223 hvcurveto
          3 -193 rmoveto
          80 64 -69 -96 -96 -64 -71 -80 -80 -70 71 96 96 69 69 81 hvcurveto
          endchar
        </CharString>
        <CharString name="Ograve">
          107 -10 193 332 193 hstem
          15 238 294 238 vstem
          502 745 rmoveto
          -107 189 -190 -60 137 -129 rlineto
          58 -37 rmoveto
          -223 -162 -149 -208 -209 162 -152 223 223 162 153 208 207 -162 150 -223 hvcurveto
          3 -193 rmoveto
          80 64 -69 -96 -96 -64 -71 -80 -80 -70 71 96 96 69 69 81 hvcurveto
          endchar
        </CharString>
        <CharString name="Ohungarumlaut">
          107 -10 193 332 193 hstem
          15 238 294 238 vstem
          439 881 rmoveto
          -162 53 -87 -189 rlineto
          160 hlineto
          310 136 rmoveto
          -162 53 -87 -189 rlineto
          160 hlineto
          -171 -37 rmoveto
          -223 -162 -149 -208 -209 162 -152 223 223 162 153 208 207 -162 150 -223 hvcurveto
          3 -193 rmoveto
          80 64 -69 -96 -96 -64 -71 -80 -80 -70 71 96 96 69 69 81 hvcurveto
          endchar
        </CharString>
        <CharString name="Omacron">
          107 -10 193 332 193 70 148 hstemhm
          15 238 -13 300 7 238 hintmask 00000000
          hintmask 11101000
          540 778 rmoveto
          148 -300 -148 vlineto
          hintmask 11110100
          160 -70 rmoveto
          -223 -162 -149 -208 -209 162 -152 223 223 162 153 208 207 -162 150 -223 hvcurveto
          3 -193 rmoveto
          80 64 -69 -96 -96 -64 -71 -80 -80 -70 71 96 96 69 69 81 hvcurveto
          endchar
        </CharString>
        <CharString name="Omega">
          140 0 180 344 189 hstemhm
          5 365 -314 205 202 365 -256 205 hintmask 11010100
          416 713 rmoveto
          -208 -152 -136 -186 -71 40 -89 54 -51 hvcurveto
          hintmask 11100100
          -145 -180 365 166 hlineto
          hintmask 11010100
          -63 48 -46 87 70 vvcurveto
          89 66 64 89 90 66 -64 -89 vhcurveto
          hintmask 11011000
          -70 -46 -87 -63 -48 vhcurveto
          -166 365 180 vlineto
          hintmask 11010100
          -144 hlineto
          54 52 39 89 70 vvcurveto
          186 -152 136 -209 vhcurveto
          endchar
        </CharString>
        <CharString name="Oslash">
          107 -83 -21 94 193 -165 -21 711 -20 hstemhm
          15 238 294 238 hintmask 10111100
          609 806 rmoveto
          -127 hlineto
          -36 -100 rlineto
          1 -15 -15 1 -16 hhcurveto
          -223 -162 -149 -208 -140 73 -115 116 -60 hvcurveto
          -51 -140 rlineto
          127 hlineto
          37 101 rlineto
          hintmask 11011100
          -4 26 28 -3 29 hhcurveto
          223 162 153 208 152 -87 121 -135 54 hvcurveto
          -310 -328 rmoveto
          85 54 64 69 13 vhcurveto
          -94 -260 rlineto
          -18 27 -11 33 38 vvcurveto
          150 -167 rmoveto
          -7 -6 0 1 -6 hvcurveto
          107 298 rlineto
          34 -30 22 -46 -56 vvcurveto
          -96 -64 -71 -80 vhcurveto
          endchar
        </CharString>
        <CharString name="Otilde">
          107 -10 193 332 193 58 182 -180 183 hstemhm
          15 238 -57 136 117 135 -37 238 hintmask 00000000
          hintmask 11010101
          313 951 rmoveto
          -79 -38 -58 -125 hvcurveto
          136 hlineto
          hintmask 11100110
          26 7 12 16 vhcurveto
          24 26 -40 63 hhcurveto
          79 37 58 124 hvcurveto
          -135 hlineto
          -25 -7 -12 -17 vhcurveto
          hintmask 11010101
          -23 -27 40 -62 hhcurveto
          hintmask 11101001
          87 -243 rmoveto
          -223 -162 -149 -208 -209 162 -152 223 223 162 153 208 207 -162 150 -223 hvcurveto
          3 -193 rmoveto
          80 64 -69 -96 -96 -64 -71 -80 -80 -70 71 96 96 69 69 81 hvcurveto
          endchar
        </CharString>
        <CharString name="P">
          -7 21 -21 182 176 167 176 hstem
          50 232 164 220 vstem
          50 701 rmoveto
          -701 232 182 97 vlineto
          182 105 98 170 160 -105 91 -182 hvcurveto
          -97 -176 rmoveto
          85 hlineto
          50 29 -30 -52 -54 -29 -31 -50 hvcurveto
          -85 hlineto
          endchar
        </CharString>
        <CharString name="Q">
          104 -177 167 -68 -21 614 193 hstemhm
          15 238 294 238 hintmask 00000000
          hintmask 10111000
          738 38 rmoveto
          -29 -40 -44 -19 -28 hhcurveto
          -23 -20 13 20 -15 hvcurveto
          132 55 85 122 151 vvcurveto
          207 -162 150 -223 -223 -162 -149 -208 -200 149 -148 208 -12 vhcurveto
          -102 37 86 -66 106 hhcurveto
          hintmask 01111000
          73 87 31 47 54 hvcurveto
          -562 449 rmoveto
          96 69 69 81 80 64 -69 -96 -96 -64 -71 -80 -80 -70 71 96 vhcurveto
          endchar
        </CharString>
        <CharString name="R">
          32 21 -21 182 176 167 176 hstem
          50 232 186 220 vstem
          453 hmoveto
          262 hlineto
          -138 228 rlineto
          72 44 39 76 102 vvcurveto
          160 -109 91 -190 vhcurveto
          -339 -701 232 182 87 hlineto
          -87 176 rmoveto
          167 107 vlineto
          50 29 -30 -52 -54 -29 -31 -50 hvcurveto
          endchar
        </CharString>
        <CharString name="Racute">
          32 21 -21 182 176 167 176 hstem
          50 232 186 220 vstem
          427 745 rmoveto
          137 129 -190 60 -107 -189 rlineto
          186 -745 rmoveto
          262 hlineto
          -138 228 rlineto
          72 44 39 76 102 vvcurveto
          160 -109 91 -190 vhcurveto
          -339 -701 232 182 87 hlineto
          -87 176 rmoveto
          167 107 vlineto
          50 29 -30 -52 -54 -29 -31 -50 hvcurveto
          endchar
        </CharString>
        <CharString name="Rcaron">
          32 21 -21 182 176 167 176 44 178 hstem
          50 232 186 220 vstem
          274 745 rmoveto
          184 hlineto
          133 178 rlineto
          -165 hlineto
          -60 -90 -60 90 rlineto
          -165 hlineto
          312 -923 rmoveto
          262 hlineto
          -138 228 rlineto
          72 44 39 76 102 vvcurveto
          160 -109 91 -190 vhcurveto
          -339 -701 232 182 87 hlineto
          -87 176 rmoveto
          167 107 vlineto
          50 29 -30 -52 -54 -29 -31 -50 hvcurveto
          endchar
        </CharString>
        <CharString name="Rcommaaccent">
          32 21 -21 182 176 167 176 hstemhm
          50 232 -19 205 0 220 hintmask 11110100
          282 hmoveto
          182 87 vlineto
          84 -182 rlineto
          262 hlineto
          -138 228 rlineto
          72 44 39 76 102 vvcurveto
          160 -109 91 -190 vhcurveto
          -339 -701 hlineto
          232 358 rmoveto
          167 107 vlineto
          50 29 -30 -52 -54 -29 -31 -50 hvcurveto
          hintmask 11101000
          -23 -391 rmoveto
          -60 -43 -42 -60 -31 12 -29 27 -18 hvcurveto
          -52 -127 rlineto
          104 hlineto
          87 126 rlineto
          16 23 11 26 31 vvcurveto
          66 -48 35 -54 vhcurveto
          endchar
        </CharString>
        <CharString name="S">
          -29 -7 177 364 177 hstem
          54 237 126 237 vstem
          354 711 rmoveto
          -182 -118 -88 -140 hvcurveto
          -246 363 60 -91 vvcurveto
          -25 -22 -11 -34 -71 -124 49 60 -72 vhcurveto
          -86 -174 rlineto
          -71 93 136 -41 122 hhcurveto
          158 137 69 156 hvcurveto
          254 -363 -55 88 vvcurveto
          21 17 8 26 61 109 -43 -39 71 vhcurveto
          84 176 rlineto
          50 -79 -115 33 -111 hhcurveto
          endchar
        </CharString>
        <CharString name="Sacute">
          -29 -7 177 364 177 hstem
          54 237 126 237 vstem
          551 874 rmoveto
          -190 60 -107 -189 rlineto
          160 hlineto
          -60 -34 rmoveto
          -182 -118 -88 -140 hvcurveto
          -246 363 60 -91 vvcurveto
          -25 -22 -11 -34 -71 -124 49 60 -72 vhcurveto
          -86 -174 rlineto
          -71 93 136 -41 122 hhcurveto
          158 137 69 156 hvcurveto
          254 -363 -55 88 vvcurveto
          21 17 8 26 61 109 -43 -39 71 vhcurveto
          84 176 rlineto
          50 -79 -115 33 -111 hhcurveto
          endchar
        </CharString>
        <CharString name="Scaron">
          -29 -7 177 364 177 34 178 hstem
          54 237 126 237 vstem
          128 923 rmoveto
          133 -178 rlineto
          184 hlineto
          133 178 rlineto
          -165 hlineto
          -60 -90 -60 90 rlineto
          61 -212 rmoveto
          -182 -118 -88 -140 hvcurveto
          -246 363 60 -91 vvcurveto
          -25 -22 -11 -34 -71 -124 49 60 -72 vhcurveto
          -86 -174 rlineto
          -71 93 136 -41 122 hhcurveto
          158 137 69 156 hvcurveto
          254 -363 -55 88 vvcurveto
          21 17 8 26 61 109 -43 -39 71 vhcurveto
          84 176 rlineto
          50 -79 -115 33 -111 hhcurveto
          endchar
        </CharString>
        <CharString name="Scedilla">
          -29 -247 104 160 -21 538 177 hstemhm
          54 237 52 123 -49 237 hintmask 11110100
          291 505 rmoveto
          21 17 8 26 61 109 -43 -39 71 vhcurveto
          84 176 rlineto
          50 -79 -115 33 -111 hhcurveto
          -182 -118 -88 -140 hvcurveto
          -246 363 60 -91 vvcurveto
          -25 -22 -11 -34 -71 -124 49 60 -72 vhcurveto
          -86 -174 rlineto
          hintmask 11111000
          79 -60 110 -39 106 -10 -40 -77 rcurveline
          3 13 15 2 9 hhcurveto
          26 17 -13 -21 -20 -15 -13 -23 -15 -16 8 12 -10 hvcurveto
          -40 -90 rlineto
          -21 31 40 -13 30 hhcurveto
          86 55 44 69 36 -26 33 -40 14 hvcurveto
          26 48 rlineto
          hintmask 11110100
          128 18 100 70 133 254 -363 -55 88 vvcurveto
          endchar
        </CharString>
        <CharString name="Scommaaccent">
          -29 -7 177 364 177 hstemhm
          54 237 -42 205 -37 237 hintmask 11101000
          291 505 rmoveto
          21 17 8 26 61 109 -43 -39 71 vhcurveto
          84 176 rlineto
          50 -79 -115 33 -111 hhcurveto
          -182 -118 -88 -140 hvcurveto
          -246 363 60 -91 vvcurveto
          -25 -22 -11 -34 -71 -124 49 60 -72 vhcurveto
          -86 -174 rlineto
          -71 93 136 -41 122 hhcurveto
          158 137 69 156 hvcurveto
          254 -363 -55 88 vvcurveto
          hintmask 11010000
          61 -538 rmoveto
          -60 -43 -42 -60 -31 12 -29 27 -18 hvcurveto
          -52 -127 rlineto
          104 hlineto
          87 126 rlineto
          16 23 11 26 31 vvcurveto
          66 -48 35 -54 vhcurveto
          endchar
        </CharString>
        <CharString name="T">
          -52 21 -21 518 183 hstem
          204 232 vstem
          636 518 rmoveto
          183 -631 -183 199 -518 232 518 vlineto
          endchar
        </CharString>
        <CharString name="Tcaron">
          -52 21 -21 518 183 44 178 hstem
          204 232 vstem
          106 923 rmoveto
          133 -178 rlineto
          184 hlineto
          133 178 rlineto
          -165 hlineto
          -60 -90 -60 90 rlineto
          365 -405 rmoveto
          183 -631 -183 199 -518 232 518 vlineto
          endchar
        </CharString>
        <CharString name="Tcedilla">
          -52 -247 104 164 -21 518 183 hstemhm
          204 232 -129 123 hintmask 11110000
          636 701 rmoveto
          -631 -183 199 -518 65 hlineto
          -42 -81 rlineto
          3 13 15 2 9 hhcurveto
          26 17 -13 -21 -20 -15 -13 -23 -15 -16 8 12 -10 hvcurveto
          -40 -90 rlineto
          -21 31 40 -13 30 hhcurveto
          hintmask 11101000
          86 55 44 69 36 -26 33 -40 14 hvcurveto
          hintmask 11110000
          27 51 rlineto
          45 518 200 hlineto
          endchar
        </CharString>
        <CharString name="Tcommaaccent">
          -52 21 -21 518 183 hstemhm
          204 232 -223 205 hintmask 11100000
          636 701 rmoveto
          -631 -183 199 -518 232 518 200 hlineto
          -320 -551 rmoveto
          hintmask 11010000
          -60 -43 -42 -60 -31 12 -29 27 -18 hvcurveto
          -52 -127 rlineto
          104 hlineto
          hintmask 11100000
          87 126 rlineto
          16 23 11 26 31 vvcurveto
          66 -48 35 -54 vhcurveto
          endchar
        </CharString>
        <CharString name="Thorn">
          5 21 -21 102 176 161 176 86 -20 hstem
          50 232 158 238 vstem
          282 615 rmoveto
          86 -232 -701 232 102 100 vlineto
          180 116 104 161 151 -116 97 -180 hvcurveto
          -100 -337 rmoveto
          161 90 vlineto
          41 27 -31 -48 -50 -27 -32 -41 hvcurveto
          endchar
        </CharString>
        <CharString name="U">
          60 -10 193 518 -20 hstem
          40 232 209 232 vstem
          713 701 rmoveto
          -232 -404 hlineto
          -70 -44 -44 -57 -58 -50 45 69 vhcurveto
          404 -232 -404 vlineto
          -186 135 -121 204 203 131 121 186 vhcurveto
          endchar
        </CharString>
        <CharString name="Uacute">
          60 -10 193 518 -20 hstem
          40 232 209 232 vstem
          569 874 rmoveto
          -190 60 -107 -189 rlineto
          160 hlineto
          281 -44 rmoveto
          -232 -404 hlineto
          -70 -44 -44 -57 -58 -50 45 69 vhcurveto
          404 -232 -404 vlineto
          -186 135 -121 204 203 131 121 186 vhcurveto
          endchar
        </CharString>
        <CharString name="Ucircumflex">
          60 -10 193 518 -20 80 162 hstem
          40 232 209 232 vstem
          582 761 rmoveto
          -121 162 rlineto
          -168 hlineto
          -121 -162 rlineto
          150 hlineto
          55 82 55 -82 rlineto
          281 -60 rmoveto
          -232 -404 hlineto
          -70 -44 -44 -57 -58 -50 45 69 vhcurveto
          404 -232 -404 vlineto
          -186 135 -121 204 203 131 121 186 vhcurveto
          endchar
        </CharString>
        <CharString name="Udieresis">
          60 -10 193 518 -20 80 183 hstemhm
          40 232 -90 182 26 182 -91 232 hintmask 11110010
          273 944 rmoveto
          -54 -37 -38 -54 -53 37 -38 54 hvcurveto
          hintmask 11101010
          54 37 38 53 hvcurveto
          hintmask 11110010
          54 -37 38 -54 vhcurveto
          208 hmoveto
          hintmask 11110100
          -54 -37 -38 -54 -53 37 -38 54 hvcurveto
          hintmask 11110010
          54 37 38 53 54 -37 38 -54 hvcurveto
          232 -243 rmoveto
          -232 -404 hlineto
          -70 -44 -44 -57 -58 -50 45 69 vhcurveto
          404 -232 -404 vlineto
          -186 135 -121 204 203 131 121 186 vhcurveto
          endchar
        </CharString>
        <CharString name="Ugrave">
          60 -10 193 518 -20 hstem
          40 232 209 232 vstem
          489 745 rmoveto
          -107 189 -190 -60 137 -129 rlineto
          384 -44 rmoveto
          -232 -404 hlineto
          -70 -44 -44 -57 -58 -50 45 69 vhcurveto
          404 -232 -404 vlineto
          -186 135 -121 204 203 131 121 186 vhcurveto
          endchar
        </CharString>
        <CharString name="Uhungarumlaut">
          60 -10 193 518 -20 hstem
          40 232 209 232 vstem
          426 881 rmoveto
          -162 53 -87 -189 rlineto
          160 hlineto
          310 136 rmoveto
          -162 53 -87 -189 rlineto
          160 hlineto
          155 -44 rmoveto
          -232 -404 hlineto
          -70 -44 -44 -57 -58 -50 45 69 vhcurveto
          404 -232 -404 vlineto
          -186 135 -121 204 203 131 121 186 vhcurveto
          endchar
        </CharString>
        <CharString name="Umacron">
          60 -10 193 518 -20 97 148 hstem
          40 232 209 232 vstem
          527 778 rmoveto
          148 -300 -148 vlineto
          486 -77 rmoveto
          -232 -404 hlineto
          -70 -44 -44 -57 -58 -50 45 69 vhcurveto
          404 -232 -404 vlineto
          -186 135 -121 204 203 131 121 186 vhcurveto
          endchar
        </CharString>
        <CharString name="Uogonek">
          60 -183 -21 194 193 518 -20 hstemhm
          40 232 94 110 5 232 hintmask 11110100
          713 701 rmoveto
          -232 -404 hlineto
          -70 -44 -44 -57 -58 -50 45 69 vhcurveto
          404 -232 -404 vlineto
          -186 135 -121 204 vhcurveto
          hintmask 11111000
          24 1 rlineto
          -21 -34 -16 -36 -37 vvcurveto
          -69 54 -19 42 49 43 25 51 28 vhcurveto
          -55 64 rlineto
          -19 -11 -13 -11 -13 hhcurveto
          -8 -6 5 10 19 21 35 27 39 hvcurveto
          hintmask 11110100
          118 45 71 101 137 vvcurveto
          endchar
        </CharString>
        <CharString name="Uring">
          60 -10 193 518 -20 52 85 78 85 hstemhm
          40 232 -19 85 78 85 -20 232 hintmask 00000000
          hintmask 11110110
          377 981 rmoveto
          -69 -55 -55 -69 -69 55 -55 69 69 55 55 69 69 -55 55 -69 hvcurveto
          -85 vmoveto
          22 17 -17 -22 -22 -17 -17 -22 -22 -17 17 22 22 17 17 22 hvcurveto
          hintmask 11111001
          336 -195 rmoveto
          -232 -404 hlineto
          -70 -44 -44 -57 -58 -50 45 69 vhcurveto
          404 -232 -404 vlineto
          -186 135 -121 204 203 131 121 186 vhcurveto
          endchar
        </CharString>
        <CharString name="V">
          71 21 -21 701 -20 hstem
          -5 774 vstem
          501 hmoveto
          268 701 rlineto
          -237 hlineto
          -144 -460 -145 460 rlineto
          -248 hlineto
          266 -701 rlineto
          endchar
        </CharString>
        <CharString name="W">
          428 0 241 -220 -21 701 -20 hstemhm
          -5 1131 hintmask 01110000
          897 hmoveto
          229 701 rlineto
          -237 hlineto
          hintmask 10110000
          -104 -460 -106 460 -226 -1 -104 -459 -106 460 rlineto
          -248 hlineto
          227 -701 rlineto
          239 hlineto
          100 419 97 -419 rlineto
          endchar
        </CharString>
        <CharString name="Wacute">
          428 0 241 -220 -21 701 -20 hstemhm
          -5 1131 hintmask 01110000
          698 874 rmoveto
          -190 60 -107 -189 rlineto
          160 hlineto
          336 -745 rmoveto
          229 701 rlineto
          -237 hlineto
          hintmask 10110000
          -104 -460 -106 460 -226 -1 -104 -459 -106 460 rlineto
          -248 hlineto
          227 -701 rlineto
          239 hlineto
          100 419 97 -419 rlineto
          endchar
        </CharString>
        <CharString name="Wcircumflex">
          428 0 241 -220 -21 701 -20 80 162 hstemhm
          -5 1131 hintmask 01111000
          711 761 rmoveto
          -121 162 rlineto
          -168 hlineto
          -121 -162 rlineto
          150 hlineto
          55 82 55 -82 rlineto
          336 -761 rmoveto
          229 701 rlineto
          -237 hlineto
          hintmask 10111000
          -104 -460 -106 460 -226 -1 -104 -459 -106 460 rlineto
          -248 hlineto
          227 -701 rlineto
          239 hlineto
          100 419 97 -419 rlineto
          endchar
        </CharString>
        <CharString name="Wdieresis">
          428 0 241 -220 -21 701 -20 80 183 hstemhm
          311 182 26 182 hintmask 01111000
          402 944 rmoveto
          -54 -37 -38 -54 -53 37 -38 54 54 37 38 53 54 -37 38 -54 hvcurveto
          hintmask 01111100
          208 hmoveto
          -54 -37 -38 -54 -53 37 -38 54 54 37 38 53 54 -37 38 -54 hvcurveto
          287 -944 rmoveto
          229 701 rlineto
          -237 hlineto
          hintmask 10111000
          -104 -460 -106 460 -226 -1 -104 -459 -106 460 rlineto
          -248 hlineto
          227 -701 rlineto
          239 hlineto
          100 419 97 -419 rlineto
          endchar
        </CharString>
        <CharString name="Wgrave">
          428 0 241 -220 -21 701 -20 hstemhm
          -5 1131 hintmask 01110000
          618 745 rmoveto
          -107 189 -190 -60 137 -129 rlineto
          439 -745 rmoveto
          229 701 rlineto
          -237 hlineto
          hintmask 10110000
          -104 -460 -106 460 -226 -1 -104 -459 -106 460 rlineto
          -248 hlineto
          227 -701 rlineto
          239 hlineto
          100 419 97 -419 rlineto
          endchar
        </CharString>
        <CharString name="X">
          80 21 -21 701 -20 hstem
          -5 783 vstem
          530 367 rmoveto
          227 334 rlineto
          -273 hlineto
          -102 -165 -102 165 rlineto
          -270 hlineto
          231 -345 -246 -356 rlineto
          271 hlineto
          116 181 118 -181 rlineto
          278 hlineto
          endchar
        </CharString>
        <CharString name="Y">
          26 21 -21 701 -20 hstem
          246 232 vstem
          478 218 rmoveto
          251 483 rlineto
          -231 hlineto
          -136 -270 -141 270 rlineto
          -231 hlineto
          256 -488 rlineto
          -213 232 vlineto
          endchar
        </CharString>
        <CharString name="Yacute">
          26 21 -21 701 -20 hstem
          246 232 vstem
          415 745 rmoveto
          137 129 -190 60 -107 -189 rlineto
          223 -527 rmoveto
          251 483 rlineto
          -231 hlineto
          -136 -270 -141 270 rlineto
          -231 hlineto
          256 -488 rlineto
          -213 232 vlineto
          endchar
        </CharString>
        <CharString name="Ycircumflex">
          26 21 -21 701 -20 80 162 hstem
          246 232 vstem
          305 761 rmoveto
          55 82 55 -82 rlineto
          150 hlineto
          -121 162 rlineto
          -168 hlineto
          -121 -162 rlineto
          323 -543 rmoveto
          251 483 rlineto
          -231 hlineto
          -136 -270 -141 270 rlineto
          -231 hlineto
          256 -488 rlineto
          -213 232 vlineto
          endchar
        </CharString>
        <CharString name="Ydieresis">
          26 21 -21 701 -20 80 183 hstemhm
          165 182 -101 232 -105 182 hintmask 00000000
          hintmask 11110000
          256 761 rmoveto
          54 37 38 53 54 -37 38 -54 -54 -37 -38 -54 -53 37 -38 54 hvcurveto
          hintmask 11100100
          208 hmoveto
          54 37 38 53 54 -37 38 -54 -54 -37 -38 -54 -53 37 -38 54 hvcurveto
          hintmask 11101000
          14 -543 rmoveto
          251 483 rlineto
          -231 hlineto
          -136 -270 -141 270 rlineto
          -231 hlineto
          256 -488 rlineto
          -213 232 vlineto
          endchar
        </CharString>
        <CharString name="Ygrave">
          26 21 -21 701 -20 hstem
          246 232 vstem
          312 745 rmoveto
          160 hlineto
          -107 189 -190 -60 rlineto
          303 -656 rmoveto
          251 483 rlineto
          -231 hlineto
          -136 -270 -141 270 rlineto
          -231 hlineto
          256 -488 rlineto
          -213 232 vlineto
          endchar
        </CharString>
        <CharString name="Z">
          -10 0 178 345 178 hstem
          20 643 vstem
          656 556 rmoveto
          145 -624 -178 315 vlineto
          -327 -378 rlineto
          -145 643 178 -334 vlineto
          endchar
        </CharString>
        <CharString name="Zacute">
          -10 0 178 345 178 hstem
          20 643 vstem
          554 874 rmoveto
          -190 60 -107 -189 rlineto
          160 hlineto
          239 -189 rmoveto
          145 -624 -178 315 vlineto
          -327 -378 rlineto
          -145 643 178 -334 vlineto
          endchar
        </CharString>
        <CharString name="Zcaron">
          -10 0 178 345 178 44 178 hstem
          20 643 vstem
          131 923 rmoveto
          133 -178 rlineto
          184 hlineto
          133 178 rlineto
          -165 hlineto
          -60 -90 -60 90 rlineto
          360 -367 rmoveto
          145 -624 -178 315 vlineto
          -327 -378 rlineto
          -145 643 178 -334 vlineto
          endchar
        </CharString>
        <CharString name="Zdotaccent">
          -10 0 178 345 178 42 228 hstem
          248 228 vstem
          362 971 rmoveto
          -67 -47 -47 -67 -67 47 -47 67 67 47 47 67 67 -47 47 -67 hvcurveto
          294 -415 rmoveto
          145 -624 -178 315 vlineto
          -327 -378 rlineto
          -145 643 178 -334 vlineto
          endchar
        </CharString>
        <CharString name="a">
          -80 0 133 -122 -21 235 104 60 168 hstemhm
          15 211 126 221 hintmask 01111100
          321 557 rmoveto
          -81 -96 -19 -34 -93 hvcurveto
          50 -150 rlineto
          23 62 63 12 41 hhcurveto
          55 29 -22 -38 1 hvcurveto
          -125 hlineto
          -139 -2 -73 -57 -108 vvcurveto
          -104 67 -68 116 70 52 25 44 32 vhcurveto
          hintmask 10111100
          -59 221 354 vlineto
          hintmask 01111100
          129 -94 74 -158 vhcurveto
          hintmask 10111100
          -45 -424 rmoveto
          -32 -18 18 30 29 17 15 31 hvcurveto
          78 -50 hlineto
          -27 -18 -29 -15 -29 hhcurveto
          endchar
        </CharString>
        <CharString name="aacute">
          -80 0 133 -122 -21 235 104 60 168 hstemhm
          15 211 126 221 hintmask 01111100
          363 591 rmoveto
          137 129 -190 60 -107 -189 rlineto
          118 -34 rmoveto
          -81 -96 -19 -34 -93 hvcurveto
          50 -150 rlineto
          23 62 63 12 41 hhcurveto
          55 29 -22 -38 1 hvcurveto
          -125 hlineto
          -139 -2 -73 -57 -108 vvcurveto
          -104 67 -68 116 70 52 25 44 32 vhcurveto
          hintmask 10111100
          -59 221 354 vlineto
          hintmask 01111100
          129 -94 74 -158 vhcurveto
          hintmask 10111100
          -45 -424 rmoveto
          -32 -18 18 30 29 17 15 31 hvcurveto
          78 -50 hlineto
          -27 -18 -29 -15 -29 hhcurveto
          endchar
        </CharString>
        <CharString name="abreve">
          -80 0 133 -122 -21 235 104 60 168 38 174 hstemhm
          15 211 -102 135 93 221 -216 135 hintmask 0111101100000000
          308 595 rmoveto
          hintmask 0111101010000000
          107 72 68 106 5 hvcurveto
          -135 hlineto
          -30 -3 -19 -20 -27 hhcurveto
          -27 -19 20 30 -3 hvcurveto
          -135 hlineto
          hintmask 0111101100000000
          -106 5 72 -68 107 hhcurveto
          13 -38 rmoveto
          -81 -96 -19 -34 -93 hvcurveto
          50 -150 rlineto
          23 62 63 12 41 hhcurveto
          55 29 -22 -38 1 hvcurveto
          -125 hlineto
          hintmask 0111110100000000
          -139 -2 -73 -57 -108 vvcurveto
          -104 67 -68 116 70 52 25 44 32 vhcurveto
          hintmask 1011101100000000
          -59 221 354 vlineto
          hintmask 0111101100000000
          129 -94 74 -158 vhcurveto
          hintmask 1011110100000000
          -45 -424 rmoveto
          -32 -18 18 30 29 17 15 31 hvcurveto
          78 -50 hlineto
          -27 -18 -29 -15 -29 hhcurveto
          endchar
        </CharString>
        <CharString name="acircumflex">
          -80 0 133 -122 -21 235 104 60 168 50 162 hstemhm
          15 211 126 221 hintmask 01111110
          253 607 rmoveto
          55 82 55 -82 rlineto
          150 hlineto
          -121 162 rlineto
          -168 hlineto
          -121 -162 rlineto
          218 -50 rmoveto
          -81 -96 -19 -34 -93 hvcurveto
          50 -150 rlineto
          23 62 63 12 41 hhcurveto
          55 29 -22 -38 1 hvcurveto
          -125 hlineto
          -139 -2 -73 -57 -108 vvcurveto
          -104 67 -68 116 70 52 25 44 32 vhcurveto
          hintmask 10111110
          -59 221 354 vlineto
          hintmask 01111110
          129 -94 74 -158 vhcurveto
          hintmask 10111110
          -45 -424 rmoveto
          -32 -18 18 30 29 17 15 31 hvcurveto
          78 -50 hlineto
          -27 -18 -29 -15 -29 hhcurveto
          endchar
        </CharString>
        <CharString name="acute">
          591 189 hstem
          27 297 vstem
          324 720 rmoveto
          -190 60 -107 -189 rlineto
          160 hlineto
          endchar
        </CharString>
        <CharString name="adieresis">
          -80 0 133 -122 -21 235 104 60 168 50 183 hstemhm
          15 211 -113 182 26 182 -151 221 hintmask 0111101010000000
          204 607 rmoveto
          54 37 38 53 54 -37 38 -54 -54 -37 -38 -54 -53 37 -38 54 hvcurveto
          hintmask 0111101100000000
          208 hmoveto
          54 37 38 53 54 -37 38 -54 -54 -37 -38 -54 -53 37 -38 54 hvcurveto
          hintmask 0111110010000000
          -91 -50 rmoveto
          -81 -96 -19 -34 -93 hvcurveto
          50 -150 rlineto
          23 62 63 12 41 hhcurveto
          55 29 -22 -38 1 hvcurveto
          -125 hlineto
          -139 -2 -73 -57 -108 vvcurveto
          -104 67 -68 116 70 52 25 44 32 vhcurveto
          hintmask 1011101010000000
          -59 221 354 vlineto
          hintmask 0111110010000000
          129 -94 74 -158 vhcurveto
          hintmask 1011110010000000
          -45 -424 rmoveto
          -32 -18 18 30 29 17 15 31 hvcurveto
          78 -50 hlineto
          -27 -18 -29 -15 -29 hhcurveto
          endchar
        </CharString>
        <CharString name="ae">
          265 -11 144 -141 166 65 104 62 168 -152 150 hstemhm
          15 211 491 225 hintmask 01101110
          650 555 rmoveto
          -61 -51 -15 -28 -41 hvcurveto
          30 -43 -59 15 -73 hhcurveto
          -81 -96 -19 -34 -94 hvcurveto
          hintmask 10110110
          50 -150 rlineto
          23 62 64 12 42 hhcurveto
          55 30 -22 -38 1 hvcurveto
          -127 hlineto
          -139 -2 -74 -57 -108 vvcurveto
          -104 76 -69 129 102 73 38 66 41 vhcurveto
          hintmask 01101110
          -64 44 74 -37 102 hhcurveto
          107 84 36 64 58 hvcurveto
          -117 115 rlineto
          -32 -34 -39 -17 -39 hhcurveto
          -44 -32 22 43 -15 hvcurveto
          357 hlineto
          202 12 -112 130 -192 hhcurveto
          -70 -228 rmoveto
          46 9 24 32 39 hhcurveto
          40 28 -33 -45 -3 hvcurveto
          hintmask 10101110
          -440 -194 rmoveto
          -32 -19 18 30 29 18 15 31 hvcurveto
          80 -50 hlineto
          -27 -19 -30 -15 -29 hhcurveto
          endchar
        </CharString>
        <CharString name="agrave">
          -80 0 133 -122 -21 235 104 60 168 hstemhm
          15 211 126 221 hintmask 01111100
          260 591 rmoveto
          160 hlineto
          -107 189 -190 -60 rlineto
          198 -163 rmoveto
          -81 -96 -19 -34 -93 hvcurveto
          50 -150 rlineto
          23 62 63 12 41 hhcurveto
          55 29 -22 -38 1 hvcurveto
          -125 hlineto
          -139 -2 -73 -57 -108 vvcurveto
          -104 67 -68 116 70 52 25 44 32 vhcurveto
          hintmask 10111100
          -59 221 354 vlineto
          hintmask 01111100
          129 -94 74 -158 vhcurveto
          hintmask 10111100
          -45 -424 rmoveto
          -32 -18 18 30 29 17 15 31 hvcurveto
          78 -50 hlineto
          -27 -18 -29 -15 -29 hhcurveto
          endchar
        </CharString>
        <CharString name="amacron">
          -80 0 133 -122 -21 235 104 60 168 67 148 hstemhm
          15 211 -68 300 -106 221 hintmask 00000000
          hintmask 01111010
          458 624 rmoveto
          148 -300 -148 vlineto
          hintmask 01111101
          163 -67 rmoveto
          -81 -96 -19 -34 -93 hvcurveto
          50 -150 rlineto
          23 62 63 12 41 hhcurveto
          55 29 -22 -38 1 hvcurveto
          -125 hlineto
          -139 -2 -73 -57 -108 vvcurveto
          -104 67 -68 116 70 52 25 44 32 vhcurveto
          hintmask 10111001
          -59 221 354 vlineto
          hintmask 01111101
          129 -94 74 -158 vhcurveto
          hintmask 10111101
          -45 -424 rmoveto
          -32 -18 18 30 29 17 15 31 hvcurveto
          78 -50 hlineto
          -27 -18 -29 -15 -29 hhcurveto
          endchar
        </CharString>
        <CharString name="ampersand">
          13 -10 155 442 124 hstemhm
          53 183 -106 174 88 175 hintmask 11101000
          586 -40 rmoveto
          113 109 -96 89 23 34 19 37 14 42 rlinecurve
          -141 101 -8 -36 -12 -33 -15 -29 rlinecurve
          -29 29 -25 26 -21 23 rrcurveto
          81 41 78 52 99 vvcurveto
          98 -92 69 -129 vhcurveto
          hintmask 11011000
          -133 -83 -68 -111 -49 13 -44 38 -57 hvcurveto
          hintmask 11101000
          -69 -40 -59 -52 -90 vvcurveto
          -123 107 -87 148 68 63 20 37 56 vhcurveto
          hintmask 11011000
          -191 486 rmoveto
          32 16 22 28 26 18 -18 -27 -36 -27 -26 -38 -23 vhcurveto
          -17 29 -6 24 23 vvcurveto
          hintmask 11101000
          13 -388 rmoveto
          -47 -34 28 44 23 12 18 20 17 hvcurveto
          31 -33 36 -38 44 -44 rrcurveto
          -10 -20 -21 -5 -21 hhcurveto
          endchar
        </CharString>
        <CharString name="aogonek">
          -75 -183 -21 193 144 -123 -21 32 -21 225 104 60 168 hstemhm
          15 211 131 221 -195 110 hintmask 1001111100000000
          323 557 rmoveto
          -81 -97 -19 -34 -94 hvcurveto
          50 -150 rlineto
          23 63 64 12 42 hhcurveto
          55 30 -22 -37 2 hvcurveto
          -1 -128 vlineto
          -140 -2 -74 -57 -108 vvcurveto
          hintmask 1010111100000000
          -104 68 -69 117 71 53 26 45 33 vhcurveto
          hintmask 1001111100000000
          -60 69 vlineto
          -24 -36 -19 -39 -41 vvcurveto
          -69 54 -19 42 49 43 25 51 28 vhcurveto
          hintmask 1001111010000000
          -55 64 rlineto
          -19 -11 -13 -11 -13 hhcurveto
          -8 -6 5 10 16 16 30 22 33 hvcurveto
          hintmask 1001111100000000
          47 354 hlineto
          129 -95 74 -160 vhcurveto
          34 -332 rmoveto
          hintmask 1100111100000000
          -50 vlineto
          -27 -19 -30 -15 -30 hhcurveto
          -33 -19 18 30 29 18 15 32 hvcurveto
          endchar
        </CharString>
        <CharString name="approxequal">
          -173 102 201 -198 201 36 201 -198 201 -160 160 hstemhm
          47 149 129 148 hintmask 01010110
          175 546 rmoveto
          -87 -41 -64 -137 hvcurveto
          149 hlineto
          hintmask 01001110
          28 8 13 18 vhcurveto
          hintmask 01100110
          26 29 -44 69 hhcurveto
          87 40 64 137 hvcurveto
          -148 hlineto
          -28 -8 -13 -18 vhcurveto
          hintmask 01010110
          -26 -29 44 -69 hhcurveto
          -240 vmoveto
          -87 -41 -64 -137 hvcurveto
          149 hlineto
          hintmask 10010110
          28 8 13 18 vhcurveto
          26 29 -44 69 hhcurveto
          87 40 64 137 hvcurveto
          -148 hlineto
          -28 -8 -13 -18 vhcurveto
          hintmask 01010110
          -26 -29 44 -69 hhcurveto
          endchar
        </CharString>
        <CharString name="aring">
          -80 0 133 -122 -21 235 104 60 168 22 85 78 85 hstemhm
          15 211 -42 85 78 85 -80 221 hintmask 0000000000000000
          hintmask 0111110110000000
          308 579 rmoveto
          69 55 55 69 69 -55 55 -69 -69 -55 -55 -69 -69 55 -55 69 hvcurveto
          163 vmoveto
          22 17 -17 -22 -22 -17 -17 -22 -22 -17 17 22 22 17 17 22 hvcurveto
          hintmask 0111001001000000
          13 -185 rmoveto
          -81 -96 -19 -34 -93 hvcurveto
          50 -150 rlineto
          23 62 63 12 41 hhcurveto
          55 29 -22 -38 1 hvcurveto
          -125 hlineto
          -139 -2 -73 -57 -108 vvcurveto
          -104 67 -68 116 70 52 25 44 32 vhcurveto
          hintmask 1011000101000000
          -59 221 354 vlineto
          hintmask 0111001001000000
          129 -94 74 -158 vhcurveto
          hintmask 1011001001000000
          -45 -424 rmoveto
          -32 -18 18 30 29 17 15 31 hvcurveto
          78 -50 hlineto
          -27 -18 -29 -15 -29 hhcurveto
          endchar
        </CharString>
        <CharString name="asciicircum">
          -85 143 380 hstem
          30 548 vstem
          422 143 rmoveto
          156 hlineto
          -185 380 rlineto
          -178 hlineto
          -185 -380 rlineto
          156 hlineto
          118 261 rlineto
          endchar
        </CharString>
        <CharString name="asciitilde">
          -173 226 201 -198 201 hstemhm
          47 149 -149 426 -148 148 hintmask 01010000
          175 430 rmoveto
          hintmask 01100000
          -87 -41 -64 -137 hvcurveto
          149 hlineto
          28 8 13 18 vhcurveto
          hintmask 10001000
          26 29 -44 69 hhcurveto
          87 40 64 137 hvcurveto
          -148 hlineto
          -28 -8 -13 -18 vhcurveto
          hintmask 01010000
          -26 -29 44 -69 hhcurveto
          endchar
        </CharString>
        <CharString name="asterisk">
          -287 359 359 hstem
          149 108 vstem
          255 447 rmoveto
          76 -47 55 96 -79 43 79 41 -55 95 -75 -45 2 88 rlineto
          -110 hlineto
          2 -88 -75 47 -55 -97 78 -41 -78 -43 55 -94 76 46 -3 -89 rlineto
          110 hlineto
          endchar
        </CharString>
        <CharString name="at">
          172 -145 99 79 89 -79 121 215 124 -53 41 108 99 hstemhm
          15 108 76 148 159 135 102 107 hintmask 1100111111000000
          439 698 rmoveto
          -235 -189 -189 -241 -237 178 -176 234 78 99 29 47 58 hvcurveto
          -51 86 rlineto
          -44 -56 -72 -19 -56 hhcurveto
          -172 -132 135 179 182 142 149 174 195 109 -144 -182 -89 -37 -62 -35 -18 -12 10 34 hvcurveto
          325 -135 -41 vlineto
          hintmask 1011011111000000
          0 -43 53 -72 -118 -74 -107 -125 -138 103 -90 104 46 49 19 52 37 vhcurveto
          2 -7 rlineto
          hintmask 1100111111000000
          -52 15 43 -22 60 hhcurveto
          111 81 96 147 243 -177 179 -234 hvcurveto
          hintmask 1011011111000000
          -20 -319 rmoveto
          50 28 -47 -57 -60 -27 -51 -50 -46 -27 53 59 55 28 48 44 hvcurveto
          endchar
        </CharString>
        <CharString name="atilde">
          -80 0 133 -122 -21 235 104 60 168 55 182 -180 183 hstemhm
          15 211 -112 136 102 221 -206 135 hintmask 0111100110000000
          273 652 rmoveto
          24 26 -40 63 hhcurveto
          hintmask 0111100101000000
          79 37 58 124 hvcurveto
          -135 hlineto
          -25 -7 -12 -17 vhcurveto
          hintmask 0111010110000000
          -23 -27 40 -62 hhcurveto
          -79 -38 -58 -125 hvcurveto
          136 hlineto
          hintmask 0111100110000000
          26 7 12 16 vhcurveto
          48 -95 rmoveto
          -81 -96 -19 -34 -93 hvcurveto
          50 -150 rlineto
          23 62 63 12 41 hhcurveto
          55 29 -22 -38 1 hvcurveto
          -125 hlineto
          hintmask 0111101010000000
          -139 -2 -73 -57 -108 vvcurveto
          -104 67 -68 116 70 52 25 44 32 vhcurveto
          hintmask 1011100110000000
          -59 221 354 vlineto
          hintmask 0111100110000000
          129 -94 74 -158 vhcurveto
          hintmask 1011101010000000
          -45 -424 rmoveto
          -32 -18 18 30 29 17 15 31 hvcurveto
          78 -50 hlineto
          -27 -18 -29 -15 -29 hhcurveto
          endchar
        </CharString>
        <CharString name="b">
          -3 -8 178 -170 170 212 173 187 -20 hstemhm
          60 225 163 227 hintmask 01111100
          424 555 rmoveto
          -56 -48 -22 -41 -35 hvcurveto
          250 -225 -742 225 vlineto
          hintmask 10111100
          56 vlineto
          -41 36 50 -23 59 hhcurveto
          149 96 109 169 hvcurveto
          hintmask 01111100
          173 -99 112 -152 vhcurveto
          -58 -385 rmoveto
          -49 -32 42 64 64 32 42 49 50 32 -42 -64 -64 -32 -42 -50 hvcurveto
          endchar
        </CharString>
        <CharString name="backslash">
          -320 -83 -21 hstem
          -94 517 vstem
          94 806 rmoveto
          -188 hlineto
          329 -910 rlineto
          188 hlineto
          endchar
        </CharString>
        <CharString name="bar">
          -367 -82 -21 hstem
          80 166 vstem
          246 -103 rmoveto
          899 -166 -899 vlineto
          endchar
        </CharString>
        <CharString name="braceleft">
          -312 -126 165 185 170 185 165 hstem
          90 200 vstem
          290 520 rmoveto
          44 14 15 67 vhcurveto
          165 -88 vlineto
          -145 -48 -38 -115 hvcurveto
          -163 vlineto
          -26 -8 -8 -23 vhcurveto
          -45 -170 45 hlineto
          23 8 -8 -26 hvcurveto
          -163 vlineto
          -115 48 -38 145 vhcurveto
          88 165 hlineto
          -67 -14 15 44 hvcurveto
          77 vlineto
          80 -25 37 -71 17 vhcurveto
          71 17 25 37 80 vvcurveto
          endchar
        </CharString>
        <CharString name="braceright">
          -312 -126 165 185 170 185 165 hstem
          91 200 vstem
          367 394 rmoveto
          -45 hlineto
          -23 -8 8 26 hvcurveto
          163 vlineto
          115 -48 38 -145 vhcurveto
          -88 -165 hlineto
          67 14 -15 -44 hvcurveto
          -77 vlineto
          -80 25 -37 71 -17 vhcurveto
          -71 -17 -25 -37 -80 vvcurveto
          -77 vlineto
          -44 -14 -15 -67 vhcurveto
          -165 88 vlineto
          145 48 38 115 hvcurveto
          163 vlineto
          26 8 8 23 vhcurveto
          45 hlineto
          endchar
        </CharString>
        <CharString name="bracketleft">
          -316 -124 166 534 166 hstem
          50 200 vstem
          367 576 rmoveto
          166 -317 -866 317 166 -117 534 vlineto
          endchar
        </CharString>
        <CharString name="bracketright">
          -296 -124 166 534 166 hstem
          147 200 vstem
          347 742 rmoveto
          -317 -166 117 -534 -117 -166 317 hlineto
          endchar
        </CharString>
        <CharString name="breve">
          595 174 hstemhm
          -9 135 98 135 hintmask 00000000
          hintmask 11100000
          224 769 rmoveto
          -30 -3 -19 -20 -27 hhcurveto
          -27 -19 20 30 -3 hvcurveto
          -135 hlineto
          -106 5 72 -68 107 hhcurveto
          107 72 68 106 5 hvcurveto
          endchar
        </CharString>
        <CharString name="brokenbar">
          -367 -103 339 221 339 hstem
          80 166 vstem
          246 457 rmoveto
          339 -166 -339 vlineto
          166 -560 rmoveto
          339 -166 -339 vlineto
          endchar
        </CharString>
        <CharString name="bullet">
          -325 129 308 hstem
          30 308 vstem
          183 437 rmoveto
          -90 -63 -63 -90 -92 63 -63 90 92 63 63 92 90 -63 63 -92 hvcurveto
          endchar
        </CharString>
        <CharString name="bulletoperator">
          -325 129 308 hstem
          30 308 vstem
          183 437 rmoveto
          -90 -63 -63 -90 -92 63 -63 90 92 63 63 92 90 -63 63 -92 hvcurveto
          endchar
        </CharString>
        <CharString name="c">
          -132 -8 178 203 182 hstem
          15 227 vstem
          304 555 rmoveto
          -175 -114 -112 -172 -169 113 -110 174 125 96 56 97 40 hvcurveto
          -182 84 rlineto
          -41 -12 -23 -18 -32 hhcurveto
          -44 -28 40 62 61 28 40 44 32 24 -19 -33 14 hvcurveto
          179 76 rlineto
          100 -45 -95 58 -119 hhcurveto
          endchar
        </CharString>
        <CharString name="cacute">
          -132 -8 178 203 182 hstem
          15 227 vstem
          490 720 rmoveto
          -190 60 -107 -189 rlineto
          160 hlineto
          -49 -36 rmoveto
          -175 -114 -112 -172 -169 113 -110 174 125 96 56 97 40 hvcurveto
          -182 84 rlineto
          -41 -12 -23 -18 -32 hhcurveto
          -44 -28 40 62 61 28 40 44 32 24 -19 -33 14 hvcurveto
          179 76 rlineto
          100 -45 -95 58 -119 hhcurveto
          endchar
        </CharString>
        <CharString name="caron">
          591 178 hstem
          -50 450 vstem
          -50 769 rmoveto
          133 -178 rlineto
          184 hlineto
          133 178 rlineto
          -165 hlineto
          -60 -90 -60 90 rlineto
          endchar
        </CharString>
        <CharString name="ccaron">
          -132 -8 178 203 182 36 178 hstem
          15 227 vstem
          67 769 rmoveto
          133 -178 rlineto
          184 hlineto
          133 178 rlineto
          -165 hlineto
          -60 -90 -60 90 rlineto
          72 -214 rmoveto
          -175 -114 -112 -172 -169 113 -110 174 125 96 56 97 40 hvcurveto
          -182 84 rlineto
          -41 -12 -23 -18 -32 hhcurveto
          -44 -28 40 62 61 28 40 44 32 24 -19 -33 14 hvcurveto
          179 76 rlineto
          100 -45 -95 58 -119 hhcurveto
          endchar
        </CharString>
        <CharString name="ccedilla">
          -132 -247 104 160 -21 377 182 hstem
          15 227 46 123 vstem
          314 170 rmoveto
          -44 -28 40 62 61 28 40 44 32 24 -19 -33 14 hvcurveto
          179 76 rlineto
          100 -45 -95 58 -119 hhcurveto
          -175 -114 -112 -172 -151 90 -103 143 -21 hvcurveto
          -40 -77 rlineto
          3 13 15 2 9 hhcurveto
          26 17 -13 -21 -20 -15 -13 -23 -15 -16 8 12 -10 hvcurveto
          -40 -90 rlineto
          -21 31 40 -13 30 hhcurveto
          86 55 44 69 36 -26 33 -40 14 hvcurveto
          26 49 91 17 69 52 32 78 rlinecurve
          -182 84 rlineto
          -41 -12 -23 -18 -32 hhcurveto
          endchar
        </CharString>
        <CharString name="cedilla">
          -247 104 67 94 hstemhm
          173 123 hintmask 00000000
          hintmask 11100000
          267 18 rmoveto
          -123 hlineto
          -51 -99 rlineto
          3 13 15 2 9 hhcurveto
          26 17 -13 -21 -20 -15 -13 -23 -15 -16 8 12 -10 hvcurveto
          -40 -90 rlineto
          -21 31 40 -13 30 hhcurveto
          86 55 44 69 36 -26 33 -40 14 hvcurveto
          endchar
        </CharString>
        <CharString name="cent">
          -132 20 -21 549 -20 hstemhm
          15 227 -12 166 hintmask 00000000
          hintmask 11100000
          314 170 rmoveto
          -44 -28 40 62 61 28 40 44 32 24 -19 -33 14 hvcurveto
          179 76 rlineto
          hintmask 11010000
          -33 73 -59 50 -75 22 rrcurveto
          172 -166 -166 vlineto
          hintmask 11100000
          -132 -28 -83 -103 -146 vvcurveto
          hintmask 11010000
          -144 82 -102 133 -26 vhcurveto
          -164 166 169 vlineto
          79 21 59 49 29 71 -182 84 rcurveline
          hintmask 11100000
          -41 -12 -23 -18 -32 hhcurveto
          endchar
        </CharString>
        <CharString name="circumflex">
          607 162 hstem
          -30 410 vstem
          380 607 rmoveto
          -121 162 rlineto
          -168 hlineto
          -121 -162 rlineto
          150 hlineto
          55 82 55 -82 rlineto
          endchar
        </CharString>
        <CharString name="colon">
          -428 -8 205 92 205 hstem
          30 205 vstem
          132 494 rmoveto
          -60 -42 -42 -60 -61 42 -42 60 61 42 42 61 60 -42 42 -61 hvcurveto
          -297 vmoveto
          -60 -42 -42 -60 -61 42 -42 60 61 42 42 61 60 -42 42 -61 hvcurveto
          endchar
        </CharString>
        <CharString name="comma">
          -428 -89 -21 hstem
          31 205 vstem
          134 197 rmoveto
          -60 -43 -42 -60 -31 12 -29 27 -18 hvcurveto
          -52 -127 rlineto
          104 hlineto
          87 126 rlineto
          16 23 11 26 31 vvcurveto
          66 -48 35 -54 vhcurveto
          endchar
        </CharString>
        <CharString name="commaaccent">
          -693 -340 307 hstem
          31 205 vstem
          134 -33 rmoveto
          -60 -43 -42 -60 -31 12 -29 27 -18 hvcurveto
          -52 -127 rlineto
          104 hlineto
          87 126 rlineto
          16 23 11 26 31 vvcurveto
          66 -48 35 -54 vhcurveto
          endchar
        </CharString>
        <CharString name="copyright">
          14 9 100 78 91 145 87 79 100 hstem
          15 100 75 107 295 100 vstem
          354 689 rmoveto
          -191 -148 -156 -185 -185 147 -154 190 191 149 156 185 186 -148 153 -190 hvcurveto
          -100 vmoveto
          134 104 -108 -131 -131 -104 -110 -136 -134 -103 108 131 131 104 110 135 hvcurveto
          7 -79 rmoveto
          -99 -72 -68 -93 -94 70 -68 97 49 53 24 39 35 hvcurveto
          -60 64 rlineto
          -22 -21 -28 -14 -22 hhcurveto
          -38 -28 30 43 42 28 30 38 24 28 -17 -26 19 hvcurveto
          60 72 rlineto
          35 -32 -53 23 -48 hhcurveto
          endchar
        </CharString>
        <CharString name="currency">
          0 69 175 159 174 -25 -20 hstemhm
          92 175 159 174 hintmask 10111000
          600 323 rmoveto
          36 -8 35 -13 31 vhcurveto
          99 99 -125 125 -97 -97 rlineto
          hintmask 11011000
          16 -33 -37 9 -40 hhcurveto
          hintmask 10111000
          -39 -37 -9 -16 -33 hvcurveto
          -97 97 -125 -125 99 -99 rlineto
          -14 -31 -8 -35 -36 vvcurveto
          -39 9 -38 16 -33 vhcurveto
          -102 -102 125 -125 104 104 rlineto
          -13 31 35 -8 36 hhcurveto
          36 35 8 14 31 hvcurveto
          105 -105 125 125 -103 103 rlineto
          16 33 9 37 39 vvcurveto
          -254 -79 rmoveto
          -44 -35 35 44 hvcurveto
          hintmask 11011000
          44 35 36 44 44 36 -36 -44 vhcurveto
          hintmask 10111000
          -44 -36 -35 -44 vhcurveto
          endchar
        </CharString>
        <CharString name="d">
          -3 -8 173 -165 165 212 178 187 -20 hstemhm
          15 227 163 225 hintmask 01111100
          630 742 rmoveto
          -225 -251 hlineto
          41 -36 -50 23 -59 hhcurveto
          -149 -96 -109 -169 hvcurveto
          hintmask 10111100
          -173 99 -112 152 56 48 22 41 35 vhcurveto
          hintmask 01111100
          -55 225 vlineto
          -306 165 rmoveto
          -50 -32 42 64 64 32 42 50 49 32 -42 -64 -64 -32 -42 -49 hvcurveto
          endchar
        </CharString>
        <CharString name="dagger">
          -85 327 176 hstem
          188 225 vstem
          413 503 rmoveto
          196 -225 -196 -168 -176 168 -512 225 512 175 176 vlineto
          endchar
        </CharString>
        <CharString name="daggerdbl">
          -85 17 176 134 176 hstem
          188 225 vstem
          413 327 rmoveto
          175 176 -175 196 -225 -196 -168 -176 168 -134 -168 -176 168 -202 225 202 175 176 -175 hlineto
          endchar
        </CharString>
        <CharString name="dcaron">
          154 -8 173 -165 165 212 178 187 -20 hstemhm
          15 227 163 225 40 205 hintmask 01111100
          405 742 rmoveto
          -251 vlineto
          41 -36 -50 23 -59 hhcurveto
          -149 -96 -109 -169 hvcurveto
          hintmask 10111100
          -173 99 -112 152 56 48 22 41 35 vhcurveto
          hintmask 01111110
          -55 225 742 vlineto
          143 -73 rmoveto
          -60 -43 -42 -60 -31 12 -29 27 -18 hvcurveto
          -52 -127 rlineto
          104 hlineto
          87 126 rlineto
          16 23 11 26 31 vvcurveto
          66 -48 35 -54 vhcurveto
          -449 -504 rmoveto
          -50 -32 42 64 64 32 42 50 49 32 -42 -64 -64 -32 -42 -49 hvcurveto
          endchar
        </CharString>
        <CharString name="dcroat">
          -1 -8 173 -165 165 212 178 19 113 -113 168 hstemhm
          15 227 163 225 hintmask 01001010
          692 574 rmoveto
          hintmask 01010010
          113 -62 vlineto
          hintmask 01001010
          55 -225 vlineto
          hintmask 01010010
          -55 -73 vlineto
          hintmask 01001010
          -113 73 vlineto
          hintmask 10101110
          -83 vlineto
          41 -36 -50 23 -59 hhcurveto
          -149 -96 -109 -169 -173 99 -112 152 56 48 22 41 35 hvcurveto
          hintmask 01001110
          -55 225 574 vlineto
          -306 -409 rmoveto
          -50 -32 42 64 hvcurveto
          hintmask 01101110
          64 32 42 50 49 32 -42 -64 vhcurveto
          hintmask 01001110
          -64 -32 -42 -49 vhcurveto
          endchar
        </CharString>
        <CharString name="degree">
          -293 582 83 76 83 hstem
          86 83 76 83 vstem
          207 824 rmoveto
          -67 -54 -54 -67 -67 54 -54 67 67 54 54 67 67 -54 54 -67 hvcurveto
          -83 vmoveto
          21 17 -17 -21 -21 -17 -17 -21 -21 -17 17 21 21 17 17 21 hvcurveto
          endchar
        </CharString>
        <CharString name="dieresis">
          607 183 hstemhm
          -20 182 26 182 hintmask 11000000
          71 790 rmoveto
          -54 -37 -38 -54 -53 37 -38 54 54 37 38 53 54 -37 38 -54 hvcurveto
          hintmask 11100000
          208 hmoveto
          -54 -37 -38 -54 -53 37 -38 54 54 37 38 53 54 -37 38 -54 hvcurveto
          endchar
        </CharString>
        <CharString name="divide">
          -173 57 183 19 140 18 183 hstemhm
          160 182 hintmask 00000000
          hintmask 01110000
          251 600 rmoveto
          -54 -37 -38 -54 -53 37 -38 54 54 37 38 53 54 -37 38 -54 hvcurveto
          hintmask 01010000
          239 -341 rmoveto
          140 -460 -140 vlineto
          hintmask 11010000
          221 -19 rmoveto
          -54 -37 -38 -54 -53 37 -38 54 54 37 38 53 54 -37 38 -54 hvcurveto
          endchar
        </CharString>
        <CharString name="divisionslash">
          -320 -83 -21 hstem
          -50 517 vstem
          138 -104 rmoveto
          329 910 rlineto
          -188 hlineto
          -329 -910 rlineto
          endchar
        </CharString>
        <CharString name="dollar">
          -29 16 -21 713 -20 hstemhm
          54 237 -48 166 8 237 hintmask 00000000
          hintmask 11101000
          291 505 rmoveto
          21 17 8 26 61 109 -43 -39 71 vhcurveto
          84 176 rlineto
          hintmask 11010000
          -66 42 -91 30 -93 8 rrcurveto
          156 -166 -166 vlineto
          hintmask 11101000
          -118 -29 -71 -77 -109 -246 363 60 -91 vvcurveto
          -25 -22 -11 -34 -71 -124 49 60 -72 vhcurveto
          -86 -174 rlineto
          hintmask 11010000
          64 -49 85 -35 86 -16 rrcurveto
          -170 166 160 vlineto
          hintmask 11011000
          136 14 109 70 139 vvcurveto
          hintmask 11101000
          254 -363 -55 88 vvcurveto
          endchar
        </CharString>
        <CharString name="dotaccent">
          589 228 hstem
          61 228 vstem
          175 817 rmoveto
          -67 -47 -47 -67 -67 47 -47 67 67 47 47 67 67 -47 47 -67 hvcurveto
          endchar
        </CharString>
        <CharString name="dotlessi">
          -358 21 -21 547 -20 hstem
          55 225 vstem
          280 hmoveto
          547 -225 -547 vlineto
          endchar
        </CharString>
        <CharString name="dotlessj">
          -355 -203 174 -153 -21 750 -20 hstemhm
          60 225 hintmask 01110000
          285 547 rmoveto
          -225 hlineto
          hintmask 10110000
          -530 vlineto
          -31 -16 -16 -28 1 vhcurveto
          -18 -18 5 9 -19 hvcurveto
          -50 -154 rlineto
          -22 43 54 -12 60 hhcurveto
          132 -1 85 72 115 vvcurveto
          endchar
        </CharString>
        <CharString name="e">
          -79 -8 166 65 104 78 150 hstem
          373 225 vstem
          307 555 rmoveto
          -176 -116 -111 -173 -169 111 -110 187 106 84 36 64 58 hvcurveto
          -117 115 rlineto
          -32 -34 -39 -17 -38 hhcurveto
          -44 -32 22 43 -15 hvcurveto
          356 hlineto
          202 12 -112 130 -191 hhcurveto
          -70 -228 rmoveto
          46 9 24 32 39 hhcurveto
          39 28 -33 -45 -3 hvcurveto
          endchar
        </CharString>
        <CharString name="eacute">
          -79 -8 166 65 104 78 150 hstem
          373 225 vstem
          358 591 rmoveto
          137 129 -190 60 -107 -189 rlineto
          109 -36 rmoveto
          -176 -116 -111 -173 -169 111 -110 187 106 84 36 64 58 hvcurveto
          -117 115 rlineto
          -32 -34 -39 -17 -38 hhcurveto
          -44 -32 22 43 -15 hvcurveto
          356 hlineto
          202 12 -112 130 -191 hhcurveto
          -70 -228 rmoveto
          46 9 24 32 39 hhcurveto
          39 28 -33 -45 -3 hvcurveto
          endchar
        </CharString>
        <CharString name="ecaron">
          -79 -8 166 65 104 78 150 36 178 hstem
          373 225 vstem
          205 591 rmoveto
          184 hlineto
          133 178 rlineto
          -165 hlineto
          -60 -90 -60 90 rlineto
          -165 hlineto
          235 -214 rmoveto
          -176 -116 -111 -173 -169 111 -110 187 106 84 36 64 58 hvcurveto
          -117 115 rlineto
          -32 -34 -39 -17 -38 hhcurveto
          -44 -32 22 43 -15 hvcurveto
          356 hlineto
          202 12 -112 130 -191 hhcurveto
          -70 -228 rmoveto
          46 9 24 32 39 hhcurveto
          39 28 -33 -45 -3 hvcurveto
          endchar
        </CharString>
        <CharString name="ecircumflex">
          -79 -8 166 65 104 78 150 52 162 hstem
          373 225 vstem
          248 607 rmoveto
          55 82 55 -82 rlineto
          150 hlineto
          -121 162 rlineto
          -168 hlineto
          -121 -162 rlineto
          209 -52 rmoveto
          -176 -116 -111 -173 -169 111 -110 187 106 84 36 64 58 hvcurveto
          -117 115 rlineto
          -32 -34 -39 -17 -38 hhcurveto
          -44 -32 22 43 -15 hvcurveto
          356 hlineto
          202 12 -112 130 -191 hhcurveto
          -70 -228 rmoveto
          46 9 24 32 39 hhcurveto
          39 28 -33 -45 -3 hvcurveto
          endchar
        </CharString>
        <CharString name="edieresis">
          -79 -8 166 65 104 78 150 52 183 hstemhm
          108 182 26 182 -125 225 hintmask 11111010
          199 607 rmoveto
          54 37 38 53 54 -37 38 -54 -54 -37 -38 -54 -53 37 -38 54 hvcurveto
          hintmask 11111100
          208 hmoveto
          54 37 38 53 54 -37 38 -54 -54 -37 -38 -54 -53 37 -38 54 hvcurveto
          hintmask 11111010
          -100 -52 rmoveto
          -176 -116 -111 -173 -169 111 -110 187 106 84 36 64 58 hvcurveto
          -117 115 rlineto
          -32 -34 -39 -17 -38 hhcurveto
          -44 -32 22 43 -15 hvcurveto
          356 hlineto
          202 12 -112 130 -191 hhcurveto
          -70 -228 rmoveto
          46 9 24 32 39 hhcurveto
          39 28 -33 -45 -3 hvcurveto
          endchar
        </CharString>
        <CharString name="edotaccent">
          -79 -8 166 65 104 78 150 34 228 hstemhm
          189 228 -44 225 hintmask 00000000
          hintmask 11111000
          303 589 rmoveto
          67 47 47 67 67 -47 47 -67 -67 -47 -47 -67 -67 47 -47 67 hvcurveto
          hintmask 11110100
          4 -34 rmoveto
          -176 -116 -111 -173 -169 111 -110 187 106 84 36 64 58 hvcurveto
          -117 115 rlineto
          -32 -34 -39 -17 -38 hhcurveto
          -44 -32 22 43 -15 hvcurveto
          356 hlineto
          202 12 -112 130 -191 hhcurveto
          -70 -228 rmoveto
          46 9 24 32 39 hhcurveto
          39 28 -33 -45 -3 hvcurveto
          endchar
        </CharString>
        <CharString name="egrave">
          -79 -8 166 65 104 78 150 hstem
          373 225 vstem
          255 591 rmoveto
          160 hlineto
          -107 189 -190 -60 rlineto
          189 -165 rmoveto
          -176 -116 -111 -173 -169 111 -110 187 106 84 36 64 58 hvcurveto
          -117 115 rlineto
          -32 -34 -39 -17 -38 hhcurveto
          -44 -32 22 43 -15 hvcurveto
          356 hlineto
          202 12 -112 130 -191 hhcurveto
          -70 -228 rmoveto
          46 9 24 32 39 hhcurveto
          39 28 -33 -45 -3 hvcurveto
          endchar
        </CharString>
        <CharString name="eight">
          -37 -10 166 128 165 111 151 hstemhm
          25 219 -181 194 142 194 -180 218 hintmask 00000000
          hintmask 11101100
          327 711 rmoveto
          -160 -104 -74 -115 -53 34 -58 52 -36 hvcurveto
          hintmask 11110010
          -75 -34 -49 -71 -75 vvcurveto
          -124 119 -81 184 184 119 82 127 73 -44 69 -68 34 vhcurveto
          hintmask 11110100
          45 32 29 55 53 vvcurveto
          hintmask 11101100
          119 -104 77 -162 vhcurveto
          1 -151 rmoveto
          47 24 -19 -38 -36 -24 -18 -47 -47 -24 18 36 38 24 19 47 hvcurveto
          hintmask 11110010
          -276 vmoveto
          56 29 -22 -43 -42 -29 -21 -56 -56 -28 21 42 43 28 22 56 hvcurveto
          endchar
        </CharString>
        <CharString name="eight.dnom">
          -269 -7 108 65 107 57 97 hstemhm
          18 148 -124 131 78 131 -123 147 hintmask 00000000
          hintmask 11101100
          211 427 rmoveto
          -102 -67 -45 -69 -31 21 -35 31 -22 hvcurveto
          hintmask 11110010
          -46 -21 -30 -43 -44 vvcurveto
          -74 76 -50 118 118 76 50 77 42 -27 42 -41 21 vhcurveto
          hintmask 11100100
          26 20 18 33 30 vvcurveto
          hintmask 11101100
          72 -67 47 -104 vhcurveto
          1 -97 rmoveto
          26 13 -10 -20 -18 -13 -9 -26 -26 -13 9 18 20 13 10 26 hvcurveto
          hintmask 11110010
          -164 vmoveto
          31 16 -11 -22 -22 -16 -10 -31 -31 -15 10 22 22 15 11 31 hvcurveto
          endchar
        </CharString>
        <CharString name="eight.numr">
          -269 273 108 65 107 57 97 hstemhm
          18 148 -124 131 78 131 -123 147 hintmask 00000000
          hintmask 11101100
          211 707 rmoveto
          -102 -67 -45 -69 -31 21 -35 31 -22 hvcurveto
          hintmask 11110010
          -46 -21 -30 -43 -44 vvcurveto
          -74 76 -50 118 118 76 50 77 42 -27 42 -41 21 vhcurveto
          hintmask 11100100
          26 20 18 33 30 vvcurveto
          hintmask 11101100
          72 -67 47 -104 vhcurveto
          1 -97 rmoveto
          26 13 -10 -20 -18 -13 -9 -26 -26 -13 9 18 20 13 10 26 hvcurveto
          hintmask 11110010
          -164 vmoveto
          31 16 -11 -22 -22 -16 -10 -31 -31 -15 10 22 22 15 11 31 hvcurveto
          endchar
        </CharString>
        <CharString name="ellipsis">
          52 -8 205 hstem
          30 205 35 205 35 205 vstem
          132 197 rmoveto
          -60 -42 -42 -60 -61 42 -42 60 61 42 42 61 60 -42 42 -61 hvcurveto
          240 hmoveto
          -60 -42 -42 -60 -61 42 -42 60 61 42 42 61 60 -42 42 -61 hvcurveto
          240 hmoveto
          -60 -42 -42 -60 -61 42 -42 60 61 42 42 61 60 -42 42 -61 hvcurveto
          endchar
        </CharString>
        <CharString name="emacron">
          -79 -8 166 65 104 78 150 69 148 hstemhm
          153 300 -80 225 hintmask 00000000
          hintmask 11111000
          453 624 rmoveto
          148 -300 -148 vlineto
          hintmask 11110100
          154 -69 rmoveto
          -176 -116 -111 -173 -169 111 -110 187 106 84 36 64 58 hvcurveto
          -117 115 rlineto
          -32 -34 -39 -17 -38 hhcurveto
          -44 -32 22 43 -15 hvcurveto
          356 hlineto
          202 12 -112 130 -191 hhcurveto
          -70 -228 rmoveto
          46 9 24 32 39 hhcurveto
          39 28 -33 -45 -3 hvcurveto
          endchar
        </CharString>
        <CharString name="emdash">
          -83 209 140 hstem
          0 610 vstem
          610 209 rmoveto
          140 -610 -140 vlineto
          endchar
        </CharString>
        <CharString name="endash">
          -283 209 140 hstem
          0 410 vstem
          410 209 rmoveto
          140 -410 -140 vlineto
          endchar
        </CharString>
        <CharString name="eogonek">
          -79 -183 -21 196 166 65 104 78 150 hstemhm
          337 110 -74 225 hintmask 11110100
          307 555 rmoveto
          -176 -116 -111 -173 hvcurveto
          hintmask 11111000
          -169 111 -110 187 24 25 5 8 23 vhcurveto
          -27 -37 -21 -42 -42 vvcurveto
          -69 54 -19 42 49 42 25 51 28 vhcurveto
          -55 64 rlineto
          -19 -11 -12 -11 -13 hhcurveto
          -8 -6 5 10 47 80 87 34 37 hvcurveto
          -117 115 rlineto
          -32 -34 -39 -17 -38 hhcurveto
          -43 -32 22 43 -16 hvcurveto
          hintmask 11110100
          356 hlineto
          202 12 -112 130 -191 hhcurveto
          2 -150 rmoveto
          39 28 -33 -45 -3 hvcurveto
          -136 hlineto
          46 9 25 32 38 hhcurveto
          endchar
        </CharString>
        <CharString name="equal">
          -173 149 140 80 140 hstem
          30 460 vstem
          490 369 rmoveto
          140 -460 -140 vlineto
          460 -220 rmoveto
          140 -460 -140 vlineto
          endchar
        </CharString>
        <CharString name="estimated">
          116 18 18 276 16 275 18 hstem
          70 122 426 122 vstem
          740 312 rmoveto
          7 vlineto
          167 -150 135 -185 -185 -150 -135 -167 -166 150 -135 185 107 98 47 70 60 vhcurveto
          -49 hlineto
          -60 -51 -78 -39 -86 hhcurveto
          -81 -74 34 55 -51 hvcurveto
          -4 5 -4 6 8 vvcurveto
          164 vlineto
          3 2 1 3 vhcurveto
          421 21 rmoveto
          -3 -2 -2 -3 vhcurveto
          -416 hlineto
          -3 -2 2 3 hvcurveto
          162 vlineto
          8 4 7 5 5 vhcurveto
          54 52 72 34 81 hhcurveto
          79 72 -33 -52 52 hvcurveto
          5 -5 4 -7 -8 vvcurveto
          endchar
        </CharString>
        <CharString name="eth">
          -76 -10 184 126 148 304 -20 hstem
          9 215 137 241 vstem
          592 614 rmoveto
          -34 101 -150 -52 -50 37 -58 30 -65 22 rlinecurve
          -151 -89 45 -19 43 -23 39 -26 rlinecurve
          -113 -39 34 -100 175 60 35 -35 25 -36 14 -36 rlinecurve
          24 -32 -57 15 -56 hhcurveto
          -138 -89 -87 -134 -144 108 -93 167 193 125 123 190 102 -38 96 -68 80 hvcurveto
          -204 -407 rmoveto
          -41 -27 25 39 38 26 24 41 43 27 -25 -38 -38 -27 -25 -42 hvcurveto
          endchar
        </CharString>
        <CharString name="exclam">
          -399 -8 205 504 -20 hstemhm
          40 205 -205 214 hintmask 11010000
          254 517 rmoveto
          184 -214 -184 vlineto
          40 -259 rlineto
          134 hlineto
          hintmask 11100000
          -72 -61 rmoveto
          -60 -42 -42 -60 -61 42 -42 60 61 42 42 61 60 -42 42 -61 hvcurveto
          endchar
        </CharString>
        <CharString name="exclamdown">
          -399 -155 443 61 205 hstemhm
          40 214 -205 205 hintmask 00000000
          hintmask 11010000
          152 349 rmoveto
          60 42 42 60 61 -42 42 -60 -61 -42 -42 -61 -60 42 -42 61 hvcurveto
          hintmask 11100000
          -112 -320 rmoveto
          -184 214 184 vlineto
          -40 259 rlineto
          -134 hlineto
          endchar
        </CharString>
        <CharString name="f">
          -267 21 -21 375 142 61 174 hstemhm
          95 224 hintmask 00000000
          hintmask 11110000
          371 578 rmoveto
          16 22 -7 -12 17 hvcurveto
          75 154 rlineto
          24 -46 -71 15 -62 hhcurveto
          -138 1 -89 -73 -114 vvcurveto
          -49 -75 -142 75 -375 224 375 106 142 -106 15 vlineto
          29 20 18 32 -1 vhcurveto
          endchar
        </CharString>
        <CharString name="fi">
          68 21 -21 385 142 -142 162 31 174 -163 228 hstemhm
          95 224 162 225 hintmask 00000000
          hintmask 11001110
          594 589 rmoveto
          67 47 47 67 67 -47 47 -67 -67 -47 -47 -67 -67 47 -47 67 hvcurveto
          -499 -62 rmoveto
          -75 -142 75 -385 224 385 106 142 -106 5 hlineto
          hintmask 10110110
          29 20 18 32 -1 vhcurveto
          16 22 -7 -12 17 hvcurveto
          7 177 rlineto
          10 -28 -44 6 -39 hhcurveto
          -138 1 -89 -73 -114 vvcurveto
          386 -19 rmoveto
          -547 225 547 vlineto
          endchar
        </CharString>
        <CharString name="firsttonechinese">
          624 148 hstem
          25 300 vstem
          325 624 rmoveto
          148 -300 -148 vlineto
          endchar
        </CharString>
        <CharString name="five">
          -82 -10 171 119 169 74 178 hstem
          67 212 60 250 vstem
          556 523 rmoveto
          178 -489 -421 197 vlineto
          50 25 -19 -38 -41 -25 -21 -50 -62 -57 33 65 -50 hvcurveto
          -92 -176 rlineto
          -56 77 113 -37 99 hhcurveto
          180 117 98 151 128 -110 82 -169 hvcurveto
          -31 74 hlineto
          endchar
        </CharString>
        <CharString name="five.dnom">
          -297 -7 111 58 109 35 115 hstem
          45 22 144 169 vstem
          202 271 rmoveto
          -1 -12 1 1 -1 hvcurveto
          33 171 115 -314 -257 vlineto
          20 -1 -61 -113 rlineto
          -34 49 73 -23 64 hhcurveto
          115 75 60 91 78 -70 49 -108 hvcurveto
          -31 -167 rmoveto
          -39 -34 19 40 -31 hvcurveto
          103 -1 rlineto
          28 13 -9 -19 -21 -13 -9 -27 hvcurveto
          endchar
        </CharString>
        <CharString name="five.numr">
          -297 273 111 58 109 35 115 hstem
          45 22 144 169 vstem
          202 551 rmoveto
          -1 -12 1 1 -1 hvcurveto
          33 171 115 -314 -257 vlineto
          20 -1 -61 -113 rlineto
          -34 49 73 -23 64 hhcurveto
          115 75 60 91 78 -70 49 -108 hvcurveto
          -31 -167 rmoveto
          -39 -34 19 40 -31 hvcurveto
          103 -1 rlineto
          28 13 -9 -19 -21 -13 -9 -27 hvcurveto
          endchar
        </CharString>
        <CharString name="fiveeighths">
          327 -7 108 -80 -21 166 107 0 111 -54 97 15 109 35 115 hstemhm
          45 22 144 169 234 148 -124 131 78 131 -123 147 hintmask 1001011110000000
          190 273 rmoveto
          115 75 60 91 78 -70 49 -108 -1 -12 1 1 -1 hvcurveto
          33 171 115 -314 -257 vlineto
          20 -1 -61 -113 rlineto
          -34 49 73 -23 64 hhcurveto
          659 428 rmoveto
          -209 hlineto
          hintmask 0101010110001000
          -487 -701 rlineto
          209 hlineto
          -151 414 rmoveto
          -21 -13 -9 -27 -39 -34 19 40 -31 vhcurveto
          103 -1 rlineto
          28 13 -9 -19 hvcurveto
          723 -189 rmoveto
          hintmask 0000100000110000
          26 20 18 33 30 vvcurveto
          72 -67 47 -104 -102 -67 -45 -69 -31 21 -35 31 -22 vhcurveto
          hintmask 1000000001001000
          -46 -21 -30 -43 -44 vvcurveto
          -74 76 -50 118 118 76 50 77 vhcurveto
          hintmask 0101010110001000
          42 -27 42 -41 21 vhcurveto
          hintmask 0010100000110000
          -126 105 rmoveto
          26 13 -10 -20 -18 -13 -9 -26 -26 -13 9 18 20 13 10 26 hvcurveto
          hintmask 1010000001001000
          -229 vmoveto
          -31 -15 10 22 22 15 11 31 31 16 -11 -22 -22 -16 -10 -31 hvcurveto
          endchar
        </CharString>
        <CharString name="fl">
          78 21 -21 385 142 51 174 -10 -20 30 -20 hstemhm
          95 224 167 225 hintmask 11001110
          95 527 rmoveto
          -75 -142 75 -385 224 385 106 142 -106 5 hlineto
          hintmask 11100110
          29 20 18 32 -1 vhcurveto
          16 22 -7 -12 17 hvcurveto
          7 177 rlineto
          10 -28 -44 6 -39 hhcurveto
          -138 1 -89 -73 -114 vvcurveto
          hintmask 11010110
          616 176 rmoveto
          -225 -742 225 hlineto
          endchar
        </CharString>
        <CharString name="florin">
          -249 -204 174 355 142 111 174 hstemhm
          -107 626 hintmask 00000000
          hintmask 11110000
          392 578 rmoveto
          16 21 -7 -12 16 hvcurveto
          74 154 rlineto
          24 -40 -65 15 -60 hhcurveto
          -131 1 -94 -73 -14 -114 -12 -99 rcurveline
          -76 hlineto
          -17 -142 rlineto
          75 hlineto
          -38 -309 -4 -29 -18 -18 -26 1 rlinecurve
          -16 -21 7 12 -15 hvcurveto
          -54 -154 rlineto
          -24 31 55 -15 48 hhcurveto
          132 -1 94 73 14 114 42 343 rcurveline
          106 hlineto
          17 142 rlineto
          -106 hlineto
          8 65 4 29 22 18 32 -1 rlinecurve
          endchar
        </CharString>
        <CharString name="four">
          -29 0 435 -414 -21 135 166 400 -20 hstemhm
          355 215 hintmask 01111000
          260 301 rmoveto
          191 400 rlineto
          -221 hlineto
          -205 -414 rlineto
          -152 330 -135 215 135 89 166 -89 vlineto
          hintmask 10011000
          134 -215 vlineto
          hintmask 01111000
          -134 vlineto
          endchar
        </CharString>
        <CharString name="four.dnom">
          -261 0 184 -184 260 -183 107 hstemhm
          227 145 hintmask 10010000
          227 184 rmoveto
          -49 hlineto
          116 237 rlineto
          -149 hlineto
          hintmask 00110000
          -126 -246 rlineto
          -98 208 vlineto
          hintmask 10010000
          -77 145 vlineto
          hintmask 00110000
          77 55 vlineto
          hintmask 10010000
          107 -55 vlineto
          hintmask 01010000
          76 -145 vlineto
          endchar
        </CharString>
        <CharString name="four.numr">
          -261 357 107 237 -20 hstem
          227 145 vstem
          227 464 rmoveto
          -49 hlineto
          116 237 rlineto
          -149 hlineto
          -126 -246 rlineto
          -98 208 -77 145 77 55 107 -55 76 -145 vlineto
          endchar
        </CharString>
        <CharString name="fraction">
          -543 21 -21 701 -20 hstem
          -273 696 vstem
          -273 hmoveto
          209 hlineto
          487 701 rlineto
          -209 hlineto
          endchar
        </CharString>
        <CharString name="g">
          -39 -204 174 63 160 197 157 -157 165 hstemhm
          15 210 152 224 hintmask 11101100
          601 547 rmoveto
          -224 hlineto
          hintmask 11011100
          -51 vlineto
          38 -34 -48 21 -59 hhcurveto
          -129 -92 -101 -157 -161 96 -103 129 57 47 21 37 33 hvcurveto
          -52 vlineto
          -42 -36 -27 -66 -53 -66 18 30 -48 vhcurveto
          -71 -151 rlineto
          -38 57 96 -33 105 hhcurveto
          181 125 97 152 hvcurveto
          -300 148 rmoveto
          -46 -30 39 59 hvcurveto
          hintmask 11101100
          60 30 39 46 46 30 -39 -60 vhcurveto
          hintmask 11011100
          -59 -30 -39 -46 vhcurveto
          endchar
        </CharString>
        <CharString name="gbreve">
          -39 -204 174 63 160 197 157 -157 165 40 174 hstemhm
          15 210 -82 135 98 135 -134 224 hintmask 0000000000000000
          hintmask 1110101100000000
          327 595 rmoveto
          107 72 68 106 5 hvcurveto
          -135 hlineto
          -30 -3 -19 -20 -27 hhcurveto
          -27 -19 20 30 -3 hvcurveto
          -135 hlineto
          -106 5 72 -68 107 hhcurveto
          hintmask 1110110010000000
          274 -48 rmoveto
          -224 hlineto
          hintmask 1101110010000000
          -51 vlineto
          38 -34 -48 21 -59 hhcurveto
          -129 -92 -101 -157 -161 96 -103 129 57 47 21 37 33 hvcurveto
          -52 vlineto
          -42 -36 -27 -66 -53 -66 18 30 -48 vhcurveto
          -71 -151 rlineto
          -38 57 96 -33 105 hhcurveto
          181 125 97 152 hvcurveto
          -300 148 rmoveto
          -46 -30 39 59 hvcurveto
          hintmask 1110110010000000
          60 30 39 46 46 30 -39 -60 vhcurveto
          hintmask 1101110010000000
          -59 -30 -39 -46 vhcurveto
          endchar
        </CharString>
        <CharString name="gcommaaccent">
          -39 -204 174 63 160 197 157 -157 165 hstemhm
          15 210 -7 205 -46 224 hintmask 00000000
          hintmask 11100100
          320 580 rmoveto
          60 43 42 60 31 -12 29 -27 18 hvcurveto
          52 127 rlineto
          -104 hlineto
          -87 -126 rlineto
          -16 -23 -11 -26 -31 vvcurveto
          -66 48 -35 54 vhcurveto
          hintmask 11101010
          281 -33 rmoveto
          -224 hlineto
          hintmask 11011010
          -51 vlineto
          38 -34 -48 21 -59 hhcurveto
          -129 -92 -101 -157 -161 96 -103 129 57 47 21 37 33 hvcurveto
          -52 vlineto
          -42 -36 -27 -66 -53 -66 18 30 -48 vhcurveto
          -71 -151 rlineto
          -38 57 96 -33 105 hhcurveto
          181 125 97 152 hvcurveto
          -300 148 rmoveto
          -46 -30 39 59 hvcurveto
          hintmask 11101010
          60 30 39 46 46 30 -39 -60 vhcurveto
          hintmask 11011010
          -59 -30 -39 -46 vhcurveto
          endchar
        </CharString>
        <CharString name="germandbls">
          -23 0 158 126 157 144 167 hstemhm
          40 225 123 218 -174 218 hintmask 11111000
          325 752 rmoveto
          -173 -112 -100 -156 hvcurveto
          -496 225 513 vlineto
          50 20 22 44 41 18 -22 -50 vhcurveto
          hintmask 11110100
          -50 -23 -22 -53 vhcurveto
          -157 23 vlineto
          67 30 -19 -42 -45 -30 -20 -67 hvcurveto
          -23 -158 47 hlineto
          177 114 85 132 76 -48 66 -74 26 hvcurveto
          hintmask 11111000
          47 37 31 63 62 vvcurveto
          124 -110 81 -171 vhcurveto
          endchar
        </CharString>
        <CharString name="grave">
          591 189 hstem
          27 297 vstem
          324 591 rmoveto
          -107 189 -190 -60 137 -129 rlineto
          endchar
        </CharString>
        <CharString name="greater">
          -173 607 -20 hstem
          30 460 vstem
          30 215 rmoveto
          -156 vlineto
          460 185 rlineto
          178 vlineto
          -460 185 rlineto
          -156 vlineto
          316 -118 rlineto
          endchar
        </CharString>
        <CharString name="greaterequal">
          -173 -16 140 hstem
          30 460 vstem
          30 303 rmoveto
          -148 vlineto
          460 176 rlineto
          169 vlineto
          -460 176 rlineto
          -149 vlineto
          316 -112 rlineto
          144 -431 rmoveto
          140 -460 -140 vlineto
          endchar
        </CharString>
        <CharString name="guillemotleft">
          -149 273 193 hstem
          -17 563 vstem
          181 273 rmoveto
          106 193 rlineto
          -180 hlineto
          -124 -193 124 -195 rlineto
          180 hlineto
          153 195 rmoveto
          106 193 rlineto
          -180 hlineto
          -124 -193 124 -195 rlineto
          180 hlineto
          endchar
        </CharString>
        <CharString name="guillemotright">
          -149 78 388 hstem
          -2 563 vstem
          104 271 rmoveto
          -106 -193 rlineto
          180 hlineto
          124 193 -124 195 rlineto
          -180 hlineto
          365 -195 rmoveto
          -106 -193 rlineto
          180 hlineto
          124 193 -124 195 rlineto
          -180 hlineto
          endchar
        </CharString>
        <CharString name="guilsinglleft">
          -408 78 388 hstem
          -17 304 vstem
          181 273 rmoveto
          106 193 rlineto
          -180 hlineto
          -124 -193 124 -195 rlineto
          180 hlineto
          endchar
        </CharString>
        <CharString name="guilsinglright">
          -408 78 388 hstem
          -2 304 vstem
          104 271 rmoveto
          -106 -193 rlineto
          180 hlineto
          124 193 -124 195 rlineto
          -180 hlineto
          endchar
        </CharString>
        <CharString name="h">
          -6 21 -21 359 198 0 -20 205 -20 hstemhm
          60 225 137 225 hintmask 10111100
          451 557 rmoveto
          -72 -57 -32 -56 -37 hvcurveto
          273 -225 -742 225 vlineto
          hintmask 11011100
          271 vlineto
          53 28 35 44 39 26 -29 -46 vhcurveto
          -284 225 349 vlineto
          hintmask 10111100
          126 -81 82 -115 vhcurveto
          endchar
        </CharString>
        <CharString name="hbar">
          -16 21 -21 359 198 0 -20 26 119 -119 179 hstemhm
          60 225 137 225 hintmask 00000000
          hintmask 10100110
          451 557 rmoveto
          -72 -57 -32 -56 -37 hvcurveto
          hintmask 10001110
          94 97 vlineto
          hintmask 10010110
          119 -97 vlineto
          hintmask 10001110
          60 -225 vlineto
          hintmask 10010110
          -60 -76 vlineto
          hintmask 10001110
          -119 76 -563 225 vlineto
          hintmask 11000110
          271 vlineto
          53 28 35 44 39 26 -29 -46 vhcurveto
          -284 225 349 vlineto
          hintmask 10100110
          126 -81 82 -115 vhcurveto
          endchar
        </CharString>
        <CharString name="hungarumlaut">
          591 189 hstem
          -60 470 vstem
          189 727 rmoveto
          -162 53 -87 -189 rlineto
          160 hlineto
          310 136 rmoveto
          -162 53 -87 -189 rlineto
          160 hlineto
          endchar
        </CharString>
        <CharString name="hyphen">
          -313 239 140 hstem
          50 280 vstem
          330 239 rmoveto
          140 -280 -140 vlineto
          endchar
        </CharString>
        <CharString name="i">
          -358 21 -21 547 -20 62 228 hstem
          55 225 vstem
          168 817 rmoveto
          -67 -47 -47 -67 -67 47 -47 67 67 47 47 67 67 -47 47 -67 hvcurveto
          112 -817 rmoveto
          547 -225 -547 vlineto
          endchar
        </CharString>
        <CharString name="iacute">
          -358 21 -21 547 -20 hstem
          55 225 vstem
          360 720 rmoveto
          -190 60 -107 -189 rlineto
          160 hlineto
          57 -591 rmoveto
          547 -225 -547 vlineto
          endchar
        </CharString>
        <CharString name="icircumflex">
          -358 21 -21 547 -20 80 162 hstem
          55 225 vstem
          373 607 rmoveto
          -121 162 rlineto
          -168 hlineto
          -121 -162 rlineto
          150 hlineto
          55 82 55 -82 rlineto
          57 -607 rmoveto
          547 -225 -547 vlineto
          endchar
        </CharString>
        <CharString name="idieresis">
          -358 21 -21 547 -20 80 183 hstemhm
          -27 182 -100 225 -99 182 hintmask 11101000
          64 790 rmoveto
          hintmask 11110000
          -54 -37 -38 -54 -53 37 -38 54 hvcurveto
          hintmask 11101000
          54 37 38 53 54 -37 38 -54 hvcurveto
          208 hmoveto
          -54 -37 -38 -54 -53 37 -38 54 hvcurveto
          hintmask 11100100
          54 37 38 53 hvcurveto
          hintmask 11101000
          54 -37 38 -54 vhcurveto
          8 -790 rmoveto
          547 -225 -547 vlineto
          endchar
        </CharString>
        <CharString name="igrave">
          -358 21 -21 547 -20 hstem
          55 225 vstem
          280 591 rmoveto
          -107 189 -190 -60 137 -129 rlineto
          160 -591 rmoveto
          547 -225 -547 vlineto
          endchar
        </CharString>
        <CharString name="ij">
          -10 -203 174 -153 -21 224 -21 547 -20 62 228 hstemhm
          55 225 104 246 -235 225 hintmask 01111101
          168 817 rmoveto
          -67 -47 -47 -67 -67 47 -47 67 67 47 47 67 67 -47 47 -67 hvcurveto
          hintmask 01111110
          339 hmoveto
          -72 -51 -47 -67 -67 51 -47 72 73 50 47 67 67 -50 47 -73 hvcurveto
          -227 -817 rmoveto
          547 -225 -547 vlineto
          hintmask 10111101
          565 547 rmoveto
          -225 -530 hlineto
          -31 -16 -16 -28 1 vhcurveto
          -18 -18 5 9 -19 hvcurveto
          -50 -154 rlineto
          -22 43 54 -12 60 hhcurveto
          132 -1 85 72 115 vvcurveto
          endchar
        </CharString>
        <CharString name="imacron">
          -358 21 -21 547 -20 97 148 hstem
          55 225 vstem
          318 624 rmoveto
          148 -300 -148 vlineto
          262 -624 rmoveto
          547 -225 -547 vlineto
          endchar
        </CharString>
        <CharString name="infinity">
          142 69 150 155 150 hstem
          15 150 505 150 vstem
          606 524 rmoveto
          -96 -54 -52 -60 -41 hvcurveto
          60 -42 -53 52 -92 hhcurveto
          -123 -90 -96 -132 -131 90 -96 123 96 54 52 60 41 hvcurveto
          -60 42 53 -52 92 hhcurveto
          124 90 96 132 131 -90 96 -124 hvcurveto
          -378 -305 rmoveto
          -36 -27 32 45 45 27 33 36 52 35 -32 -44 30 hvcurveto
          -45 -30 -34 -34 -53 hhcurveto
          378 hmoveto
          -52 -34 32 44 -31 hvcurveto
          45 30 34 34 53 hhcurveto
          37 27 -32 -45 -45 -27 -33 -37 hvcurveto
          endchar
        </CharString>
        <CharString name="integral">
          -259 -148 152 701 155 hstemhm
          125 165 -135 163 hintmask 11010000
          454 835 rmoveto
          18 -41 -30 7 -38 hhcurveto
          hintmask 11100000
          -159 -61 -75 -196 hvcurveto
          hintmask 11010000
          -73 30 -327 -80 vvcurveto
          -76 -25 -29 -63 -21 -20 6 15 -31 vhcurveto
          -25 -143 rlineto
          -22 34 36 -8 56 hhcurveto
          160 62 76 197 hvcurveto
          hintmask 11100000
          80 -28 336 69 vvcurveto
          69 23 26 60 19 17 -3 -9 25 vhcurveto
          endchar
        </CharString>
        <CharString name="iogonek">
          -382 -183 -21 225 -21 547 -20 62 228 hstem
          43 225 vstem
          156 817 rmoveto
          -67 -47 -47 -67 -67 47 -47 67 67 47 47 67 67 -47 47 -67 hvcurveto
          112 -817 rmoveto
          547 -225 -547 64 vlineto
          -24 -36 -19 -39 -41 vvcurveto
          -69 54 -19 42 49 43 25 51 28 vhcurveto
          -55 64 rlineto
          -19 -11 -13 -11 -13 hhcurveto
          -8 -6 5 10 16 16 30 22 33 hvcurveto
          endchar
        </CharString>
        <CharString name="itilde">
          -358 21 -21 547 -20 85 182 -180 183 hstemhm
          -26 136 -55 225 -53 135 hintmask 00000000
          hintmask 11011000
          91 797 rmoveto
          -79 -38 -58 -125 hvcurveto
          hintmask 11010100
          136 hlineto
          hintmask 11100100
          26 7 12 16 vhcurveto
          24 26 -40 63 hhcurveto
          hintmask 11100010
          79 37 58 124 hvcurveto
          -135 hlineto
          -25 -7 -12 -17 vhcurveto
          hintmask 11011000
          -23 -27 40 -62 hhcurveto
          hintmask 11100100
          189 -797 rmoveto
          547 -225 -547 vlineto
          endchar
        </CharString>
        <CharString name="j">
          -345 -203 174 -153 -21 750 -20 62 228 hstemhm
          49 246 -235 225 hintmask 00000000
          hintmask 01111000
          172 817 rmoveto
          -72 -51 -47 -67 -67 51 -47 72 73 50 47 67 67 -50 47 -73 hvcurveto
          hintmask 10110100
          113 -270 rmoveto
          -225 -530 hlineto
          -31 -16 -16 -28 1 vhcurveto
          -18 -18 5 9 -19 hvcurveto
          -50 -154 rlineto
          -22 43 54 -12 60 hhcurveto
          132 -1 85 72 115 vvcurveto
          endchar
        </CharString>
        <CharString name="jcircumflex">
          -355 -203 174 -153 -21 750 -20 80 162 hstemhm
          60 225 hintmask 01111000
          369 607 rmoveto
          -121 162 rlineto
          -168 hlineto
          -121 -162 rlineto
          150 hlineto
          55 82 55 -82 rlineto
          66 -60 rmoveto
          -225 hlineto
          hintmask 10111000
          -530 vlineto
          -31 -16 -16 -28 1 vhcurveto
          -18 -18 5 9 -19 hvcurveto
          -50 -154 rlineto
          -22 43 54 -12 60 hhcurveto
          132 -1 85 72 115 vvcurveto
          endchar
        </CharString>
        <CharString name="k">
          -31 21 -21 547 -20 215 -20 hstem
          60 225 vstem
          467 336 rmoveto
          199 211 rlineto
          -254 hlineto
          -127 -142 rlineto
          337 -225 -742 225 144 vlineto
          27 28 84 -172 rlineto
          267 hlineto
          endchar
        </CharString>
        <CharString name="kcedilla">
          -31 -247 104 164 -21 547 -20 215 -20 hstemhm
          60 225 -144 123 hintmask 11111000
          467 336 rmoveto
          199 211 rlineto
          -254 hlineto
          -127 -142 rlineto
          337 -225 -742 vlineto
          hintmask 11110100
          43 hlineto
          -42 -81 rlineto
          3 13 15 2 9 hhcurveto
          26 17 -13 -21 -20 -15 -13 -23 -15 -16 8 12 -10 hvcurveto
          -40 -90 rlineto
          -21 31 40 -13 30 hhcurveto
          hintmask 11111000
          86 55 44 69 36 -26 33 -40 14 hvcurveto
          27 51 rlineto
          60 144 hlineto
          27 28 84 -172 rlineto
          267 hlineto
          endchar
        </CharString>
        <CharString name="kgreenlandic">
          -38 21 -21 547 -20 hstem
          55 225 vstem
          460 336 rmoveto
          199 211 rlineto
          -254 hlineto
          -125 -140 rlineto
          140 -225 -547 225 146 vlineto
          25 26 84 -172 rlineto
          267 hlineto
          endchar
        </CharString>
        <CharString name="l">
          -348 21 -21 742 -20 hstem
          60 225 vstem
          285 hmoveto
          742 -225 -742 vlineto
          endchar
        </CharString>
        <CharString name="lacute">
          -348 21 -21 742 -20 hstem
          60 225 vstem
          365 915 rmoveto
          -190 60 -107 -189 rlineto
          160 hlineto
          57 -786 rmoveto
          742 -225 -742 vlineto
          endchar
        </CharString>
        <CharString name="lcaron">
          -208 21 -21 742 -20 hstemhm
          60 225 23 205 hintmask 11100000
          60 742 rmoveto
          -742 225 742 vlineto
          hintmask 11110000
          126 -73 rmoveto
          -60 -43 -42 -60 -31 12 -29 27 -18 hvcurveto
          -52 -127 rlineto
          104 hlineto
          87 126 rlineto
          16 23 11 26 31 vvcurveto
          66 -48 35 -54 vhcurveto
          endchar
        </CharString>
        <CharString name="lcommaaccent">
          -348 21 -21 742 -20 hstemhm
          60 225 -208 205 hintmask 11100000
          285 742 rmoveto
          -225 -742 225 hlineto
          hintmask 11010000
          -105 -33 rmoveto
          hintmask 11100000
          -60 -43 -42 -60 -31 12 -29 27 -18 hvcurveto
          -52 -127 rlineto
          104 hlineto
          hintmask 11010000
          87 126 rlineto
          16 23 11 26 31 vvcurveto
          66 -48 35 -54 vhcurveto
          endchar
        </CharString>
        <CharString name="ldot">
          -246 21 -21 212 205 325 -20 hstem
          60 225 vstem
          386 417 rmoveto
          -53 -39 -32 -49 -9 hvcurveto
          406 -225 -742 225 292 vlineto
          -48 9 39 -32 53 hhcurveto
          60 42 42 60 61 -42 42 -60 hvcurveto
          endchar
        </CharString>
        <CharString name="less">
          -173 49 548 hstem
          30 460 vstem
          490 441 rmoveto
          156 vlineto
          -460 -185 rlineto
          -178 vlineto
          460 -185 rlineto
          156 vlineto
          -316 118 rlineto
          endchar
        </CharString>
        <CharString name="lessequal">
          -173 -16 140 hstem
          30 460 vstem
          490 518 rmoveto
          148 vlineto
          -460 -176 rlineto
          -169 vlineto
          460 -175 rlineto
          148 vlineto
          -316 112 rlineto
          316 -422 rmoveto
          140 -460 -140 vlineto
          endchar
        </CharString>
        <CharString name="literSign">
          -215 -7 140 469 109 hstem
          338 116 vstem
          324 711 rmoveto
          -97 -83 -73 -171 -30 hvcurveto
          -36 -217 -85 -57 29 -86 43 24 rlineto
          -87 13 49 -51 93 hhcurveto
          79 78 37 101 62 hvcurveto
          -61 76 rlineto
          -33 -27 -37 -41 -46 hhcurveto
          -35 -23 22 65 10 hvcurveto
          77 64 157 118 165 vvcurveto
          89 -46 55 -84 vhcurveto
          -6 -109 rmoveto
          15 5 -17 -21 -77 -61 -77 -31 -39 hvcurveto
          19 116 rlineto
          86 14 19 29 20 hhcurveto
          endchar
        </CharString>
        <CharString name="logicalnot">
          -100 309 140 hstem
          380 160 vstem
          540 449 rmoveto
          -510 -140 350 -180 160 hlineto
          endchar
        </CharString>
        <CharString name="lozenge">
          -211 12 -21 hstem
          15 452 vstem
          467 330 rmoveto
          -225 336 -227 -336 225 -339 rlineto
          -82 339 rmoveto
          83 123 83 -123 -83 -125 rlineto
          endchar
        </CharString>
        <CharString name="lslash">
          -320 21 -21 547 -20 215 -20 hstem
          84 225 vstem
          309 381 rmoveto
          109 31 -38 135 -71 -21 rlineto
          216 -225 -281 vlineto
          -129 -37 38 -134 91 26 rlineto
          -316 225 vlineto
          endchar
        </CharString>
        <CharString name="m">
          339 21 -21 359 188 10 -20 hstemhm
          55 225 131 225 131 225 hintmask 10111100
          799 557 rmoveto
          -82 -62 -43 -74 -35 hvcurveto
          73 -29 -65 44 -83 hhcurveto
          -71 -55 -32 -55 -37 hvcurveto
          hintmask 11011100
          77 -225 -547 225 271 vlineto
          53 27 35 42 37 25 -29 -46 vhcurveto
          -284 225 271 vlineto
          53 27 35 42 37 25 -29 -46 vhcurveto
          -284 225 349 vlineto
          hintmask 10111100
          126 -80 82 -113 vhcurveto
          endchar
        </CharString>
        <CharString name="macron">
          624 148 hstem
          25 300 vstem
          325 624 rmoveto
          148 -300 -148 vlineto
          endchar
        </CharString>
        <CharString name="minus">
          -173 259 140 hstem
          30 460 vstem
          490 259 rmoveto
          140 -460 -140 vlineto
          endchar
        </CharString>
        <CharString name="mu">
          -1 -173 -21 194 188 -174 -21 554 -20 hstemhm
          60 225 127 225 hintmask 10111100
          637 547 rmoveto
          -225 hlineto
          hintmask 11011100
          -271 vlineto
          -53 -26 -35 -41 -36 -24 29 46 vhcurveto
          284 -225 -741 225 vlineto
          hintmask 10111100
          187 vlineto
          54 8 43 30 30 45 rrcurveto
          hintmask 11011100
          -76 225 vlineto
          endchar
        </CharString>
        <CharString name="multiply">
          -173 117 424 hstem
          48 424 vstem
          359 329 rmoveto
          113 113 -99 99 -113 -113 -113 113 -99 -99 113 -113 -113 -113 99 -99 113 113 113 -113 99 99 rlineto
          endchar
        </CharString>
        <CharString name="n">
          -11 21 -21 359 188 10 -20 hstemhm
          55 225 137 225 hintmask 10111000
          446 557 rmoveto
          -72 -57 -32 -56 -37 hvcurveto
          hintmask 11011000
          78 -225 -547 225 271 vlineto
          53 28 35 44 39 26 -29 -46 vhcurveto
          -284 225 349 vlineto
          hintmask 10111000
          126 -81 82 -115 vhcurveto
          endchar
        </CharString>
        <CharString name="nacute">
          -11 21 -21 359 188 10 -20 hstemhm
          55 225 137 225 hintmask 10111000
          415 591 rmoveto
          137 129 -190 60 -107 -189 rlineto
          191 -34 rmoveto
          -72 -57 -32 -56 -37 hvcurveto
          hintmask 11011000
          78 -225 -547 225 271 vlineto
          53 28 35 44 39 26 -29 -46 vhcurveto
          -284 225 349 vlineto
          hintmask 10111000
          126 -81 82 -115 vhcurveto
          endchar
        </CharString>
        <CharString name="nbspace">
          -484 endchar
        </CharString>
        <CharString name="ncaron">
          -11 21 -21 359 188 10 -20 54 178 hstemhm
          55 225 137 225 hintmask 10111100
          262 591 rmoveto
          184 hlineto
          133 178 rlineto
          -165 hlineto
          -60 -90 -60 90 rlineto
          -165 hlineto
          317 -212 rmoveto
          -72 -57 -32 -56 -37 hvcurveto
          hintmask 11011100
          78 -225 -547 225 271 vlineto
          53 28 35 44 39 26 -29 -46 vhcurveto
          -284 225 349 vlineto
          hintmask 10111100
          126 -81 82 -115 vhcurveto
          endchar
        </CharString>
        <CharString name="ncommaaccent">
          -11 21 -21 359 188 10 -20 hstemhm
          55 225 -29 205 -39 225 hintmask 10110100
          446 557 rmoveto
          -72 -57 -32 -56 -37 hvcurveto
          hintmask 11010100
          78 -225 -547 225 271 vlineto
          53 28 35 44 39 26 -29 -46 vhcurveto
          -284 225 349 vlineto
          hintmask 10110100
          126 -81 82 -115 vhcurveto
          hintmask 10101000
          -92 -590 rmoveto
          -60 -43 -42 -60 -31 12 -29 27 -18 hvcurveto
          -52 -127 rlineto
          104 hlineto
          87 126 rlineto
          16 23 11 26 31 vvcurveto
          66 -48 35 -54 vhcurveto
          endchar
        </CharString>
        <CharString name="nine">
          -45 -10 178 65 168 126 184 hstem
          20 215 157 221 vstem
          270 -10 rmoveto
          208 135 145 223 215 -120 138 -198 -165 -110 -96 -151 -137 90 -94 137 68 47 23 29 30 hvcurveto
          -78 -46 -39 -90 -55 -47 15 31 -38 vhcurveto
          -88 -162 rlineto
          -38 61 95 -24 86 hhcurveto
          32 411 rmoveto
          -45 -22 21 41 43 23 21 45 46 23 -21 -42 -42 -24 -21 -46 hvcurveto
          endchar
        </CharString>
        <CharString name="nine.dnom">
          -274 -7 116 29 109 61 119 hstemhm
          15 145 85 149 hintmask 10111000
          174 -7 rmoveto
          133 87 87 134 129 -77 84 -126 -106 -70 -58 -91 hvcurveto
          hintmask 11111000
          -83 57 -57 86 40 28 12 12 19 vhcurveto
          hintmask 10111000
          -37 -1 -27 -16 -52 hhcurveto
          -35 -29 9 18 -23 hvcurveto
          -59 -104 rlineto
          -24 38 61 -15 56 hhcurveto
          hintmask 11111000
          22 254 rmoveto
          -25 -11 10 20 22 11 9 25 24 12 -7 -24 -22 -12 -8 -24 hvcurveto
          endchar
        </CharString>
        <CharString name="nine.numr">
          -274 273 116 29 109 61 119 hstemhm
          15 145 85 149 hintmask 10111000
          174 273 rmoveto
          133 87 87 134 129 -77 84 -126 -106 -70 -58 -91 hvcurveto
          hintmask 11111000
          -83 57 -57 86 40 28 12 12 19 vhcurveto
          hintmask 10111000
          -37 -1 -27 -16 -52 hhcurveto
          -35 -29 9 18 -23 hvcurveto
          -59 -104 rlineto
          -24 38 61 -15 56 hhcurveto
          hintmask 11111000
          22 254 rmoveto
          -25 -11 10 20 22 11 9 25 24 12 -7 -24 -22 -12 -8 -24 hvcurveto
          endchar
        </CharString>
        <CharString name="notequal">
          -173 149 140 80 140 hstem
          30 460 vstem
          353 369 rmoveto
          137 140 -93 hlineto
          41 131 rlineto
          -168 hlineto
          -41 -131 rlineto
          -199 -140 155 hlineto
          -25 -80 rlineto
          -130 -140 86 hlineto
          -43 -136 rlineto
          168 hlineto
          43 136 rlineto
          206 140 -162 hlineto
          endchar
        </CharString>
        <CharString name="ntilde">
          -11 21 -21 359 188 10 -20 75 182 -180 183 hstemhm
          55 225 -114 136 115 225 -223 135 hintmask 0000000000000000
          hintmask 1011001010000000
          325 652 rmoveto
          24 26 -40 63 hhcurveto
          79 37 58 124 hvcurveto
          -135 hlineto
          -25 -7 -12 -17 vhcurveto
          hintmask 1010110100000000
          -23 -27 40 -62 hhcurveto
          -79 -38 -58 -125 hvcurveto
          hintmask 1010101100000000
          136 hlineto
          hintmask 1011001010000000
          26 7 12 16 vhcurveto
          hintmask 1011010100000000
          121 -95 rmoveto
          -72 -57 -32 -56 -37 hvcurveto
          hintmask 1101010100000000
          78 -225 -547 225 271 vlineto
          53 28 35 44 39 26 -29 -46 vhcurveto
          -284 225 349 vlineto
          hintmask 1011010100000000
          126 -81 82 -115 vhcurveto
          endchar
        </CharString>
        <CharString name="numbersign">
          52 0 291 -153 153 110 153 -153 300 hstemhm
          4 737 hintmask 10101000
          592 401 rmoveto
          131 hlineto
          18 153 rlineto
          -130 hlineto
          hintmask 10011000
          18 147 rlineto
          -160 hlineto
          hintmask 10101000
          -18 -147 rlineto
          -105 hlineto
          hintmask 10011000
          18 147 rlineto
          -160 hlineto
          hintmask 10101000
          -18 -147 rlineto
          -130 hlineto
          -18 -153 rlineto
          129 hlineto
          -14 -110 rlineto
          -130 hlineto
          hintmask 01101000
          -19 -153 rlineto
          130 hlineto
          hintmask 10101000
          -17 -138 rlineto
          160 hlineto
          hintmask 01101000
          17 138 rlineto
          105 hlineto
          hintmask 10101000
          -17 -138 rlineto
          160 hlineto
          hintmask 01101000
          17 138 rlineto
          130 hlineto
          hintmask 10101000
          19 153 rlineto
          -130 hlineto
          -146 110 rmoveto
          -14 -110 rlineto
          -105 hlineto
          14 110 rlineto
          endchar
        </CharString>
        <CharString name="o">
          -45 -8 173 212 178 hstem
          15 227 164 227 vstem
          324 555 rmoveto
          -188 -121 -110 -171 -171 121 -111 188 188 121 111 171 171 -121 110 -188 hvcurveto
          -178 vmoveto
          50 32 -42 -64 -64 -32 -42 -50 -50 -32 42 64 64 32 42 50 hvcurveto
          endchar
        </CharString>
        <CharString name="oacute">
          -45 -8 173 212 178 hstem
          15 227 164 227 vstem
          516 720 rmoveto
          -190 60 -107 -189 rlineto
          160 hlineto
          -55 -36 rmoveto
          -188 -121 -110 -171 -171 121 -111 188 188 121 111 171 171 -121 110 -188 hvcurveto
          -178 vmoveto
          50 32 -42 -64 -64 -32 -42 -50 -50 -32 42 64 64 32 42 50 hvcurveto
          endchar
        </CharString>
        <CharString name="ocircumflex">
          -45 -8 173 212 178 52 162 hstem
          15 227 164 227 vstem
          529 607 rmoveto
          -121 162 rlineto
          -168 hlineto
          -121 -162 rlineto
          150 hlineto
          55 82 55 -82 rlineto
          -55 -52 rmoveto
          -188 -121 -110 -171 -171 121 -111 188 188 121 111 171 171 -121 110 -188 hvcurveto
          -178 vmoveto
          50 32 -42 -64 -64 -32 -42 -50 -50 -32 42 64 64 32 42 50 hvcurveto
          endchar
        </CharString>
        <CharString name="odieresis">
          -45 -8 173 212 178 52 183 hstemhm
          15 227 -113 182 26 182 -113 227 hintmask 00000000
          hintmask 11101010
          220 790 rmoveto
          -54 -37 -38 -54 -53 37 -38 54 54 37 38 53 54 -37 38 -54 hvcurveto
          hintmask 11110100
          208 hmoveto
          -54 -37 -38 -54 -53 37 -38 54 54 37 38 53 54 -37 38 -54 hvcurveto
          hintmask 11110010
          -104 -235 rmoveto
          -188 -121 -110 -171 -171 121 -111 188 188 121 111 171 171 -121 110 -188 hvcurveto
          -178 vmoveto
          50 32 -42 -64 -64 -32 -42 -50 -50 -32 42 64 64 32 42 50 hvcurveto
          endchar
        </CharString>
        <CharString name="oe">
          306 -8 166 -166 173 58 104 50 178 -150 150 hstemhm
          15 227 516 225 hintmask 01101110
          690 555 rmoveto
          -77 -59 -26 -46 -41 hvcurveto
          46 -43 -64 26 -82 hhcurveto
          -188 -121 -110 -171 -171 121 -111 188 82 62 26 45 44 hvcurveto
          -45 41 61 -26 82 hhcurveto
          107 84 36 64 59 hvcurveto
          hintmask 10101110
          -117 115 rlineto
          -32 -35 -39 -17 -39 hhcurveto
          -44 -33 22 43 -16 hvcurveto
          360 hlineto
          hintmask 01101110
          202 12 -113 130 -192 hhcurveto
          -72 -228 rmoveto
          46 9 25 32 40 hhcurveto
          40 29 -33 -45 -3 hvcurveto
          -434 -162 rmoveto
          -50 -32 42 64 hvcurveto
          hintmask 01110110
          64 32 42 50 50 32 -42 -64 vhcurveto
          hintmask 01101110
          -64 -32 -42 -50 vhcurveto
          endchar
        </CharString>
        <CharString name="ogonek">
          -204 228 hstemhm
          69 110 hintmask 00000000
          hintmask 11000000
          129 24 rmoveto
          -31 -41 -29 -49 -50 vvcurveto
          -69 54 -19 42 49 43 25 51 28 vhcurveto
          -55 64 rlineto
          -19 -11 -13 -11 -13 hhcurveto
          -8 -6 5 10 20 24 40 31 43 hvcurveto
          endchar
        </CharString>
        <CharString name="ograve">
          -45 -8 173 212 178 hstem
          15 227 164 227 vstem
          436 591 rmoveto
          -107 189 -190 -60 137 -129 rlineto
          48 -36 rmoveto
          -188 -121 -110 -171 -171 121 -111 188 188 121 111 171 171 -121 110 -188 hvcurveto
          -178 vmoveto
          50 32 -42 -64 -64 -32 -42 -50 -50 -32 42 64 64 32 42 50 hvcurveto
          endchar
        </CharString>
        <CharString name="ohungarumlaut">
          -45 -8 173 212 178 hstem
          15 227 164 227 vstem
          373 727 rmoveto
          -162 53 -87 -189 rlineto
          160 hlineto
          310 136 rmoveto
          -162 53 -87 -189 rlineto
          160 hlineto
          -181 -36 rmoveto
          -188 -121 -110 -171 -171 121 -111 188 188 121 111 171 171 -121 110 -188 hvcurveto
          -178 vmoveto
          50 32 -42 -64 -64 -32 -42 -50 -50 -32 42 64 64 32 42 50 hvcurveto
          endchar
        </CharString>
        <CharString name="omacron">
          -45 -8 173 212 178 69 148 hstemhm
          15 227 -68 300 -68 227 hintmask 11101000
          474 624 rmoveto
          148 -300 -148 vlineto
          hintmask 11110100
          150 -69 rmoveto
          -188 -121 -110 -171 -171 121 -111 188 188 121 111 171 171 -121 110 -188 hvcurveto
          -178 vmoveto
          50 32 -42 -64 -64 -32 -42 -50 -50 -32 42 64 64 32 42 50 hvcurveto
          endchar
        </CharString>
        <CharString name="one">
          -258 21 -21 518 183 hstem
          124 232 vstem
          356 hmoveto
          701 -354 -183 122 -518 vlineto
          endchar
        </CharString>
        <CharString name="one.dnom">
          -407 21 -21 302 119 hstem
          80 156 vstem
          80 hmoveto
          156 421 -232 -119 76 hlineto
          endchar
        </CharString>
        <CharString name="one.numr">
          -407 582 119 hstem
          80 156 vstem
          80 280 rmoveto
          156 421 -232 -119 76 hlineto
          endchar
        </CharString>
        <CharString name="oneeighth">
          257 -7 108 -80 -21 166 107 57 97 155 119 hstemhm
          80 156 308 148 -124 131 78 131 -123 147 hintmask 1011110000000000
          80 280 rmoveto
          156 421 -232 -119 76 hlineto
          hintmask 0111110110000000
          3 -582 rmoveto
          209 hlineto
          487 701 rlineto
          -209 hlineto
          167 -274 rmoveto
          -102 -67 -45 -69 -31 21 -35 31 -22 hvcurveto
          hintmask 1011111001000000
          -46 -21 -30 -43 -44 vvcurveto
          -74 76 -50 118 118 76 50 77 42 -27 42 -41 21 vhcurveto
          hintmask 1011110010000000
          26 20 18 33 30 vvcurveto
          hintmask 0111110110000000
          72 -67 47 -104 vhcurveto
          1 -97 rmoveto
          26 13 -10 -20 hvcurveto
          hintmask 1011110110000000
          -18 -13 -9 -26 -26 -13 9 18 vhcurveto
          hintmask 0111110110000000
          20 13 10 26 vhcurveto
          hintmask 1011111001000000
          -164 vmoveto
          31 16 -11 -22 -22 -16 -10 -31 -31 -15 10 22 22 15 11 31 hvcurveto
          endchar
        </CharString>
        <CharString name="onehalf">
          267 0 115 191 121 155 119 hstemhm
          80 156 358 349 -168 164 hintmask 11110100
          80 280 rmoveto
          156 421 -232 -119 76 hlineto
          3 -582 rmoveto
          209 hlineto
          487 701 rlineto
          -209 hlineto
          207 -274 rmoveto
          -71 -66 -25 -42 -65 hvcurveto
          58 -108 rlineto
          33 43 44 21 32 hhcurveto
          15 8 -5 -11 -13 -14 -19 -15 -16 hvcurveto
          hintmask 11111000
          -152 -149 rlineto
          -93 349 115 -149 vlineto
          hintmask 11110100
          58 54 rlineto
          50 47 37 46 50 vvcurveto
          69 -70 46 -92 vhcurveto
          endchar
        </CharString>
        <CharString name="onequarter">
          245 0 184 -184 260 -183 107 398 119 hstemhm
          80 156 497 145 hintmask 10011100
          80 280 rmoveto
          156 421 -232 -119 76 hlineto
          3 -582 rmoveto
          209 hlineto
          487 701 rlineto
          -209 hlineto
          163 -517 rmoveto
          -49 hlineto
          116 237 rlineto
          -149 hlineto
          hintmask 00111100
          -126 -246 rlineto
          -98 208 vlineto
          hintmask 10011100
          -77 145 vlineto
          hintmask 00111100
          77 55 vlineto
          hintmask 10011100
          107 -55 vlineto
          hintmask 01011100
          76 -145 vlineto
          endchar
        </CharString>
        <CharString name="onesuperior">
          -407 582 119 hstem
          80 156 vstem
          80 280 rmoveto
          156 421 -232 -119 76 hlineto
          endchar
        </CharString>
        <CharString name="ordfeminine">
          -293 458 86 47 67 28 108 hstemhm
          11 143 70 149 hintmask 00000000
          hintmask 01101000
          209 794 rmoveto
          -51 -63 -11 -19 -61 hvcurveto
          34 -97 rlineto
          12 40 40 7 25 hhcurveto
          hintmask 11011000
          31 17 -10 -18 3 hvcurveto
          -77 hlineto
          -89 -1 -47 -35 -66 vvcurveto
          -63 43 -42 74 44 32 15 25 20 vhcurveto
          -33 149 213 vlineto
          hintmask 01101000
          79 1 -62 44 -103 hhcurveto
          hintmask 11011000
          -28 -250 rmoveto
          -18 -9 9 15 15 9 8 16 hvcurveto
          45 -27 hlineto
          -13 -11 -16 -7 -16 hhcurveto
          endchar
        </CharString>
        <CharString name="ordmasculine">
          -274 453 112 113 115 hstem
          12 153 88 154 vstem
          209 793 rmoveto
          -120 -77 -66 -104 -103 77 -67 120 121 77 67 103 104 -77 66 -121 hvcurveto
          -115 vmoveto
          27 17 -22 -35 -34 -17 -22 -27 -27 -17 22 34 35 17 22 27 hvcurveto
          endchar
        </CharString>
        <CharString name="oslash">
          -45 -8 154 250 159 -3 -20 23 -20 hstemhm
          15 212 194 212 hintmask 11001100
          501 677 rmoveto
          -88 hlineto
          hintmask 10101100
          -41 -125 rlineto
          hintmask 11001100
          2 -15 -16 1 -17 hhcurveto
          -188 -121 -110 -171 -128 68 -94 113 -40 hvcurveto
          -50 -151 rlineto
          88 hlineto
          44 133 rlineto
          -1 15 15 -1 16 hhcurveto
          188 121 111 171 hvcurveto
          hintmask 10011100
          127 -67 94 -112 39 vhcurveto
          -227 -263 rmoveto
          hintmask 11001100
          75 37 48 57 2 vhcurveto
          -70 -213 rlineto
          hintmask 10011100
          -15 21 -9 31 36 vvcurveto
          170 88 rmoveto
          15 -22 9 -30 -36 vvcurveto
          hintmask 11001100
          -75 -37 -48 -57 -2 vhcurveto
          endchar
        </CharString>
        <CharString name="otilde">
          -45 -8 173 212 178 57 182 -180 183 hstemhm
          15 227 -112 136 117 135 -112 227 hintmask 00000000
          hintmask 11010101
          247 797 rmoveto
          -79 -38 -58 -125 hvcurveto
          136 hlineto
          hintmask 11100110
          26 7 12 16 vhcurveto
          24 26 -40 63 hhcurveto
          79 37 58 124 hvcurveto
          -135 hlineto
          -25 -7 -12 -17 vhcurveto
          hintmask 11010101
          -23 -27 40 -62 hhcurveto
          hintmask 11101001
          77 -242 rmoveto
          -188 -121 -110 -171 -171 121 -111 188 188 121 111 171 171 -121 110 -188 hvcurveto
          -178 vmoveto
          50 32 -42 -64 -64 -32 -42 -50 -50 -32 42 64 64 32 42 50 hvcurveto
          endchar
        </CharString>
        <CharString name="p">
          -3 -173 -21 186 178 212 165 -165 173 hstemhm
          60 225 163 227 hintmask 00000000
          hintmask 11011100
          424 555 rmoveto
          -56 -48 -22 -41 -35 hvcurveto
          hintmask 11101100
          55 -225 -741 225 250 vlineto
          -41 36 50 -23 59 hhcurveto
          149 96 109 169 hvcurveto
          hintmask 11011100
          173 -99 112 -152 vhcurveto
          hintmask 11101100
          -58 -385 rmoveto
          -49 -32 42 64 64 32 42 49 50 32 -42 -64 -64 -32 -42 -50 hvcurveto
          endchar
        </CharString>
        <CharString name="paragraph">
          -11 -84 -21 723 124 hstem
          228 166 72 166 vstem
          632 -105 rmoveto
          847 -383 vlineto
          -188 -71 -113 -116 -86 44 -134 172 hvcurveto
          22 -398 166 723 72 -723 hlineto
          endchar
        </CharString>
        <CharString name="parenleft">
          -323 742 -20 hstem
          47 211 vstem
          180 742 rmoveto
          -86 -120 -47 -153 -160 vvcurveto
          -160 47 -153 86 -120 vhcurveto
          201 hlineto
          -73 120 -50 153 160 vvcurveto
          160 50 153 73 120 vhcurveto
          endchar
        </CharString>
        <CharString name="parenright">
          -323 742 -20 hstem
          112 211 vstem
          -11 742 rmoveto
          73 -120 50 -153 -160 vvcurveto
          -160 -50 -153 -73 -120 vhcurveto
          201 hlineto
          86 120 47 153 160 vvcurveto
          160 -47 153 -86 120 vhcurveto
          endchar
        </CharString>
        <CharString name="partialdiff">
          -45 -10 184 126 168 65 178 hstem
          20 215 157 221 vstem
          280 711 rmoveto
          -90 -98 -28 -44 -64 hvcurveto
          88 -162 rlineto
          38 41 50 18 59 hhcurveto
          83 43 -39 -78 hvcurveto
          29 -28 -44 23 -63 hhcurveto
          -143 -94 -94 -137 -151 110 -96 165 198 120 142 221 217 -131 141 -202 hvcurveto
          22 -411 rmoveto
          46 24 -21 -42 -42 -23 -21 -46 -45 -23 21 43 41 22 21 45 hvcurveto
          endchar
        </CharString>
        <CharString name="percent">
          375 -5 119 -93 -21 275 119 -87 118 162 118 -4 -20 hstemhm
          25 141 128 140 200 141 128 140 hintmask 1001101111000000
          230 705 rmoveto
          -124 -81 -84 -130 hvcurveto
          hintmask 1010101111000000
          -131 81 -85 124 124 80 85 131 vhcurveto
          hintmask 1001101111000000
          130 -80 84 -124 vhcurveto
          hintmask 0101011111000000
          -44 -705 rmoveto
          209 hlineto
          487 701 rlineto
          -209 hlineto
          hintmask 1010101111000000
          -443 -114 rmoveto
          39 25 -38 -58 -59 -25 -38 -39 -39 -25 38 59 58 25 38 39 hvcurveto
          hintmask 1001101111000000
          609 -162 rmoveto
          -124 -81 -84 -130 -131 81 -85 124 124 80 85 131 130 -80 84 -124 hvcurveto
          -118 vmoveto
          39 25 -38 -58 -59 -25 -38 -39 -39 -25 38 59 58 25 38 39 hvcurveto
          endchar
        </CharString>
        <CharString name="period">
          -428 -8 205 hstem
          30 205 vstem
          132 197 rmoveto
          -60 -42 -42 -60 -61 42 -42 60 61 42 42 61 60 -42 42 -61 hvcurveto
          endchar
        </CharString>
        <CharString name="periodcentered">
          -428 189 205 hstem
          30 205 vstem
          132 394 rmoveto
          -60 -42 -42 -60 -61 42 -42 60 61 42 42 61 60 -42 42 -61 hvcurveto
          endchar
        </CharString>
        <CharString name="perthousand">
          834 -5 119 -93 -21 275 119 -87 118 162 118 -4 -20 hstemhm
          25 141 128 140 200 141 128 140 50 141 128 140 hintmask 1001101111110000
          230 705 rmoveto
          -124 -81 -84 -130 hvcurveto
          hintmask 0010001100000000
          -131 81 -85 124 124 80 85 131 vhcurveto
          hintmask 1001101111110000
          130 -80 84 -124 vhcurveto
          hintmask 0100010100000000
          -44 -705 rmoveto
          209 hlineto
          487 701 rlineto
          -209 hlineto
          hintmask 0010101100000000
          -443 -114 rmoveto
          39 25 -38 -58 -59 -25 -38 -39 -39 -25 38 59 58 25 38 39 hvcurveto
          hintmask 1001000011110000
          609 -162 rmoveto
          -124 -81 -84 -130 -131 81 -85 124 124 80 85 131 130 -80 84 -124 hvcurveto
          459 hmoveto
          -124 -81 -84 -130 -131 81 -85 124 124 80 85 131 130 -80 84 -124 hvcurveto
          -459 -118 rmoveto
          39 25 -38 -58 -59 -25 -38 -39 -39 -25 38 59 58 25 38 39 hvcurveto
          459 hmoveto
          39 25 -38 -58 -59 -25 -38 -39 -39 -25 38 59 58 25 38 39 hvcurveto
          endchar
        </CharString>
        <CharString name="pi">
          40 21 -21 391 156 hstem
          -22 174 277 185 vstem
          614 391 rmoveto
          106 hlineto
          -1 156 rlineto
          -555 hlineto
          -109 -78 -67 -92 1 hvcurveto
          -46 16 -60 22 -46 vhcurveto
          154 52 rlineto
          -10 21 -8 26 15 vvcurveto
          24 -1 18 17 25 hhcurveto
          13 hlineto
          -40 -391 rlineto
          185 hlineto
          40 391 rlineto
          37 -391 185 hlineto
          endchar
        </CharString>
        <CharString name="plus">
          -173 259 140 hstem
          190 140 vstem
          490 259 rmoveto
          140 -160 160 -140 -160 -160 -140 160 -160 140 160 vlineto
          endchar
        </CharString>
        <CharString name="plusminus">
          -173 -16 140 221 133 hstem
          190 140 vstem
          490 478 rmoveto
          -160 152 -140 -152 -160 -133 160 -152 140 152 160 hlineto
          -460 -221 rmoveto
          -140 460 140 vlineto
          endchar
        </CharString>
        <CharString name="product">
          41 -173 -21 760 176 hstem
          50 225 184 225 vstem
          684 -194 rmoveto
          936 -634 -936 225 760 184 -760 vlineto
          endchar
        </CharString>
        <CharString name="q">
          -3 -173 -21 186 173 212 170 -170 178 hstemhm
          15 227 163 225 hintmask 11100100
          630 547 rmoveto
          -225 hlineto
          hintmask 11011100
          -56 vlineto
          41 -36 -50 23 -59 hhcurveto
          -149 -96 -109 -169 -173 99 -112 152 56 48 22 41 35 hvcurveto
          -249 225 vlineto
          -306 359 rmoveto
          -50 -32 42 64 hvcurveto
          hintmask 11101100
          64 32 42 50 49 32 -42 -64 vhcurveto
          hintmask 11011100
          -64 -32 -42 -49 vhcurveto
          endchar
        </CharString>
        <CharString name="question">
          -195 -8 205 258 256 -177 177 hstemhm
          1 172 -34 205 -183 167 -57 207 hintmask 00000000
          hintmask 11010000
          173 455 rmoveto
          hintmask 10110010
          54 17 25 37 30 14 -13 -29 vhcurveto
          hintmask 10100100
          -77 -110 -16 -149 vvcurveto
          167 hlineto
          hintmask 10100010
          105 150 29 145 vvcurveto
          115 -85 67 -145 vhcurveto
          hintmask 11010000
          -156 -91 -95 -161 hvcurveto
          hintmask 10101000
          240 -258 rmoveto
          -60 -42 -42 -60 -61 42 -42 60 61 42 42 61 60 -42 42 -61 hvcurveto
          endchar
        </CharString>
        <CharString name="questiondown">
          -195 -164 177 337 205 hstemhm
          20 207 -73 205 -189 167 -12 172 hintmask 00000000
          hintmask 11010000
          257 350 rmoveto
          60 42 42 60 61 -42 42 -60 -61 -42 -42 -61 -60 42 -42 61 hvcurveto
          hintmask 11100100
          68 -258 rmoveto
          -54 -17 -25 -37 -30 -14 13 29 vhcurveto
          hintmask 11001000
          77 110 16 149 vvcurveto
          -167 hlineto
          hintmask 11100100
          -105 -150 -29 -145 vvcurveto
          -115 85 -67 145 156 91 95 161 vhcurveto
          endchar
        </CharString>
        <CharString name="quotedbl">
          -184 399 302 hstem
          60 168 53 168 vstem
          228 399 rmoveto
          302 -168 -302 vlineto
          389 hmoveto
          302 -168 -302 vlineto
          endchar
        </CharString>
        <CharString name="quotedblbase">
          -210 -110 307 hstemhm
          31 205 13 205 hintmask 00000000
          hintmask 11000000
          134 197 rmoveto
          -60 -43 -42 -60 -31 12 -29 27 -18 hvcurveto
          -52 -127 rlineto
          104 hlineto
          87 126 rlineto
          16 23 11 26 31 vvcurveto
          66 -48 35 -54 vhcurveto
          hintmask 11100000
          218 hmoveto
          -60 -43 -42 -60 -31 12 -29 27 -18 hvcurveto
          -52 -127 rlineto
          104 hlineto
          87 126 rlineto
          16 23 11 26 31 vvcurveto
          66 -48 35 -54 vhcurveto
          endchar
        </CharString>
        <CharString name="quotedblleft">
          -210 394 307 -127 127 0 -20 hstemhm
          18 205 13 205 hintmask 00110000
          236 701 rmoveto
          -104 hlineto
          -87 -126 rlineto
          -16 -23 -11 -26 -31 vvcurveto
          hintmask 10010000
          -66 48 -35 54 60 43 42 60 vhcurveto
          hintmask 01010000
          31 -12 29 -27 18 vhcurveto
          270 127 rmoveto
          -104 hlineto
          hintmask 01011000
          -87 -126 rlineto
          -16 -23 -11 -26 -31 vvcurveto
          hintmask 10011000
          -66 48 -35 54 60 43 42 60 vhcurveto
          hintmask 01011000
          31 -12 29 -27 18 vhcurveto
          endchar
        </CharString>
        <CharString name="quotedblright">
          -210 394 307 0 -20 hstemhm
          31 205 13 205 hintmask 01100000
          134 701 rmoveto
          -60 -43 -42 -60 -31 12 -29 27 -18 hvcurveto
          hintmask 10100000
          -52 -127 rlineto
          104 hlineto
          87 126 rlineto
          16 23 11 26 31 vvcurveto
          hintmask 01100000
          66 -48 35 -54 vhcurveto
          hintmask 01110000
          218 hmoveto
          -60 -43 -42 -60 -31 12 -29 27 -18 hvcurveto
          hintmask 10110000
          -52 -127 rlineto
          104 hlineto
          87 126 rlineto
          16 23 11 26 31 vvcurveto
          hintmask 01110000
          66 -48 35 -54 vhcurveto
          endchar
        </CharString>
        <CharString name="quoteleft">
          -428 701 -20 hstem
          18 205 vstem
          236 701 rmoveto
          -104 hlineto
          -87 -126 rlineto
          -16 -23 -11 -26 -31 vvcurveto
          -66 48 -35 54 60 43 42 60 31 -12 29 -27 18 vhcurveto
          endchar
        </CharString>
        <CharString name="quoteright">
          -428 701 -20 hstem
          31 205 vstem
          134 701 rmoveto
          -60 -43 -42 -60 -31 12 -29 27 -18 hvcurveto
          -52 -127 rlineto
          104 hlineto
          87 126 rlineto
          16 23 11 26 31 vvcurveto
          66 -48 35 -54 vhcurveto
          endchar
        </CharString>
        <CharString name="quotesinglbase">
          -428 -89 -21 hstem
          31 205 vstem
          134 197 rmoveto
          -60 -43 -42 -60 -31 12 -29 27 -18 hvcurveto
          -52 -127 rlineto
          104 hlineto
          87 126 rlineto
          16 23 11 26 31 vvcurveto
          66 -48 35 -54 vhcurveto
          endchar
        </CharString>
        <CharString name="quotesingle">
          -405 399 302 hstem
          60 168 vstem
          228 399 rmoveto
          302 -168 -302 vlineto
          endchar
        </CharString>
        <CharString name="r">
          -236 21 -21 357.279998779 189.720001221 -189.720001221 199.720001221 hstemhm
          55 225 hintmask 11010000
          280 547 rmoveto
          -225 -547 225 261 hlineto
          72 66 36 101 -15 vhcurveto
          hintmask 10110000
          203 vlineto
          -71 -58 -33 -57 -38 hvcurveto
          endchar
        </CharString>
        <CharString name="racute">
          -236 21 -21 357.279998779 189.720001221 -189.720001221 199.720001221 hstemhm
          55 225 hintmask 11010000
          300 591 rmoveto
          137 129 -190 60 -107 -189 rlineto
          140 -44 rmoveto
          -225 -547 225 261 hlineto
          72 66 36 101 -15 vhcurveto
          hintmask 10110000
          203 vlineto
          -71 -58 -33 -57 -38 hvcurveto
          endchar
        </CharString>
        <CharString name="radical">
          32 242 176 324 -20 hstem
          -6 756 vstem
          277 418 rmoveto
          -283 -176 129 hlineto
          124 -403 rlineto
          240 hlineto
          263 903 rlineto
          -214 hlineto
          -168 -680 rlineto
          endchar
        </CharString>
        <CharString name="rcaron">
          -236 21 -21 357.279998779 189.720001221 -189.720001221 199.720001221 34 178 hstemhm
          55 225 hintmask 11011000
          147 591 rmoveto
          184 hlineto
          133 178 rlineto
          -165 hlineto
          -60 -90 -60 90 rlineto
          -165 hlineto
          266 -222 rmoveto
          -225 -547 225 261 hlineto
          72 66 36 101 -15 vhcurveto
          hintmask 10111000
          203 vlineto
          -71 -58 -33 -57 -38 hvcurveto
          endchar
        </CharString>
        <CharString name="rcommaaccent">
          -236 21 -21 357.279998779 189.720001221 -189.720001221 199.720001221 hstemhm
          55 225 -215 205 hintmask 11010000
          280 547 rmoveto
          -225 -547 225 261 hlineto
          72 66 36 101 -15 vhcurveto
          hintmask 10110000
          203 vlineto
          -71 -58 -33 -57 -38 hvcurveto
          hintmask 11001000
          -112 -500 rmoveto
          -60 -43 -42 -60 -31 12 -29 27 -18 hvcurveto
          -52 -127 rlineto
          104 hlineto
          87 126 rlineto
          16 23 11 26 31 vvcurveto
          66 -48 35 -54 vhcurveto
          endchar
        </CharString>
        <CharString name="registered">
          14 9 100 180 76 72 75 77 100 hstem
          15 100 109 100 75 95 98 100 vstem
          354 689 rmoveto
          -191 -148 -156 -185 -185 147 -154 190 191 149 156 185 186 -148 153 -190 hvcurveto
          -2 -580 rmoveto
          -134 -103 108 131 131 104 110 135 134 104 -108 -131 -131 -104 -110 -136 hvcurveto
          142 296 rmoveto
          68 -47 39 -82 vhcurveto
          -141 -301 100 78 33 hlineto
          36 -78 rlineto
          113 hlineto
          -60 98 rlineto
          31 19 17 33 44 vvcurveto
          -170 -40 rmoveto
          72 41 vlineto
          22 12 -13 -23 -23 -12 -13 -22 hvcurveto
          endchar
        </CharString>
        <CharString name="ring">
          579 85 78 85 hstem
          51 85 78 85 vstem
          175 827 rmoveto
          -69 -55 -55 -69 -69 55 -55 69 69 55 55 69 69 -55 55 -69 hvcurveto
          -85 vmoveto
          22 17 -17 -22 -22 -17 -17 -22 -22 -17 17 22 22 17 17 22 hvcurveto
          endchar
        </CharString>
        <CharString name="s">
          -141 -10 150 269 148 hstem
          38 205 73 211 vstem
          279 557 rmoveto
          -146 -95 -74 -115 hvcurveto
          -185 278 21 -48 vvcurveto
          -10 -13 -6 -21 -61 -68 23 45 -73 vhcurveto
          -68 -140 rlineto
          -52 76 90 -26 101 hhcurveto
          151 97 73 113 hvcurveto
          184 -284 -20 51 vvcurveto
          11 12 7 19 42 62 -20 -40 81 vhcurveto
          74 139 rlineto
          46 -82 -85 23 -87 hhcurveto
          endchar
        </CharString>
        <CharString name="sacute">
          -141 -10 150 269 148 hstem
          38 205 73 211 vstem
          481 720 rmoveto
          -190 60 -107 -189 rlineto
          160 hlineto
          -65 -34 rmoveto
          -146 -95 -74 -115 hvcurveto
          -185 278 21 -48 vvcurveto
          -10 -13 -6 -21 -61 -68 23 45 -73 vhcurveto
          -68 -140 rlineto
          -52 76 90 -26 101 hhcurveto
          151 97 73 113 hvcurveto
          184 -284 -20 51 vvcurveto
          11 12 7 19 42 62 -20 -40 81 vhcurveto
          74 139 rlineto
          46 -82 -85 23 -87 hhcurveto
          endchar
        </CharString>
        <CharString name="scaron">
          -141 -10 150 269 148 34 178 hstem
          38 205 73 211 vstem
          58 769 rmoveto
          133 -178 rlineto
          184 hlineto
          133 178 rlineto
          -165 hlineto
          -60 -90 -60 90 rlineto
          56 -212 rmoveto
          -146 -95 -74 -115 hvcurveto
          -185 278 21 -48 vvcurveto
          -10 -13 -6 -21 -61 -68 23 45 -73 vhcurveto
          -68 -140 rlineto
          -52 76 90 -26 101 hhcurveto
          151 97 73 113 hvcurveto
          184 -284 -20 51 vvcurveto
          11 12 7 19 42 62 -20 -40 81 vhcurveto
          74 139 rlineto
          46 -82 -85 23 -87 hhcurveto
          endchar
        </CharString>
        <CharString name="scedilla">
          -141 -247 104 156 -21 417 148 hstemhm
          38 205 30 123 -80 211 hintmask 11110100
          243 391 rmoveto
          11 12 7 19 42 62 -20 -40 81 vhcurveto
          74 139 rlineto
          46 -82 -85 23 -87 hhcurveto
          -146 -95 -74 -115 hvcurveto
          -185 278 21 -48 vvcurveto
          -10 -13 -6 -21 -61 -68 23 45 -73 vhcurveto
          -68 -140 rlineto
          hintmask 11111000
          64 -44 73 -25 82 -7 -38 -73 rcurveline
          3 13 15 2 9 hhcurveto
          26 17 -13 -21 -20 -15 -13 -23 -15 -16 8 12 -10 hvcurveto
          -40 -90 rlineto
          -21 31 40 -13 30 hhcurveto
          86 55 44 69 36 -26 33 -40 14 hvcurveto
          26 48 rlineto
          hintmask 11110100
          106 21 65 66 92 184 -284 -20 51 vvcurveto
          endchar
        </CharString>
        <CharString name="scommaaccent">
          -141 -10 150 269 148 hstemhm
          38 205 -64 205 -68 211 hintmask 11101000
          243 391 rmoveto
          11 12 7 19 42 62 -20 -40 81 vhcurveto
          74 139 rlineto
          46 -82 -85 23 -87 hhcurveto
          -146 -95 -74 -115 hvcurveto
          -185 278 21 -48 vvcurveto
          -10 -13 -6 -21 -61 -68 23 45 -73 vhcurveto
          -68 -140 rlineto
          -52 76 90 -26 101 hhcurveto
          151 97 73 113 hvcurveto
          184 -284 -20 51 vvcurveto
          hintmask 11010000
          39 -424 rmoveto
          -60 -43 -42 -60 -31 12 -29 27 -18 hvcurveto
          -52 -127 rlineto
          104 hlineto
          87 126 rlineto
          16 23 11 26 31 vvcurveto
          66 -48 35 -54 vhcurveto
          endchar
        </CharString>
        <CharString name="section">
          -107 -90 150 486 148 hstemhm
          22 204 -159 205 39 211 -165 210 hintmask 11010100
          303 694 rmoveto
          -146 -90 -73 -102 -34 7 -26 39 -28 hvcurveto
          hintmask 11101000
          -58 -31 -33 -46 -61 -175 289 5 -48 vvcurveto
          -9 -10 -6 -28 -54 -71 23 45 -75 vhcurveto
          -61 -140 rlineto
          -52 78 96 -26 92 hhcurveto
          152 92 71 101 46 -16 18 -30 25 hvcurveto
          hintmask 11010100
          58 31 33 46 60 175 -295 -5 52 vvcurveto
          9 10 7 23 38 64 -20 -40 83 vhcurveto
          67 139 rlineto
          46 -85 -87 23 -82 hhcurveto
          hintmask 11100100
          -29 -365 rmoveto
          43 40 -13 -19 -12 -17 -8 -36 -44 -34 12 19 13 15 8 33 hvcurveto
          endchar
        </CharString>
        <CharString name="semicolon">
          -428 -89 -21 399 205 hstem
          30 205 vstem
          132 289 rmoveto
          61 42 42 61 60 -42 42 -61 -60 -42 -42 -60 -61 42 -42 60 hvcurveto
          2 -92 rmoveto
          -60 -43 -42 -60 -31 12 -29 27 -18 hvcurveto
          -52 -127 rlineto
          104 hlineto
          87 126 rlineto
          16 23 11 26 31 vvcurveto
          66 -48 35 -54 vhcurveto
          endchar
        </CharString>
        <CharString name="seven">
          -76 21 -21 523 178 hstem
          29 204 vstem
          608 546 rmoveto
          155 -579 -276 204 98 120 vlineto
          -231 -523 rlineto
          245 hlineto
          endchar
        </CharString>
        <CharString name="seven.dnom">
          -292 21 -21 306 115 hstem
          22 137 vstem
          244 hmoveto
          149 321 rlineto
          100 -371 -173 137 58 61 vlineto
          -141 -306 rlineto
          endchar
        </CharString>
        <CharString name="seven.numr">
          -292 528 173 -115 115 hstemhm
          22 137 hintmask 01100000
          244 280 rmoveto
          149 321 rlineto
          100 -371 vlineto
          hintmask 10100000
          -173 137 vlineto
          hintmask 01100000
          58 61 vlineto
          -141 -306 rlineto
          endchar
        </CharString>
        <CharString name="seveneighths">
          302 -7 108 -80 -21 166 107 57 97 101 173 -115 115 hstemhm
          22 137 430 148 -124 131 78 131 -123 147 hintmask 1011011000000000
          244 280 rmoveto
          149 321 rlineto
          100 -371 vlineto
          hintmask 1011101000000000
          -173 137 vlineto
          hintmask 0111011011000000
          58 61 vlineto
          -141 -306 rlineto
          49 -280 rmoveto
          209 hlineto
          487 701 rlineto
          -209 hlineto
          167 -274 rmoveto
          -102 -67 -45 -69 -31 21 -35 31 -22 hvcurveto
          hintmask 1011011100100000
          -46 -21 -30 -43 -44 vvcurveto
          -74 76 -50 118 118 76 50 77 42 -27 42 -41 21 vhcurveto
          hintmask 1011011001000000
          26 20 18 33 30 vvcurveto
          hintmask 0111011011000000
          72 -67 47 -104 vhcurveto
          1 -97 rmoveto
          26 13 -10 -20 hvcurveto
          hintmask 1011011011000000
          -18 -13 -9 -26 -26 -13 9 18 vhcurveto
          hintmask 0111011011000000
          20 13 10 26 vhcurveto
          hintmask 1011011100100000
          -164 vmoveto
          31 16 -11 -22 -22 -16 -10 -31 -31 -15 10 22 22 15 11 31 hvcurveto
          endchar
        </CharString>
        <CharString name="six">
          -45 -10 184 126 168 65 178 hstem
          35 221 157 215 vstem
          378 711 rmoveto
          -208 -135 -145 -223 -215 120 -138 198 165 110 96 151 137 -90 94 -137 -68 -47 -23 -29 -30 hvcurveto
          78 46 39 90 55 47 -15 -31 38 vhcurveto
          88 162 rlineto
          38 -61 -95 24 -86 hhcurveto
          -32 -411 rmoveto
          45 22 -21 -41 -43 -23 -21 -45 -46 -23 21 42 42 24 21 46 hvcurveto
          endchar
        </CharString>
        <CharString name="six.dnom">
          -274 -7 120 61 108 30 115 hstemhm
          25 149 85 145 hintmask 10111000
          245 427 rmoveto
          -133 -87 -87 -134 -129 77 -84 126 106 70 59 91 hvcurveto
          hintmask 11111000
          82 -57 57 -86 -40 -28 -11 -13 -19 vhcurveto
          hintmask 10111000
          37 1 27 17 52 hhcurveto
          35 29 -9 -19 23 hvcurveto
          59 105 rlineto
          23 -38 -62 15 -55 hhcurveto
          hintmask 11111000
          -22 -253 rmoveto
          25 11 -10 -20 -22 -11 -9 -25 -24 -12 7 23 22 12 9 24 hvcurveto
          endchar
        </CharString>
        <CharString name="six.numr">
          -274 273 120 61 108 30 115 hstemhm
          25 149 85 145 hintmask 10111000
          245 707 rmoveto
          -133 -87 -87 -134 -129 77 -84 126 106 70 59 91 hvcurveto
          hintmask 11111000
          82 -57 57 -86 -40 -28 -11 -13 -19 vhcurveto
          hintmask 10111000
          37 1 27 17 52 hhcurveto
          35 29 -9 -19 23 hvcurveto
          59 105 rlineto
          23 -38 -62 15 -55 hhcurveto
          hintmask 11111000
          -22 -253 rmoveto
          25 11 -10 -20 -22 -11 -9 -25 -24 -12 7 23 22 12 9 24 hvcurveto
          endchar
        </CharString>
        <CharString name="slash">
          -320 -83 -21 hstem
          -50 517 vstem
          138 -104 rmoveto
          329 910 rlineto
          -188 hlineto
          -329 -910 rlineto
          endchar
        </CharString>
        <CharString name="softhyphen">
          -313 239 140 hstem
          50 280 vstem
          330 239 rmoveto
          140 -280 -140 vlineto
          endchar
        </CharString>
        <CharString name="space">
          -484 endchar
        </CharString>
        <CharString name="sterling">
          -127 0 173 91 152 102 193 hstem
          90 233 vstem
          323 173 rmoveto
          91 159 152 -159 43 vlineto
          40 18 19 35 34 39 -20 -39 43 vhcurveto
          84 170 rlineto
          53 -58 -82 29 -85 hhcurveto
          -166 -95 -90 -157 hvcurveto
          -48 -70 -152 70 -91 -70 -173 541 173 vlineto
          endchar
        </CharString>
        <CharString name="summation">
          -72 -138 193 497 193 hstem
          23 590 vstem
          603 552 rmoveto
          193 -567 -162 vlineto
          223 -284 -236 -279 rlineto
          -158 590 193 -309 vlineto
          200 245 -200 252 rlineto
          endchar
        </CharString>
        <CharString name="t">
          -233 -10 174 211 142 hstemhm
          83 224 hintmask 00000000
          hintmask 11100000
          407 178 rmoveto
          -8 -21 -22 -6 -13 hhcurveto
          -27 -1 -17 18 29 vvcurveto
          165 128 142 -128 153 -224 -153 -75 -142 75 -199 vlineto
          -114 81 -73 125 1 vhcurveto
          58 62 13 21 36 hvcurveto
          endchar
        </CharString>
        <CharString name="tcaron">
          -223 -10 174 -153 -21 385 142 55 98 hstemhm
          83 224 39 205 hintmask 01111100
          449 879 rmoveto
          -60 -43 -42 -60 -31 12 -29 27 -18 hvcurveto
          -52 -127 rlineto
          104 hlineto
          87 126 rlineto
          16 23 11 26 31 vvcurveto
          66 -48 35 -54 vhcurveto
          hintmask 10111100
          -98 -715 rmoveto
          -27 -1 -17 18 29 vvcurveto
          165 128 142 -128 153 -224 -153 -75 -142 75 -199 vlineto
          -114 81 -73 125 1 vhcurveto
          58 62 13 21 36 hvcurveto
          -38 154 rlineto
          -8 -21 -22 -6 -13 hhcurveto
          endchar
        </CharString>
        <CharString name="tcedilla">
          -233 -247 104 160 -21 379 142 hstemhm
          83 224 -37 123 hintmask 11110000
          352 -5 rmoveto
          36 5 34 11 23 13 -38 154 rcurveline
          -8 -21 -22 -6 -13 hhcurveto
          -27 -1 -17 18 29 vvcurveto
          165 128 142 -128 153 -224 -153 -75 -142 75 -199 vlineto
          -95 56 -66 91 -19 vhcurveto
          hintmask 11101000
          -40 -77 rlineto
          3 13 15 2 9 hhcurveto
          26 17 -13 -21 -20 -15 -13 -23 -15 -16 8 12 -10 hvcurveto
          -40 -90 rlineto
          -21 31 40 -13 30 hhcurveto
          86 55 44 69 36 -26 33 -40 14 hvcurveto
          endchar
        </CharString>
        <CharString name="tcommaaccent">
          -233 -10 174 -153 -21 385 142 hstemhm
          83 224 -131 205 hintmask 01110000
          289 -10 rmoveto
          58 62 13 21 36 hvcurveto
          hintmask 10110000
          -38 154 rlineto
          -8 -21 -22 -6 -13 hhcurveto
          -27 -1 -17 18 29 vvcurveto
          165 128 142 -128 153 -224 -153 -75 -142 75 -199 vlineto
          hintmask 01110000
          -114 81 -73 125 1 vhcurveto
          hintmask 01101000
          -10 -23 rmoveto
          -60 -43 -42 -60 -31 12 -29 27 -18 hvcurveto
          -52 -127 rlineto
          104 hlineto
          87 126 rlineto
          16 23 11 26 31 vvcurveto
          66 -48 35 -54 vhcurveto
          endchar
        </CharString>
        <CharString name="thorn">
          -3 -173 -21 186 178 212 173 187 -20 hstem
          60 225 163 227 vstem
          424 555 rmoveto
          -56 -48 -22 -41 -35 hvcurveto
          250 -225 -936 225 250 vlineto
          -41 36 50 -23 59 hhcurveto
          149 96 109 169 173 -99 112 -152 hvcurveto
          -58 -385 rmoveto
          -49 -32 42 64 64 32 42 49 50 32 -42 -64 -64 -32 -42 -50 hvcurveto
          endchar
        </CharString>
        <CharString name="three">
          -118 -10 171 370 168 hstem
          329 227 vstem
          373 424 rmoveto
          151 145 rlineto
          130 -494 -168 233 vlineto
          -133 -127 rlineto
          -121 127 vlineto
          48 24 -20 -41 -41 -24 -20 -48 -61 -58 33 65 -53 hvcurveto
          -92 -176 rlineto
          -56 68 110 -37 105 hhcurveto
          170 110 96 137 105 -65 68 -88 21 hvcurveto
          endchar
        </CharString>
        <CharString name="three.dnom">
          -319 -7 111 207 108 hstemhm
          22 318 -133 153 hintmask 00000000
          hintmask 11100000
          249 256 rmoveto
          91 79 rlineto
          84 -318 -108 vlineto
          hintmask 11010000
          142 hlineto
          -78 -68 rlineto
          -78 82 vlineto
          26 13 -10 -21 -21 -13 -9 -26 -38 -36 20 41 -33 hvcurveto
          -62 -114 rlineto
          -35 43 71 -23 68 hhcurveto
          109 70 59 82 63 -40 41 -52 13 hvcurveto
          endchar
        </CharString>
        <CharString name="three.numr">
          -319 273 111 207 108 hstemhm
          22 318 -133 153 hintmask 00000000
          hintmask 01100000
          249 536 rmoveto
          91 79 rlineto
          84 -318 -108 vlineto
          hintmask 11010000
          142 hlineto
          -78 -68 rlineto
          -78 82 vlineto
          26 13 -10 -21 -21 -13 -9 -26 -38 -36 20 41 -33 hvcurveto
          -62 -114 rlineto
          -35 43 71 -23 68 hhcurveto
          109 70 59 82 63 -40 41 -52 13 hvcurveto
          endchar
        </CharString>
        <CharString name="threeeighths">
          315 -7 108 -80 -21 166 107 0 111 -54 97 164 108 hstemhm
          22 318 -133 153 242 148 -124 131 78 131 -123 147 hintmask 0000000000000000
          hintmask 0100011010010000
          141 hmoveto
          209 hlineto
          487 701 rlineto
          -209 hlineto
          -379 -165 rmoveto
          91 79 rlineto
          84 -318 -108 vlineto
          hintmask 1001010110010000
          142 hlineto
          -78 -68 rlineto
          -78 82 vlineto
          26 13 -10 -21 -21 -13 -9 -26 -38 -36 20 41 -33 hvcurveto
          -62 -114 rlineto
          -35 43 71 -23 68 hhcurveto
          109 70 59 82 63 -40 41 -52 13 hvcurveto
          hintmask 1000110101100000
          527 -104 rmoveto
          -102 -67 -45 -69 -31 21 -35 31 -22 hvcurveto
          hintmask 1000010110010000
          -46 -21 -30 -43 -44 vvcurveto
          -74 76 -50 118 118 76 50 77 42 -27 42 -41 21 vhcurveto
          hintmask 1000010110100000
          26 20 18 33 30 vvcurveto
          hintmask 1000110101100000
          72 -67 47 -104 vhcurveto
          1 -97 rmoveto
          26 13 -10 -20 hvcurveto
          hintmask 1010010101100000
          -18 -13 -9 -26 -26 -13 9 18 vhcurveto
          hintmask 1000110101100000
          20 13 10 26 vhcurveto
          hintmask 1010010110010000
          -164 vmoveto
          31 16 -11 -22 -22 -16 -10 -31 -31 -15 10 22 22 15 11 31 hvcurveto
          endchar
        </CharString>
        <CharString name="threequarters">
          303 0 184 -184 260 -183 107 89 111 207 108 hstemhm
          22 318 -133 153 431 145 hintmask 10001101
          141 hmoveto
          209 hlineto
          487 701 rlineto
          -209 hlineto
          -379 -165 rmoveto
          91 79 rlineto
          84 -318 -108 vlineto
          hintmask 10011011
          142 hlineto
          -78 -68 rlineto
          -78 82 vlineto
          26 13 -10 -21 -21 -13 -9 -26 -38 -36 20 41 -33 hvcurveto
          -62 -114 rlineto
          -35 43 71 -23 68 hhcurveto
          109 70 59 82 63 -40 41 -52 13 hvcurveto
          523 -347 rmoveto
          -49 hlineto
          116 237 rlineto
          -149 hlineto
          hintmask 00101101
          -126 -246 rlineto
          -98 208 vlineto
          hintmask 10001101
          -77 145 vlineto
          hintmask 00101101
          77 55 vlineto
          hintmask 10001101
          107 -55 vlineto
          hintmask 01001101
          76 -145 vlineto
          endchar
        </CharString>
        <CharString name="threesuperior">
          -319 273 111 207 108 hstemhm
          22 318 -133 153 hintmask 00000000
          hintmask 01100000
          249 536 rmoveto
          91 79 rlineto
          84 -318 -108 vlineto
          hintmask 11010000
          142 hlineto
          -78 -68 rlineto
          -78 82 vlineto
          26 13 -10 -21 -21 -13 -9 -26 -38 -36 20 41 -33 hvcurveto
          -62 -114 rlineto
          -35 43 71 -23 68 hhcurveto
          109 70 59 82 63 -40 41 -52 13 hvcurveto
          endchar
        </CharString>
        <CharString name="tilde">
          612 182 -180 183 hstemhm
          -19 136 117 135 hintmask 00000000
          hintmask 01100000
          98 797 rmoveto
          -79 -38 -58 -125 hvcurveto
          136 hlineto
          hintmask 10110000
          26 7 12 16 vhcurveto
          24 26 -40 63 hhcurveto
          79 37 58 124 hvcurveto
          -135 hlineto
          -25 -7 -12 -17 vhcurveto
          hintmask 01100000
          -23 -27 40 -62 hhcurveto
          endchar
        </CharString>
        <CharString name="trademark">
          228 573 128 hstem
          90 161 132 144 219 144 vstem
          353 573 rmoveto
          128 -364 -128 101 -293 161 293 vlineto
          639 -293 rmoveto
          421 -174 vlineto
          -80 -192 -79 192 rlineto
          -174 -421 144 192 hlineto
          54 -152 rlineto
          111 hlineto
          54 152 rlineto
          -192 vlineto
          endchar
        </CharString>
        <CharString name="two">
          -83 0 178 346 187 hstemhm
          333 243 hintmask 00000000
          hintmask 11100000
          323 711 rmoveto
          -110 -102 -41 -69 -100 hvcurveto
          86 -167 rlineto
          55 68 69 35 53 hhcurveto
          30 16 -13 -24 -24 -23 -35 -28 -30 hvcurveto
          -243 -253 rlineto
          -145 547 178 -252 vlineto
          106 106 rlineto
          78 78 58 78 81 vvcurveto
          114 -109 76 -144 vhcurveto
          endchar
        </CharString>
        <CharString name="two.dnom">
          -299 0 115 191 121 hstemhm
          28 349 -168 164 hintmask 00000000
          hintmask 11010000
          211 427 rmoveto
          -71 -66 -25 -42 -65 hvcurveto
          58 -108 rlineto
          33 43 44 21 32 hhcurveto
          15 8 -5 -11 -13 -14 -19 -15 -16 hvcurveto
          hintmask 10100000
          -152 -149 rlineto
          -93 349 115 -149 vlineto
          hintmask 10010000
          58 54 rlineto
          50 47 37 46 50 vvcurveto
          hintmask 11010000
          69 -70 46 -92 vhcurveto
          endchar
        </CharString>
        <CharString name="two.numr">
          -299 280 115 191 121 hstemhm
          28 349 -168 164 hintmask 00000000
          hintmask 11010000
          211 707 rmoveto
          -71 -66 -25 -42 -65 hvcurveto
          58 -108 rlineto
          33 43 44 21 32 hhcurveto
          15 8 -5 -11 -13 -14 -19 -15 -16 hvcurveto
          hintmask 11100000
          -152 -149 rlineto
          -93 349 115 -149 vlineto
          hintmask 11010000
          58 54 rlineto
          50 47 37 46 50 vvcurveto
          69 -70 46 -92 vhcurveto
          endchar
        </CharString>
        <CharString name="twosuperior">
          -299 280 115 191 121 hstemhm
          28 349 -168 164 hintmask 00000000
          hintmask 11010000
          211 707 rmoveto
          -71 -66 -25 -42 -65 hvcurveto
          58 -108 rlineto
          33 43 44 21 32 hhcurveto
          15 8 -5 -11 -13 -14 -19 -15 -16 hvcurveto
          hintmask 11100000
          -152 -149 rlineto
          -93 349 115 -149 vlineto
          hintmask 11010000
          58 54 rlineto
          50 47 37 46 50 vvcurveto
          69 -70 46 -92 vhcurveto
          endchar
        </CharString>
        <CharString name="u">
          -21 0 188 -177 -21 557 -20 hstemhm
          40 225 127 225 hintmask 01111000
          617 547 rmoveto
          -225 hlineto
          hintmask 10111000
          -271 vlineto
          -53 -26 -35 -41 -36 -24 29 46 vhcurveto
          284 -225 -349 vlineto
          hintmask 01111000
          -126 79 -82 112 70 55 31 55 36 vhcurveto
          hintmask 10111000
          -76 225 vlineto
          endchar
        </CharString>
        <CharString name="uacute">
          -21 0 188 -177 -21 557 -20 hstemhm
          40 225 127 225 hintmask 01111000
          385 591 rmoveto
          137 129 -190 60 -107 -189 rlineto
          392 -44 rmoveto
          -225 hlineto
          hintmask 10111000
          -271 vlineto
          -53 -26 -35 -41 -36 -24 29 46 vhcurveto
          284 -225 -349 vlineto
          hintmask 01111000
          -126 79 -82 112 70 55 31 55 36 vhcurveto
          hintmask 10111000
          -76 225 vlineto
          endchar
        </CharString>
        <CharString name="ucircumflex">
          -21 0 188 -177 -21 557 -20 80 162 hstemhm
          40 225 127 225 hintmask 01111100
          275 607 rmoveto
          55 82 55 -82 rlineto
          150 hlineto
          -121 162 rlineto
          -168 hlineto
          -121 -162 rlineto
          492 -60 rmoveto
          -225 hlineto
          hintmask 10111100
          -271 vlineto
          -53 -26 -35 -41 -36 -24 29 46 vhcurveto
          284 -225 -349 vlineto
          hintmask 01111100
          -126 79 -82 112 70 55 31 55 36 vhcurveto
          hintmask 10111100
          -76 225 vlineto
          endchar
        </CharString>
        <CharString name="udieresis">
          -21 0 188 -177 -21 557 -20 80 183 hstemhm
          40 225 -130 182 26 182 -133 225 hintmask 00000000
          hintmask 01110101
          226 607 rmoveto
          54 37 38 53 54 -37 38 -54 -54 -37 -38 -54 -53 37 -38 54 hvcurveto
          hintmask 01111010
          208 hmoveto
          54 37 38 53 54 -37 38 -54 -54 -37 -38 -54 -53 37 -38 54 hvcurveto
          hintmask 10111001
          183 -60 rmoveto
          -225 -271 hlineto
          -53 -26 -35 -41 -36 -24 29 46 vhcurveto
          284 -225 -349 vlineto
          hintmask 01111001
          -126 79 -82 112 70 55 31 55 36 vhcurveto
          hintmask 10111001
          -76 225 vlineto
          endchar
        </CharString>
        <CharString name="ugrave">
          -21 0 188 -177 -21 557 -20 hstemhm
          40 225 127 225 hintmask 01111000
          282 591 rmoveto
          160 hlineto
          -107 189 -190 -60 rlineto
          472 -173 rmoveto
          -225 hlineto
          hintmask 10111000
          -271 vlineto
          -53 -26 -35 -41 -36 -24 29 46 vhcurveto
          284 -225 -349 vlineto
          hintmask 01111000
          -126 79 -82 112 70 55 31 55 36 vhcurveto
          hintmask 10111000
          -76 225 vlineto
          endchar
        </CharString>
        <CharString name="uhungarumlaut">
          -21 0 188 -177 -21 557 -20 hstemhm
          40 225 127 225 hintmask 01111000
          290 591 rmoveto
          89 136 -162 53 -87 -189 rlineto
          221 hmoveto
          160 hlineto
          89 136 -162 53 rlineto
          179 -233 rmoveto
          -225 hlineto
          hintmask 10111000
          -271 vlineto
          -53 -26 -35 -41 -36 -24 29 46 vhcurveto
          284 -225 -349 vlineto
          hintmask 01111000
          -126 79 -82 112 70 55 31 55 36 vhcurveto
          hintmask 10111000
          -76 225 vlineto
          endchar
        </CharString>
        <CharString name="umacron">
          -21 0 188 -177 -21 557 -20 97 148 hstemhm
          40 225 127 225 hintmask 01111100
          480 624 rmoveto
          148 -300 -148 vlineto
          437 -77 rmoveto
          -225 hlineto
          hintmask 10111100
          -271 vlineto
          -53 -26 -35 -41 -36 -24 29 46 vhcurveto
          284 -225 -349 vlineto
          hintmask 01111100
          -126 79 -82 112 70 55 31 55 36 vhcurveto
          hintmask 10111100
          -76 225 vlineto
          endchar
        </CharString>
        <CharString name="underscore">
          -94 -204 120 hstem
          0 599 vstem
          599 -204 rmoveto
          120 -599 -120 vlineto
          endchar
        </CharString>
        <CharString name="uogonek">
          -23 -183 -21 194 198 -167 -21 547 -20 hstemhm
          40 225 137 225 -206 110 hintmask 10111100
          627 hmoveto
          547 -225 vlineto
          hintmask 11011100
          -271 vlineto
          -53 -28 -35 -44 -39 -26 29 46 vhcurveto
          284 -225 -349 vlineto
          -126 81 -82 115 72 57 32 56 37 vhcurveto
          hintmask 10111100
          -78 62 vlineto
          -24 -36 -19 -39 -41 vvcurveto
          -69 54 -19 42 49 43 25 51 28 vhcurveto
          hintmask 10111010
          -55 64 rlineto
          -19 -11 -13 -11 -13 hhcurveto
          -8 -6 5 10 16 16 30 22 33 hvcurveto
          endchar
        </CharString>
        <CharString name="uring">
          -21 0 188 -177 -21 557 -20 52 85 78 85 hstemhm
          40 225 -59 85 78 85 -62 225 hintmask 0000000000000000
          hintmask 0111101100000000
          330 579 rmoveto
          69 55 55 69 69 -55 55 -69 -69 -55 -55 -69 -69 55 -55 69 hvcurveto
          163 vmoveto
          22 17 -17 -22 -22 -17 -17 -22 -22 -17 17 22 22 17 17 22 hvcurveto
          hintmask 1011110010000000
          287 -195 rmoveto
          -225 -271 hlineto
          -53 -26 -35 -41 -36 -24 29 46 vhcurveto
          284 -225 -349 vlineto
          hintmask 0111110010000000
          -126 79 -82 112 70 55 31 55 36 vhcurveto
          hintmask 1011110010000000
          -76 225 vlineto
          endchar
        </CharString>
        <CharString name="v">
          -81 21 -21 547 -20 hstem
          -10 632 vstem
          420 hmoveto
          202 547 rlineto
          -225 hlineto
          -89 -343 -87 343 rlineto
          -231 hlineto
          200 -547 rlineto
          endchar
        </CharString>
        <CharString name="w">
          284 0 221 -200 -21 547 -20 hstemhm
          -10 997 hintmask 01110000
          787 hmoveto
          200 547 rlineto
          -217 hlineto
          hintmask 10110000
          -86 -326 -87 326 rlineto
          -208 hlineto
          -84 -326 -87 326 rlineto
          -228 hlineto
          198 -547 rlineto
          220 hlineto
          81 288 78 -288 rlineto
          endchar
        </CharString>
        <CharString name="wacute">
          284 0 221 -200 -21 547 -20 hstemhm
          -10 997 hintmask 01110000
          681 720 rmoveto
          -190 60 -107 -189 rlineto
          160 hlineto
          243 -591 rmoveto
          200 547 rlineto
          -217 hlineto
          hintmask 10110000
          -86 -326 -87 326 rlineto
          -208 hlineto
          -84 -326 -87 326 rlineto
          -228 hlineto
          198 -547 rlineto
          220 hlineto
          81 288 78 -288 rlineto
          endchar
        </CharString>
        <CharString name="wcircumflex">
          284 0 221 -200 -21 547 -20 80 162 hstemhm
          -10 997 hintmask 01111000
          694 607 rmoveto
          -121 162 rlineto
          -168 hlineto
          -121 -162 rlineto
          150 hlineto
          55 82 55 -82 rlineto
          243 -607 rmoveto
          200 547 rlineto
          -217 hlineto
          hintmask 10111000
          -86 -326 -87 326 rlineto
          -208 hlineto
          -84 -326 -87 326 rlineto
          -228 hlineto
          198 -547 rlineto
          220 hlineto
          81 288 78 -288 rlineto
          endchar
        </CharString>
        <CharString name="wdieresis">
          284 0 221 -200 -21 547 -20 80 183 hstemhm
          294 182 26 182 hintmask 01111000
          385 790 rmoveto
          -54 -37 -38 -54 -53 37 -38 54 54 37 38 53 54 -37 38 -54 hvcurveto
          hintmask 01111100
          208 hmoveto
          -54 -37 -38 -54 -53 37 -38 54 54 37 38 53 54 -37 38 -54 hvcurveto
          194 -790 rmoveto
          200 547 rlineto
          -217 hlineto
          hintmask 10111100
          -86 -326 -87 326 rlineto
          -208 hlineto
          -84 -326 -87 326 rlineto
          -228 hlineto
          198 -547 rlineto
          220 hlineto
          81 288 78 -288 rlineto
          endchar
        </CharString>
        <CharString name="wgrave">
          284 0 221 -200 -21 547 -20 hstemhm
          -10 997 hintmask 01110000
          601 591 rmoveto
          -107 189 -190 -60 137 -129 rlineto
          346 -591 rmoveto
          200 547 rlineto
          -217 hlineto
          hintmask 10110000
          -86 -326 -87 326 rlineto
          -208 hlineto
          -84 -326 -87 326 rlineto
          -228 hlineto
          198 -547 rlineto
          220 hlineto
          81 288 78 -288 rlineto
          endchar
        </CharString>
        <CharString name="x">
          -39 21 -21 547 -20 hstem
          -5 664 vstem
          327 419 rmoveto
          -63 128 rlineto
          -258 hlineto
          170 -267 -181 -280 rlineto
          247 hlineto
          85 142 73 -142 rlineto
          259 hlineto
          -182 281 170 266 rlineto
          -246 hlineto
          endchar
        </CharString>
        <CharString name="y">
          -69 -204 180 -159 -21 751 -20 hstemhm
          -20 654 hintmask 01110000
          634 547 rmoveto
          -224 hlineto
          -89 -312 -108 312 rlineto
          -231 hlineto
          hintmask 10110000
          227 -530 -8 -13 rlineto
          -19 -11 -17 -9 -26 hhcurveto
          -27 -22 10 22 -24 hvcurveto
          -94 -148 rlineto
          -44 59 58 -20 72 hhcurveto
          117 77 52 114 46 hvcurveto
          endchar
        </CharString>
        <CharString name="yacute">
          -69 -204 180 -159 -21 751 -20 hstemhm
          -20 654 hintmask 01110000
          504 720 rmoveto
          -190 60 -107 -189 rlineto
          160 hlineto
          267 -44 rmoveto
          -224 hlineto
          -89 -312 -108 312 rlineto
          -231 hlineto
          hintmask 10110000
          227 -530 -8 -13 rlineto
          -19 -11 -17 -9 -26 hhcurveto
          -27 -22 10 22 -24 hvcurveto
          -94 -148 rlineto
          -44 59 58 -20 72 hhcurveto
          117 77 52 114 46 hvcurveto
          endchar
        </CharString>
        <CharString name="ycircumflex">
          -69 -204 180 -159 -21 751 -20 80 162 hstemhm
          -20 654 hintmask 01111000
          517 607 rmoveto
          -121 162 rlineto
          -168 hlineto
          -121 -162 rlineto
          150 hlineto
          55 82 55 -82 rlineto
          267 -60 rmoveto
          -224 hlineto
          -89 -312 -108 312 rlineto
          -231 hlineto
          hintmask 10111000
          227 -530 -8 -13 rlineto
          -19 -11 -17 -9 -26 hhcurveto
          -27 -22 10 22 -24 hvcurveto
          -94 -148 rlineto
          -44 59 58 -20 72 hhcurveto
          117 77 52 114 46 hvcurveto
          endchar
        </CharString>
        <CharString name="ydieresis">
          -69 -204 180 -159 -21 751 -20 80 183 hstemhm
          117 182 26 182 hintmask 01111000
          208 790 rmoveto
          -54 -37 -38 -54 -53 37 -38 54 54 37 38 53 54 -37 38 -54 hvcurveto
          hintmask 10111100
          208 hmoveto
          -54 -37 -38 -54 -53 37 -38 54 54 37 38 53 54 -37 38 -54 hvcurveto
          218 -243 rmoveto
          -224 hlineto
          -89 -312 -108 312 rlineto
          -231 hlineto
          227 -530 -8 -13 rlineto
          -19 -11 -17 -9 -26 hhcurveto
          -27 -22 10 22 -24 hvcurveto
          -94 -148 rlineto
          -44 59 58 -20 72 hhcurveto
          117 77 52 114 46 hvcurveto
          endchar
        </CharString>
        <CharString name="yen">
          6 0 230 -82 82 46 81 344 -20 hstemhm
          246 232 hintmask 10111000
          550 357 rmoveto
          179 344 rlineto
          -231 hlineto
          -136 -270 -141 270 rlineto
          -231 hlineto
          180 -344 rlineto
          -106 -81 149 hlineto
          24 -46 rlineto
          -173 hlineto
          hintmask 01111000
          -82 182 vlineto
          hintmask 10111000
          -148 232 vlineto
          hintmask 01111000
          148 157 vlineto
          hintmask 10111000
          82 -151 vlineto
          24 46 rlineto
          127 81 hlineto
          endchar
        </CharString>
        <CharString name="ygrave">
          -69 -204 180 -159 -21 751 -20 hstemhm
          -20 654 hintmask 01110000
          424 591 rmoveto
          -107 189 -190 -60 137 -129 rlineto
          370 -44 rmoveto
          -224 hlineto
          -89 -312 -108 312 rlineto
          -231 hlineto
          hintmask 10110000
          227 -530 -8 -13 rlineto
          -19 -11 -17 -9 -26 hhcurveto
          -27 -22 10 22 -24 hvcurveto
          -94 -148 rlineto
          -44 59 58 -20 72 hhcurveto
          117 77 52 114 46 hvcurveto
          endchar
        </CharString>
        <CharString name="z">
          -125 0 168 211 168 hstem
          25 522 vstem
          537 416 rmoveto
          131 -502 -168 218 vlineto
          -228 -248 rlineto
          -131 522 168 -238 vlineto
          endchar
        </CharString>
        <CharString name="zacute">
          -125 0 168 211 168 hstem
          25 522 vstem
          476 720 rmoveto
          -190 60 -107 -189 rlineto
          160 hlineto
          198 -175 rmoveto
          131 -502 -168 218 vlineto
          -228 -248 rlineto
          -131 522 168 -238 vlineto
          endchar
        </CharString>
        <CharString name="zcaron">
          -125 0 168 211 168 44 178 hstem
          25 522 vstem
          53 769 rmoveto
          133 -178 rlineto
          184 hlineto
          133 178 rlineto
          -165 hlineto
          -60 -90 -60 90 rlineto
          319 -353 rmoveto
          131 -502 -168 218 vlineto
          -228 -248 rlineto
          -131 522 168 -238 vlineto
          endchar
        </CharString>
        <CharString name="zdotaccent">
          -125 0 168 211 168 42 228 hstem
          170 228 vstem
          284 817 rmoveto
          -67 -47 -47 -67 -67 47 -47 67 67 47 47 67 67 -47 47 -67 hvcurveto
          253 -401 rmoveto
          131 -502 -168 218 vlineto
          -228 -248 rlineto
          -131 522 168 -238 vlineto
          endchar
        </CharString>
        <CharString name="zero">
          20 -7 168 379 168 hstem
          35 238 167 238 vstem
          357 708 rmoveto
          -208 -114 -127 -230 -230 114 -128 208 206 115 128 230 230 -115 127 -206 hvcurveto
          -168 vmoveto
          62 21 -47 -142 -142 -21 -48 -62 -63 -21 48 142 142 21 47 63 hvcurveto
          endchar
        </CharString>
        <CharString name="zero.dnom">
          -234 -5 119 193 118 hstem
          25 141 128 140 vstem
          230 425 rmoveto
          -124 -81 -84 -130 -131 81 -85 124 124 80 85 131 130 -80 84 -124 hvcurveto
          -118 vmoveto
          39 25 -38 -58 -59 -25 -38 -39 -39 -25 38 59 58 25 38 39 hvcurveto
          endchar
        </CharString>
        <CharString name="zero.numr">
          -234 275 119 193 118 hstem
          25 141 128 140 vstem
          230 705 rmoveto
          -124 -81 -84 -130 -131 81 -85 124 124 80 85 131 130 -80 84 -124 hvcurveto
          -118 vmoveto
          39 25 -38 -58 -59 -25 -38 -39 -39 -25 38 59 58 25 38 39 hvcurveto
          endchar
        </CharString>
</ttFont>
